M48
; DRILL file {KiCad 9.0.7} date 2026-04-03T17:45:54+0200
; FORMAT={-:-/ absolute / metric / decimal}
; #@! TF.CreationDate,2026-04-03T17:45:54+02:00
; #@! TF.GenerationSoftware,Kicad,Pcbnew,9.0.7
; #@! TF.FileFunction,Plated,1,4,PTH
FMAT,2
METRIC
; #@! TA.AperFunction,Plated,PTH,ViaDrill
T1C0.300
; #@! TA.AperFunction,Plated,PTH,ComponentDrill
T2C0.800
; #@! TA.AperFunction,Plated,PTH,ComponentDrill
T3C0.889
; #@! TA.AperFunction,Plated,PTH,ComponentDrill
T4C0.900
; #@! TA.AperFunction,Plated,PTH,ComponentDrill
T5C1.000
; #@! TA.AperFunction,Plated,PTH,ComponentDrill
T6C1.100
; #@! TA.AperFunction,Plated,PTH,ComponentDrill
T7C1.190
; #@! TA.AperFunction,Plated,PTH,ComponentDrill
T8C1.300
%
G90
G05
T1
X42.0Y-51.5
X42.0Y-61.5
X42.0Y-71.5
X52.0Y-51.5
X52.0Y-71.5
X62.0Y-51.5
X62.0Y-61.5
X62.0Y-71.5
X72.0Y-51.5
X72.0Y-71.5
X82.0Y-61.5
X82.0Y-71.5
X92.0Y-54.25
X92.0Y-63.25
X92.0Y-71.5
X102.0Y-61.5
X102.0Y-71.5
X112.0Y-61.5
X132.0Y-71.5
X133.25Y-64.5
X138.5Y-53.75
X142.0Y-71.5
X147.0Y-57.75
X147.0Y-63.75
X147.5Y-63.25
X147.75Y-58.25
X148.5Y-58.25
X148.5Y-63.25
X148.75Y-55.65
X148.75Y-65.75
X149.25Y-56.25
X149.25Y-57.75
X149.25Y-63.75
X149.25Y-65.0
X149.75Y-55.75
X149.75Y-65.75
X150.0Y-58.25
X150.0Y-63.25
X151.0Y-58.25
X151.0Y-63.25
X151.75Y-57.75
X151.75Y-63.75
X152.0Y-71.5
X162.0Y-61.5
X162.0Y-71.5
X172.0Y-61.5
X172.0Y-71.5
X182.0Y-61.5
X182.0Y-71.5
X192.0Y-61.5
X192.0Y-71.5
X202.0Y-51.5
X202.0Y-71.5
X212.0Y-51.5
X212.0Y-61.5
X212.0Y-71.5
X222.0Y-51.5
X222.0Y-61.5
X222.0Y-71.5
X232.0Y-51.5
X232.0Y-61.5
X232.0Y-71.5
T2
X57.545Y-60.5
X59.545Y-60.5
X64.815Y-59.817
X64.84Y-57.277
X64.84Y-68.072
X64.84Y-70.612
X83.636Y-68.199
X83.636Y-70.739
X83.738Y-59.817
X83.763Y-57.277
X131.75Y-57.0
X136.75Y-57.0
X140.38Y-56.88
X140.38Y-64.5
X142.92Y-56.88
X142.92Y-64.5
X145.46Y-56.88
X145.46Y-64.5
X148.0Y-53.75
X148.0Y-56.88
X148.0Y-64.5
X150.54Y-56.88
X150.54Y-64.5
X153.08Y-56.88
X153.08Y-64.5
X155.62Y-56.88
X155.62Y-64.5
X158.16Y-53.75
X158.16Y-56.88
X158.16Y-64.5
X162.5Y-59.5
X162.5Y-64.5
X168.0Y-53.25
X168.0Y-55.25
X172.75Y-53.25
X172.75Y-58.25
X176.0Y-68.0
X178.205Y-63.25
X180.205Y-63.25
X181.0Y-68.0
X195.5Y-56.0
X195.5Y-61.0
X195.5Y-63.75
X195.5Y-68.75
T3
X111.3Y-54.5
X111.3Y-69.74
X113.84Y-54.5
X113.84Y-69.74
X116.38Y-54.5
X116.38Y-69.74
X118.92Y-54.5
X118.92Y-69.74
X121.46Y-54.5
X121.46Y-69.74
X124.0Y-54.5
X124.0Y-69.74
X126.54Y-54.5
X126.54Y-69.74
T4
X199.38Y-61.0
X199.38Y-63.54
X199.38Y-66.08
X199.38Y-68.62
X201.92Y-61.0
X204.46Y-61.0
X207.0Y-61.0
X231.53Y-81.96
X231.53Y-84.5
T6
X185.46Y-67.2
X188.0Y-67.2
X190.54Y-67.2
T7
X133.3Y-69.0
X135.84Y-69.0
X138.38Y-69.0
X140.92Y-69.0
X143.46Y-69.0
X146.0Y-69.0
X192.52Y-81.985
X192.52Y-84.525
T8
X177.25Y-55.75
X182.25Y-55.75
T5
G00X45.5Y-57.5
M15
G01X47.5Y-57.5
M16
G05
G00X45.5Y-63.5
M15
G01X47.5Y-63.5
M16
G05
G00X51.2Y-61.5
M15
G01X51.2Y-59.5
M16
G05
M30
