%TF.GenerationSoftware,KiCad,Pcbnew,9.0.7*%
%TF.CreationDate,2026-04-03T17:45:58+02:00*%
%TF.ProjectId,meowpass_0.2,6d656f77-7061-4737-935f-302e322e6b69,rev?*%
%TF.SameCoordinates,Original*%
%TF.FileFunction,Copper,L3,Inr*%
%TF.FilePolarity,Positive*%
%FSLAX46Y46*%
G04 Gerber Fmt 4.6, Leading zero omitted, Abs format (unit mm)*
G04 Created by KiCad (PCBNEW 9.0.7) date 2026-04-03 17:45:58*
%MOMM*%
%LPD*%
G01*
G04 APERTURE LIST*
G04 Aperture macros list*
%AMRoundRect*
0 Rectangle with rounded corners*
0 $1 Rounding radius*
0 $2 $3 $4 $5 $6 $7 $8 $9 X,Y pos of 4 corners*
0 Add a 4 corners polygon primitive as box body*
4,1,4,$2,$3,$4,$5,$6,$7,$8,$9,$2,$3,0*
0 Add four circle primitives for the rounded corners*
1,1,$1+$1,$2,$3*
1,1,$1+$1,$4,$5*
1,1,$1+$1,$6,$7*
1,1,$1+$1,$8,$9*
0 Add four rect primitives between the rounded corners*
20,1,$1+$1,$2,$3,$4,$5,0*
20,1,$1+$1,$4,$5,$6,$7,0*
20,1,$1+$1,$6,$7,$8,$9,0*
20,1,$1+$1,$8,$9,$2,$3,0*%
G04 Aperture macros list end*
%TA.AperFunction,ComponentPad*%
%ADD10C,1.600000*%
%TD*%
%TA.AperFunction,ComponentPad*%
%ADD11RoundRect,0.250000X-0.550000X0.550000X-0.550000X-0.550000X0.550000X-0.550000X0.550000X0.550000X0*%
%TD*%
%TA.AperFunction,ComponentPad*%
%ADD12C,1.524000*%
%TD*%
%TA.AperFunction,ComponentPad*%
%ADD13C,2.600000*%
%TD*%
%TA.AperFunction,ComponentPad*%
%ADD14R,1.600000X1.600000*%
%TD*%
%TA.AperFunction,ComponentPad*%
%ADD15O,1.600000X1.600000*%
%TD*%
%TA.AperFunction,ComponentPad*%
%ADD16RoundRect,0.250000X0.845000X-0.620000X0.845000X0.620000X-0.845000X0.620000X-0.845000X-0.620000X0*%
%TD*%
%TA.AperFunction,ComponentPad*%
%ADD17O,2.190000X1.740000*%
%TD*%
%TA.AperFunction,ComponentPad*%
%ADD18C,1.700000*%
%TD*%
%TA.AperFunction,ComponentPad*%
%ADD19R,1.905000X2.000000*%
%TD*%
%TA.AperFunction,ComponentPad*%
%ADD20O,1.905000X2.000000*%
%TD*%
%TA.AperFunction,ComponentPad*%
%ADD21RoundRect,0.250000X0.550000X0.550000X-0.550000X0.550000X-0.550000X-0.550000X0.550000X-0.550000X0*%
%TD*%
%TA.AperFunction,ComponentPad*%
%ADD22R,3.500000X3.500000*%
%TD*%
%TA.AperFunction,ComponentPad*%
%ADD23RoundRect,0.750000X1.000000X-0.750000X1.000000X0.750000X-1.000000X0.750000X-1.000000X-0.750000X0*%
%TD*%
%TA.AperFunction,ComponentPad*%
%ADD24RoundRect,0.875000X0.875000X-0.875000X0.875000X0.875000X-0.875000X0.875000X-0.875000X-0.875000X0*%
%TD*%
%TA.AperFunction,ComponentPad*%
%ADD25RoundRect,0.250000X0.620000X0.845000X-0.620000X0.845000X-0.620000X-0.845000X0.620000X-0.845000X0*%
%TD*%
%TA.AperFunction,ComponentPad*%
%ADD26O,1.740000X2.190000*%
%TD*%
%TA.AperFunction,ComponentPad*%
%ADD27RoundRect,0.250000X-0.550000X-0.550000X0.550000X-0.550000X0.550000X0.550000X-0.550000X0.550000X0*%
%TD*%
%TA.AperFunction,ComponentPad*%
%ADD28RoundRect,0.250000X0.550000X-0.550000X0.550000X0.550000X-0.550000X0.550000X-0.550000X-0.550000X0*%
%TD*%
%TA.AperFunction,ViaPad*%
%ADD29C,0.600000*%
%TD*%
%TA.AperFunction,Conductor*%
%ADD30C,1.500000*%
%TD*%
%TA.AperFunction,Conductor*%
%ADD31C,1.000000*%
%TD*%
G04 APERTURE END LIST*
D10*
%TO.N,+5V*%
%TO.C,C4*%
X136750000Y-57000000D03*
%TO.N,GND*%
X131750000Y-57000000D03*
%TD*%
D11*
%TO.N,+12V*%
%TO.C,C6*%
X168000000Y-53250000D03*
D10*
%TO.N,GND*%
X168000000Y-55250000D03*
%TD*%
D12*
%TO.N,/RFID data*%
%TO.C,U1*%
X111300000Y-69740000D03*
%TO.N,/GPIO1*%
X113840000Y-69740000D03*
%TO.N,/GPIO2*%
X116380000Y-69740000D03*
%TO.N,/GPIO21*%
X118920000Y-69740000D03*
%TO.N,/GPIO22*%
X121460000Y-69740000D03*
%TO.N,unconnected-(U1-GPIO23{slash}D5{slash}SCL-Pad6)*%
X124000000Y-69740000D03*
%TO.N,unconnected-(U1-GPIO16{slash}D6{slash}TX-Pad7)_1*%
X126540000Y-69740000D03*
%TO.N,unconnected-(U1-GPIO17{slash}D7{slash}RX-Pad8)*%
X126540000Y-54500000D03*
%TO.N,unconnected-(U1-GPIO19{slash}D8{slash}SCK-Pad9)*%
X124000000Y-54500000D03*
%TO.N,unconnected-(U1-GPIO20{slash}D9{slash}MISO-Pad10)_1*%
X121460000Y-54500000D03*
%TO.N,unconnected-(U1-GPIO18{slash}D10{slash}MOSI-Pad11)_1*%
X118920000Y-54500000D03*
%TO.N,unconnected-(U1-3V3-Pad12)*%
X116380000Y-54500000D03*
%TO.N,GND*%
X113840000Y-54500000D03*
%TO.N,+5V*%
X111300000Y-54500000D03*
%TD*%
D13*
%TO.N,+12V*%
%TO.C,L1*%
X177250000Y-55750000D03*
%TO.N,Net-(U4-IN)*%
X182250000Y-55750000D03*
%TD*%
D10*
%TO.N,+12V*%
%TO.C,C5*%
X162500000Y-64500000D03*
%TO.N,GND*%
X162500000Y-59500000D03*
%TD*%
%TO.N,GND*%
%TO.C,C2*%
X195500000Y-56000000D03*
%TO.N,+9V*%
X195500000Y-61000000D03*
%TD*%
D14*
%TO.N,+12V*%
%TO.C,U2*%
X64840000Y-68072000D03*
X64840000Y-70612000D03*
D15*
%TO.N,GND*%
X64814600Y-59817000D03*
X64840000Y-57277000D03*
D14*
%TO.N,+5V*%
X83636000Y-68199000D03*
X83636000Y-70739000D03*
D15*
%TO.N,GND*%
X83737600Y-59817000D03*
X83763000Y-57277000D03*
%TD*%
D16*
%TO.N,Net-(J3-Pin_1)*%
%TO.C,J3*%
X192520000Y-84525000D03*
D17*
%TO.N,Net-(J3-Pin_2)*%
X192520000Y-81985000D03*
%TD*%
D10*
%TO.N,Net-(U4-IN)*%
%TO.C,C8*%
X181000000Y-68000000D03*
%TO.N,GND*%
X176000000Y-68000000D03*
%TD*%
D18*
%TO.N,Net-(J3-Pin_2)*%
%TO.C,RFID1*%
X231530000Y-81960000D03*
%TO.N,Net-(J3-Pin_1)*%
X231530000Y-84500000D03*
%TO.N,GND*%
X199380000Y-68620000D03*
X207000000Y-61000000D03*
%TO.N,unconnected-(RFID1-5vTX-Pad4)*%
X199380000Y-66080000D03*
%TO.N,unconnected-(RFID1-RST-Pad5)*%
X199380000Y-63540000D03*
%TO.N,+9V*%
X199380000Y-61000000D03*
%TO.N,unconnected-(RFID1-5V+10R-Pad7)*%
X201920000Y-61000000D03*
%TO.N,/RFID data*%
X204460000Y-61000000D03*
%TD*%
D19*
%TO.N,Net-(U4-IN)*%
%TO.C,U4*%
X185460000Y-67200000D03*
D20*
%TO.N,GND*%
X188000000Y-67200000D03*
%TO.N,+9V*%
X190540000Y-67200000D03*
%TD*%
D10*
%TO.N,Net-(U3-EN1\u002C2)*%
%TO.C,R2*%
X158160000Y-53750000D03*
%TO.N,+5V*%
X148000000Y-53750000D03*
%TD*%
D21*
%TO.N,Net-(U4-IN)*%
%TO.C,C9*%
X180205113Y-63250000D03*
D10*
%TO.N,GND*%
X178205113Y-63250000D03*
%TD*%
%TO.N,GND*%
%TO.C,C3*%
X195500000Y-68750000D03*
%TO.N,+9V*%
X195500000Y-63750000D03*
%TD*%
D22*
%TO.N,+12V*%
%TO.C,J1*%
X46500000Y-57500000D03*
D23*
%TO.N,GND*%
X46500000Y-63500000D03*
D24*
%TO.N,N/C*%
X51200000Y-60500000D03*
%TD*%
D25*
%TO.N,unconnected-(J2-Pin_1-Pad1)*%
%TO.C,J2*%
X146000000Y-69000000D03*
D26*
%TO.N,Net-(J2-Pin_2)*%
X143460000Y-69000000D03*
%TO.N,Net-(J2-Pin_3)*%
X140920000Y-69000000D03*
%TO.N,Net-(J2-Pin_4)*%
X138380000Y-69000000D03*
%TO.N,Net-(J2-Pin_5)*%
X135840000Y-69000000D03*
%TO.N,unconnected-(J2-Pin_6-Pad6)*%
X133300000Y-69000000D03*
%TD*%
D27*
%TO.N,+12V*%
%TO.C,C1*%
X57544888Y-60500000D03*
D10*
%TO.N,GND*%
X59544888Y-60500000D03*
%TD*%
%TO.N,+12V*%
%TO.C,C7*%
X172750000Y-53250000D03*
%TO.N,GND*%
X172750000Y-58250000D03*
%TD*%
D28*
%TO.N,Net-(U3-EN1\u002C2)*%
%TO.C,U3*%
X140380000Y-64500000D03*
D10*
%TO.N,/GPIO22*%
X142920000Y-64500000D03*
%TO.N,Net-(J2-Pin_3)*%
X145460000Y-64500000D03*
%TO.N,GND*%
X148000000Y-64500000D03*
X150540000Y-64500000D03*
%TO.N,Net-(J2-Pin_2)*%
X153080000Y-64500000D03*
%TO.N,/GPIO21*%
X155620000Y-64500000D03*
%TO.N,+12V*%
X158160000Y-64500000D03*
%TO.N,Net-(U3-EN1\u002C2)*%
X158160000Y-56880000D03*
%TO.N,/GPIO2*%
X155620000Y-56880000D03*
%TO.N,Net-(J2-Pin_4)*%
X153080000Y-56880000D03*
%TO.N,GND*%
X150540000Y-56880000D03*
X148000000Y-56880000D03*
%TO.N,Net-(J2-Pin_5)*%
X145460000Y-56880000D03*
%TO.N,/GPIO1*%
X142920000Y-56880000D03*
%TO.N,+5V*%
X140380000Y-56880000D03*
%TD*%
D29*
%TO.N,GND*%
X182000000Y-71500000D03*
X162000000Y-61500000D03*
X72000000Y-51500000D03*
X92000000Y-63250000D03*
X42000000Y-71500000D03*
X62000000Y-71500000D03*
X149250000Y-63750000D03*
X52000000Y-51500000D03*
X149250000Y-65000000D03*
X62000000Y-51500000D03*
X192000000Y-71500000D03*
X172000000Y-61500000D03*
X148750000Y-65750000D03*
X222000000Y-61500000D03*
X72000000Y-71500000D03*
X147750000Y-58250000D03*
X152000000Y-71500000D03*
X149250000Y-56250000D03*
X212000000Y-71500000D03*
X62000000Y-61500000D03*
X149250000Y-57750000D03*
X147000000Y-57750000D03*
X147000000Y-63750000D03*
X82000000Y-71500000D03*
X52000000Y-71500000D03*
X132000000Y-71500000D03*
X232000000Y-51500000D03*
X42000000Y-51500000D03*
X212000000Y-51500000D03*
X148500000Y-63250000D03*
X102000000Y-61500000D03*
X232000000Y-71500000D03*
X92000000Y-54250000D03*
X149750000Y-55750000D03*
X222000000Y-71500000D03*
X150000000Y-58250000D03*
X149750000Y-65750000D03*
X138500000Y-53750000D03*
X142000000Y-71500000D03*
X202000000Y-71500000D03*
X172000000Y-71500000D03*
X232000000Y-61500000D03*
X112000000Y-61500000D03*
X212000000Y-61500000D03*
X151000000Y-58250000D03*
X151000000Y-63250000D03*
X192000000Y-61500000D03*
X102000000Y-71500000D03*
X162000000Y-71500000D03*
X92000000Y-71500000D03*
X148500000Y-58250000D03*
X202000000Y-51500000D03*
X82000000Y-61500000D03*
X182000000Y-61500000D03*
X150000000Y-63250000D03*
X42000000Y-61500000D03*
X222000000Y-51500000D03*
X151750000Y-63750000D03*
X147500000Y-63250000D03*
X151750000Y-57750000D03*
X133250000Y-64500000D03*
X148750000Y-55650000D03*
%TD*%
D30*
%TO.N,+12V*%
X162500000Y-64500000D02*
X158160000Y-64500000D01*
X168000000Y-53250000D02*
X166192244Y-51442244D01*
X161001780Y-51442244D02*
X81469756Y-51442244D01*
X57544888Y-60500000D02*
X57544888Y-62044888D01*
X64840000Y-68072000D02*
X64840000Y-70612000D01*
X168000000Y-53250000D02*
X172750000Y-53250000D01*
X162500000Y-64500000D02*
X164500000Y-62500000D01*
X46500000Y-57500000D02*
X54544888Y-57500000D01*
X57544888Y-62044888D02*
X63572000Y-68072000D01*
X164500000Y-54940464D02*
X162279768Y-52720232D01*
X54544888Y-57500000D02*
X57544888Y-60500000D01*
X81469756Y-51442244D02*
X64840000Y-68072000D01*
X174750000Y-53250000D02*
X177250000Y-55750000D01*
X166192244Y-51442244D02*
X161001780Y-51442244D01*
X164500000Y-62500000D02*
X164500000Y-54940464D01*
X63572000Y-68072000D02*
X64840000Y-68072000D01*
X162279768Y-52720232D02*
X161001780Y-51442244D01*
X172750000Y-53250000D02*
X174750000Y-53250000D01*
%TO.N,+5V*%
X113089030Y-56313000D02*
X113113000Y-56313000D01*
X111300000Y-54500000D02*
X97335000Y-54500000D01*
X113113000Y-56313000D02*
X113300000Y-56500000D01*
X140380000Y-56370000D02*
X143000000Y-53750000D01*
X130250000Y-55000000D02*
X134750000Y-55000000D01*
X113300000Y-56500000D02*
X128750000Y-56500000D01*
X112027000Y-55250970D02*
X113089030Y-56313000D01*
X97335000Y-54500000D02*
X83636000Y-68199000D01*
X134750000Y-55000000D02*
X136750000Y-57000000D01*
X112027000Y-55227000D02*
X112027000Y-55250970D01*
X128750000Y-56500000D02*
X130250000Y-55000000D01*
X140380000Y-56880000D02*
X140380000Y-56370000D01*
X111300000Y-54500000D02*
X112027000Y-55227000D01*
X137250000Y-57000000D02*
X140260000Y-57000000D01*
X83636000Y-70739000D02*
X83636000Y-68199000D01*
X148000000Y-53750000D02*
X143000000Y-53750000D01*
D31*
%TO.N,Net-(J2-Pin_4)*%
X153080000Y-58011370D02*
X151091370Y-60000000D01*
X153080000Y-56880000D02*
X153080000Y-58011370D01*
X138380000Y-63620000D02*
X138380000Y-69000000D01*
X151091370Y-60000000D02*
X142000000Y-60000000D01*
X142000000Y-60000000D02*
X138380000Y-63620000D01*
%TO.N,Net-(J2-Pin_3)*%
X140920000Y-69000000D02*
X140920000Y-68580000D01*
X143399000Y-66101000D02*
X143859000Y-66101000D01*
X143859000Y-66101000D02*
X145460000Y-64500000D01*
X140920000Y-68580000D02*
X143399000Y-66101000D01*
X140960000Y-69000000D02*
X140920000Y-69000000D01*
D30*
%TO.N,Net-(U3-EN1\u002C2)*%
X140380000Y-64500000D02*
X140380000Y-64422290D01*
X158160000Y-57840000D02*
X158160000Y-56880000D01*
X154250000Y-61750000D02*
X158160000Y-57840000D01*
X158160000Y-53750000D02*
X158160000Y-56880000D01*
X140380000Y-64422290D02*
X143052290Y-61750000D01*
X143052290Y-61750000D02*
X154250000Y-61750000D01*
D31*
%TO.N,Net-(J2-Pin_5)*%
X135840000Y-69000000D02*
X135840000Y-63910000D01*
X135840000Y-63910000D02*
X141250000Y-58500000D01*
X141250000Y-58500000D02*
X143840000Y-58500000D01*
X143840000Y-58500000D02*
X145460000Y-56880000D01*
%TO.N,Net-(J2-Pin_2)*%
X143460000Y-68540000D02*
X145000000Y-67000000D01*
X153080000Y-64710000D02*
X153080000Y-64500000D01*
X150790000Y-67000000D02*
X153080000Y-64710000D01*
X145000000Y-67000000D02*
X150790000Y-67000000D01*
D30*
%TO.N,+9V*%
X199380000Y-61000000D02*
X195500000Y-61000000D01*
X195500000Y-61000000D02*
X195500000Y-63750000D01*
X192050000Y-67200000D02*
X195500000Y-63750000D01*
X190540000Y-67200000D02*
X192050000Y-67200000D01*
%TO.N,Net-(U4-IN)*%
X182250000Y-55750000D02*
X180205113Y-57794887D01*
X184660000Y-68000000D02*
X185460000Y-67200000D01*
X181000000Y-68000000D02*
X184660000Y-68000000D01*
X180205113Y-67205113D02*
X181000000Y-68000000D01*
X180205113Y-57794887D02*
X180205113Y-63250000D01*
X180205113Y-63250000D02*
X180205113Y-67205113D01*
%TD*%
M02*
