%TF.GenerationSoftware,KiCad,Pcbnew,9.0.7*%
%TF.CreationDate,2026-04-03T17:45:58+02:00*%
%TF.ProjectId,meowpass_0.2,6d656f77-7061-4737-935f-302e322e6b69,rev?*%
%TF.SameCoordinates,Original*%
%TF.FileFunction,Copper,L1,Top*%
%TF.FilePolarity,Positive*%
%FSLAX46Y46*%
G04 Gerber Fmt 4.6, Leading zero omitted, Abs format (unit mm)*
G04 Created by KiCad (PCBNEW 9.0.7) date 2026-04-03 17:45:58*
%MOMM*%
%LPD*%
G01*
G04 APERTURE LIST*
G04 Aperture macros list*
%AMRoundRect*
0 Rectangle with rounded corners*
0 $1 Rounding radius*
0 $2 $3 $4 $5 $6 $7 $8 $9 X,Y pos of 4 corners*
0 Add a 4 corners polygon primitive as box body*
4,1,4,$2,$3,$4,$5,$6,$7,$8,$9,$2,$3,0*
0 Add four circle primitives for the rounded corners*
1,1,$1+$1,$2,$3*
1,1,$1+$1,$4,$5*
1,1,$1+$1,$6,$7*
1,1,$1+$1,$8,$9*
0 Add four rect primitives between the rounded corners*
20,1,$1+$1,$2,$3,$4,$5,0*
20,1,$1+$1,$4,$5,$6,$7,0*
20,1,$1+$1,$6,$7,$8,$9,0*
20,1,$1+$1,$8,$9,$2,$3,0*%
G04 Aperture macros list end*
%TA.AperFunction,ComponentPad*%
%ADD10C,1.600000*%
%TD*%
%TA.AperFunction,ComponentPad*%
%ADD11RoundRect,0.250000X-0.550000X0.550000X-0.550000X-0.550000X0.550000X-0.550000X0.550000X0.550000X0*%
%TD*%
%TA.AperFunction,SMDPad,CuDef*%
%ADD12RoundRect,0.152400X-0.609600X1.063600X-0.609600X-1.063600X0.609600X-1.063600X0.609600X1.063600X0*%
%TD*%
%TA.AperFunction,ComponentPad*%
%ADD13C,1.524000*%
%TD*%
%TA.AperFunction,SMDPad,CuDef*%
%ADD14RoundRect,0.152400X0.609600X-1.063600X0.609600X1.063600X-0.609600X1.063600X-0.609600X-1.063600X0*%
%TD*%
%TA.AperFunction,ComponentPad*%
%ADD15C,2.600000*%
%TD*%
%TA.AperFunction,ComponentPad*%
%ADD16R,1.600000X1.600000*%
%TD*%
%TA.AperFunction,ComponentPad*%
%ADD17O,1.600000X1.600000*%
%TD*%
%TA.AperFunction,ComponentPad*%
%ADD18RoundRect,0.250000X0.845000X-0.620000X0.845000X0.620000X-0.845000X0.620000X-0.845000X-0.620000X0*%
%TD*%
%TA.AperFunction,ComponentPad*%
%ADD19O,2.190000X1.740000*%
%TD*%
%TA.AperFunction,ComponentPad*%
%ADD20C,1.700000*%
%TD*%
%TA.AperFunction,ComponentPad*%
%ADD21R,1.905000X2.000000*%
%TD*%
%TA.AperFunction,ComponentPad*%
%ADD22O,1.905000X2.000000*%
%TD*%
%TA.AperFunction,ComponentPad*%
%ADD23RoundRect,0.250000X0.550000X0.550000X-0.550000X0.550000X-0.550000X-0.550000X0.550000X-0.550000X0*%
%TD*%
%TA.AperFunction,ComponentPad*%
%ADD24R,3.500000X3.500000*%
%TD*%
%TA.AperFunction,ComponentPad*%
%ADD25RoundRect,0.750000X1.000000X-0.750000X1.000000X0.750000X-1.000000X0.750000X-1.000000X-0.750000X0*%
%TD*%
%TA.AperFunction,ComponentPad*%
%ADD26RoundRect,0.875000X0.875000X-0.875000X0.875000X0.875000X-0.875000X0.875000X-0.875000X-0.875000X0*%
%TD*%
%TA.AperFunction,ComponentPad*%
%ADD27RoundRect,0.250000X0.620000X0.845000X-0.620000X0.845000X-0.620000X-0.845000X0.620000X-0.845000X0*%
%TD*%
%TA.AperFunction,ComponentPad*%
%ADD28O,1.740000X2.190000*%
%TD*%
%TA.AperFunction,ComponentPad*%
%ADD29RoundRect,0.250000X-0.550000X-0.550000X0.550000X-0.550000X0.550000X0.550000X-0.550000X0.550000X0*%
%TD*%
%TA.AperFunction,ComponentPad*%
%ADD30RoundRect,0.250000X0.550000X-0.550000X0.550000X0.550000X-0.550000X0.550000X-0.550000X-0.550000X0*%
%TD*%
%TA.AperFunction,ViaPad*%
%ADD31C,0.600000*%
%TD*%
%TA.AperFunction,Conductor*%
%ADD32C,0.250000*%
%TD*%
%TA.AperFunction,Conductor*%
%ADD33C,1.000000*%
%TD*%
G04 APERTURE END LIST*
D10*
%TO.P,C4,1*%
%TO.N,+5V*%
X136750000Y-57000000D03*
%TO.P,C4,2*%
%TO.N,GND*%
X131750000Y-57000000D03*
%TD*%
D11*
%TO.P,C6,1*%
%TO.N,+12V*%
X168000000Y-53250000D03*
D10*
%TO.P,C6,2*%
%TO.N,GND*%
X168000000Y-55250000D03*
%TD*%
D12*
%TO.P,U1,1,GPIO0/A0/D0*%
%TO.N,/RFID data*%
X111300000Y-70575000D03*
D13*
X111300000Y-69740000D03*
D12*
%TO.P,U1,2,GPIO1/A1/D1*%
%TO.N,/GPIO1*%
X113840000Y-70575000D03*
D13*
X113840000Y-69740000D03*
D12*
%TO.P,U1,3,GPIO2/A2/D2*%
%TO.N,/GPIO2*%
X116380000Y-70575000D03*
D13*
X116380000Y-69740000D03*
D12*
%TO.P,U1,4,GPIO21/D3*%
%TO.N,/GPIO21*%
X118920000Y-70575000D03*
D13*
X118920000Y-69740000D03*
D12*
%TO.P,U1,5,GPIO22/D4/SDA*%
%TO.N,/GPIO22*%
X121460000Y-70575000D03*
D13*
X121460000Y-69740000D03*
D12*
%TO.P,U1,6,GPIO23/D5/SCL*%
%TO.N,unconnected-(U1-GPIO23{slash}D5{slash}SCL-Pad6)_1*%
X124000000Y-70575000D03*
D13*
%TO.N,unconnected-(U1-GPIO23{slash}D5{slash}SCL-Pad6)*%
X124000000Y-69740000D03*
D12*
%TO.P,U1,7,GPIO16/D6/TX*%
%TO.N,unconnected-(U1-GPIO16{slash}D6{slash}TX-Pad7)*%
X126540000Y-70575000D03*
D13*
%TO.N,unconnected-(U1-GPIO16{slash}D6{slash}TX-Pad7)_1*%
X126540000Y-69740000D03*
%TO.P,U1,8,GPIO17/D7/RX*%
%TO.N,unconnected-(U1-GPIO17{slash}D7{slash}RX-Pad8)*%
X126540000Y-54500000D03*
D14*
%TO.N,unconnected-(U1-GPIO17{slash}D7{slash}RX-Pad8)_1*%
X126540000Y-53665000D03*
D13*
%TO.P,U1,9,GPIO19/D8/SCK*%
%TO.N,unconnected-(U1-GPIO19{slash}D8{slash}SCK-Pad9)*%
X124000000Y-54500000D03*
D14*
%TO.N,unconnected-(U1-GPIO19{slash}D8{slash}SCK-Pad9)_1*%
X124000000Y-53665000D03*
D13*
%TO.P,U1,10,GPIO20/D9/MISO*%
%TO.N,unconnected-(U1-GPIO20{slash}D9{slash}MISO-Pad10)_1*%
X121460000Y-54500000D03*
D14*
%TO.N,unconnected-(U1-GPIO20{slash}D9{slash}MISO-Pad10)*%
X121460000Y-53665000D03*
D13*
%TO.P,U1,11,GPIO18/D10/MOSI*%
%TO.N,unconnected-(U1-GPIO18{slash}D10{slash}MOSI-Pad11)_1*%
X118920000Y-54500000D03*
D14*
%TO.N,unconnected-(U1-GPIO18{slash}D10{slash}MOSI-Pad11)*%
X118920000Y-53665000D03*
D13*
%TO.P,U1,12,3V3*%
%TO.N,unconnected-(U1-3V3-Pad12)*%
X116380000Y-54500000D03*
D14*
%TO.N,unconnected-(U1-3V3-Pad12)_1*%
X116380000Y-53665000D03*
D13*
%TO.P,U1,13,GND*%
%TO.N,GND*%
X113840000Y-54500000D03*
D14*
X113840000Y-53665000D03*
D13*
%TO.P,U1,14,VBUS*%
%TO.N,+5V*%
X111300000Y-54500000D03*
D14*
X111300000Y-53665000D03*
%TD*%
D15*
%TO.P,L1,1,1*%
%TO.N,+12V*%
X177250000Y-55750000D03*
%TO.P,L1,2,2*%
%TO.N,Net-(U4-IN)*%
X182250000Y-55750000D03*
%TD*%
D10*
%TO.P,C5,1*%
%TO.N,+12V*%
X162500000Y-64500000D03*
%TO.P,C5,2*%
%TO.N,GND*%
X162500000Y-59500000D03*
%TD*%
%TO.P,C2,1*%
%TO.N,GND*%
X195500000Y-56000000D03*
%TO.P,C2,2*%
%TO.N,+9V*%
X195500000Y-61000000D03*
%TD*%
D16*
%TO.P,U2,1,IN+*%
%TO.N,+12V*%
X64840000Y-68072000D03*
X64840000Y-70612000D03*
D17*
%TO.P,U2,2,IN-*%
%TO.N,GND*%
X64814600Y-59817000D03*
X64840000Y-57277000D03*
D16*
%TO.P,U2,3,OUT+*%
%TO.N,+5V*%
X83636000Y-68199000D03*
X83636000Y-70739000D03*
D17*
%TO.P,U2,4,OUT-*%
%TO.N,GND*%
X83737600Y-59817000D03*
X83763000Y-57277000D03*
%TD*%
D18*
%TO.P,J3,1,Pin_1*%
%TO.N,Net-(J3-Pin_1)*%
X192520000Y-84525000D03*
D19*
%TO.P,J3,2,Pin_2*%
%TO.N,Net-(J3-Pin_2)*%
X192520000Y-81985000D03*
%TD*%
D10*
%TO.P,C8,1*%
%TO.N,Net-(U4-IN)*%
X181000000Y-68000000D03*
%TO.P,C8,2*%
%TO.N,GND*%
X176000000Y-68000000D03*
%TD*%
D20*
%TO.P,RFID1,1,ANT1*%
%TO.N,Net-(J3-Pin_2)*%
X231530000Y-81960000D03*
%TO.P,RFID1,2,ANT2*%
%TO.N,Net-(J3-Pin_1)*%
X231530000Y-84500000D03*
%TO.P,RFID1,3,GND*%
%TO.N,GND*%
X199380000Y-68620000D03*
X207000000Y-61000000D03*
%TO.P,RFID1,4,5vTX*%
%TO.N,unconnected-(RFID1-5vTX-Pad4)*%
X199380000Y-66080000D03*
%TO.P,RFID1,5,RST*%
%TO.N,unconnected-(RFID1-RST-Pad5)*%
X199380000Y-63540000D03*
%TO.P,RFID1,6,+5-9V*%
%TO.N,+9V*%
X199380000Y-61000000D03*
%TO.P,RFID1,7,5V+10R*%
%TO.N,unconnected-(RFID1-5V+10R-Pad7)*%
X201920000Y-61000000D03*
%TO.P,RFID1,8,3.3vTX*%
%TO.N,/RFID data*%
X204460000Y-61000000D03*
%TD*%
D21*
%TO.P,U4,1,IN*%
%TO.N,Net-(U4-IN)*%
X185460000Y-67200000D03*
D22*
%TO.P,U4,2,GND*%
%TO.N,GND*%
X188000000Y-67200000D03*
%TO.P,U4,3,OUT*%
%TO.N,+9V*%
X190540000Y-67200000D03*
%TD*%
D10*
%TO.P,R2,1*%
%TO.N,Net-(U3-EN1\u002C2)*%
X158160000Y-53750000D03*
%TO.P,R2,2*%
%TO.N,+5V*%
X148000000Y-53750000D03*
%TD*%
D23*
%TO.P,C9,1*%
%TO.N,Net-(U4-IN)*%
X180205113Y-63250000D03*
D10*
%TO.P,C9,2*%
%TO.N,GND*%
X178205113Y-63250000D03*
%TD*%
%TO.P,C3,1*%
%TO.N,GND*%
X195500000Y-68750000D03*
%TO.P,C3,2*%
%TO.N,+9V*%
X195500000Y-63750000D03*
%TD*%
D24*
%TO.P,J1,1*%
%TO.N,+12V*%
X46500000Y-57500000D03*
D25*
%TO.P,J1,2*%
%TO.N,GND*%
X46500000Y-63500000D03*
D26*
%TO.P,J1,3*%
%TO.N,N/C*%
X51200000Y-60500000D03*
%TD*%
D27*
%TO.P,J2,1,Pin_1*%
%TO.N,unconnected-(J2-Pin_1-Pad1)*%
X146000000Y-69000000D03*
D28*
%TO.P,J2,2,Pin_2*%
%TO.N,Net-(J2-Pin_2)*%
X143460000Y-69000000D03*
%TO.P,J2,3,Pin_3*%
%TO.N,Net-(J2-Pin_3)*%
X140920000Y-69000000D03*
%TO.P,J2,4,Pin_4*%
%TO.N,Net-(J2-Pin_4)*%
X138380000Y-69000000D03*
%TO.P,J2,5,Pin_5*%
%TO.N,Net-(J2-Pin_5)*%
X135840000Y-69000000D03*
%TO.P,J2,6,Pin_6*%
%TO.N,unconnected-(J2-Pin_6-Pad6)*%
X133300000Y-69000000D03*
%TD*%
D29*
%TO.P,C1,1*%
%TO.N,+12V*%
X57544888Y-60500000D03*
D10*
%TO.P,C1,2*%
%TO.N,GND*%
X59544888Y-60500000D03*
%TD*%
%TO.P,C7,1*%
%TO.N,+12V*%
X172750000Y-53250000D03*
%TO.P,C7,2*%
%TO.N,GND*%
X172750000Y-58250000D03*
%TD*%
D30*
%TO.P,U3,1,EN1\u002C2*%
%TO.N,Net-(U3-EN1\u002C2)*%
X140380000Y-64500000D03*
D10*
%TO.P,U3,2,1A*%
%TO.N,/GPIO22*%
X142920000Y-64500000D03*
%TO.P,U3,3,1Y*%
%TO.N,Net-(J2-Pin_3)*%
X145460000Y-64500000D03*
%TO.P,U3,4,GND*%
%TO.N,GND*%
X148000000Y-64500000D03*
%TO.P,U3,5,GND*%
X150540000Y-64500000D03*
%TO.P,U3,6,2Y*%
%TO.N,Net-(J2-Pin_2)*%
X153080000Y-64500000D03*
%TO.P,U3,7,2A*%
%TO.N,/GPIO21*%
X155620000Y-64500000D03*
%TO.P,U3,8,VCC2*%
%TO.N,+12V*%
X158160000Y-64500000D03*
%TO.P,U3,9,EN3\u002C4*%
%TO.N,Net-(U3-EN1\u002C2)*%
X158160000Y-56880000D03*
%TO.P,U3,10,3A*%
%TO.N,/GPIO2*%
X155620000Y-56880000D03*
%TO.P,U3,11,3Y*%
%TO.N,Net-(J2-Pin_4)*%
X153080000Y-56880000D03*
%TO.P,U3,12,GND*%
%TO.N,GND*%
X150540000Y-56880000D03*
%TO.P,U3,13,GND*%
X148000000Y-56880000D03*
%TO.P,U3,14,4Y*%
%TO.N,Net-(J2-Pin_5)*%
X145460000Y-56880000D03*
%TO.P,U3,15,4A*%
%TO.N,/GPIO1*%
X142920000Y-56880000D03*
%TO.P,U3,16,VCC1*%
%TO.N,+5V*%
X140380000Y-56880000D03*
%TD*%
D31*
%TO.N,GND*%
X182000000Y-71500000D03*
X162000000Y-61500000D03*
X72000000Y-51500000D03*
X92000000Y-63250000D03*
X42000000Y-71500000D03*
X62000000Y-71500000D03*
X149250000Y-63750000D03*
X52000000Y-51500000D03*
X149250000Y-65000000D03*
X62000000Y-51500000D03*
X192000000Y-71500000D03*
X172000000Y-61500000D03*
X148750000Y-65750000D03*
X222000000Y-61500000D03*
X72000000Y-71500000D03*
X147750000Y-58250000D03*
X152000000Y-71500000D03*
X149250000Y-56250000D03*
X212000000Y-71500000D03*
X62000000Y-61500000D03*
X149250000Y-57750000D03*
X147000000Y-57750000D03*
X147000000Y-63750000D03*
X82000000Y-71500000D03*
X52000000Y-71500000D03*
X132000000Y-71500000D03*
X232000000Y-51500000D03*
X42000000Y-51500000D03*
X212000000Y-51500000D03*
X148500000Y-63250000D03*
X102000000Y-61500000D03*
X232000000Y-71500000D03*
X92000000Y-54250000D03*
X149750000Y-55750000D03*
X222000000Y-71500000D03*
X150000000Y-58250000D03*
X149750000Y-65750000D03*
X138500000Y-53750000D03*
X142000000Y-71500000D03*
X202000000Y-71500000D03*
X172000000Y-71500000D03*
X232000000Y-61500000D03*
X112000000Y-61500000D03*
X212000000Y-61500000D03*
X151000000Y-58250000D03*
X151000000Y-63250000D03*
X192000000Y-61500000D03*
X102000000Y-71500000D03*
X162000000Y-71500000D03*
X92000000Y-71500000D03*
X148500000Y-58250000D03*
X202000000Y-51500000D03*
X82000000Y-61500000D03*
X182000000Y-61500000D03*
X150000000Y-63250000D03*
X42000000Y-61500000D03*
X222000000Y-51500000D03*
X151750000Y-63750000D03*
X147500000Y-63250000D03*
X151750000Y-57750000D03*
X133250000Y-64500000D03*
X148750000Y-55650000D03*
%TD*%
D32*
%TO.N,/RFID data*%
X133000000Y-51250000D02*
X127000000Y-57250000D01*
X127000000Y-57250000D02*
X124050000Y-57250000D01*
X204460000Y-61000000D02*
X194710000Y-51250000D01*
X194710000Y-51250000D02*
X133000000Y-51250000D01*
X124050000Y-57250000D02*
X111300000Y-70000000D01*
%TO.N,/GPIO2*%
X116380000Y-70000000D02*
X126130000Y-60250000D01*
X152250000Y-60250000D02*
X155620000Y-56880000D01*
X126130000Y-60250000D02*
X152250000Y-60250000D01*
D33*
%TO.N,Net-(J3-Pin_1)*%
X192520000Y-84525000D02*
X231505000Y-84525000D01*
X231505000Y-84525000D02*
X231530000Y-84500000D01*
%TO.N,Net-(J3-Pin_2)*%
X192520000Y-81985000D02*
X231505000Y-81985000D01*
X231505000Y-81985000D02*
X231530000Y-81960000D01*
D32*
%TO.N,/GPIO22*%
X140170000Y-61750000D02*
X142920000Y-64500000D01*
X129710000Y-61750000D02*
X140170000Y-61750000D01*
X121460000Y-70000000D02*
X129710000Y-61750000D01*
%TO.N,/GPIO1*%
X142920000Y-56880000D02*
X140300000Y-59500000D01*
X140300000Y-59500000D02*
X124340000Y-59500000D01*
X124340000Y-59500000D02*
X113840000Y-70000000D01*
%TO.N,/GPIO21*%
X127920000Y-61000000D02*
X152120000Y-61000000D01*
X152120000Y-61000000D02*
X155620000Y-64500000D01*
X118920000Y-70000000D02*
X127920000Y-61000000D01*
%TD*%
M02*
