%TF.GenerationSoftware,KiCad,Pcbnew,9.0.7*%
%TF.CreationDate,2026-04-03T17:45:58+02:00*%
%TF.ProjectId,meowpass_0.2,6d656f77-7061-4737-935f-302e322e6b69,rev?*%
%TF.SameCoordinates,Original*%
%TF.FileFunction,Legend,Top*%
%TF.FilePolarity,Positive*%
%FSLAX46Y46*%
G04 Gerber Fmt 4.6, Leading zero omitted, Abs format (unit mm)*
G04 Created by KiCad (PCBNEW 9.0.7) date 2026-04-03 17:45:58*
%MOMM*%
%LPD*%
G01*
G04 APERTURE LIST*
%ADD10C,0.100000*%
%ADD11C,0.150000*%
%ADD12C,0.300000*%
%ADD13C,0.200000*%
%ADD14C,0.120000*%
%ADD15C,0.127000*%
%ADD16C,0.504000*%
G04 APERTURE END LIST*
D10*
X71303884Y-64372419D02*
X71303884Y-63372419D01*
X71303884Y-63372419D02*
X71637217Y-64086704D01*
X71637217Y-64086704D02*
X71970550Y-63372419D01*
X71970550Y-63372419D02*
X71970550Y-64372419D01*
X72446741Y-64372419D02*
X72446741Y-63372419D01*
X72446741Y-63372419D02*
X72827693Y-63372419D01*
X72827693Y-63372419D02*
X72922931Y-63420038D01*
X72922931Y-63420038D02*
X72970550Y-63467657D01*
X72970550Y-63467657D02*
X73018169Y-63562895D01*
X73018169Y-63562895D02*
X73018169Y-63705752D01*
X73018169Y-63705752D02*
X72970550Y-63800990D01*
X72970550Y-63800990D02*
X72922931Y-63848609D01*
X72922931Y-63848609D02*
X72827693Y-63896228D01*
X72827693Y-63896228D02*
X72446741Y-63896228D01*
X73970550Y-64372419D02*
X73399122Y-64372419D01*
X73684836Y-64372419D02*
X73684836Y-63372419D01*
X73684836Y-63372419D02*
X73589598Y-63515276D01*
X73589598Y-63515276D02*
X73494360Y-63610514D01*
X73494360Y-63610514D02*
X73399122Y-63658133D01*
X74875312Y-63372419D02*
X74399122Y-63372419D01*
X74399122Y-63372419D02*
X74351503Y-63848609D01*
X74351503Y-63848609D02*
X74399122Y-63800990D01*
X74399122Y-63800990D02*
X74494360Y-63753371D01*
X74494360Y-63753371D02*
X74732455Y-63753371D01*
X74732455Y-63753371D02*
X74827693Y-63800990D01*
X74827693Y-63800990D02*
X74875312Y-63848609D01*
X74875312Y-63848609D02*
X74922931Y-63943847D01*
X74922931Y-63943847D02*
X74922931Y-64181942D01*
X74922931Y-64181942D02*
X74875312Y-64277180D01*
X74875312Y-64277180D02*
X74827693Y-64324800D01*
X74827693Y-64324800D02*
X74732455Y-64372419D01*
X74732455Y-64372419D02*
X74494360Y-64372419D01*
X74494360Y-64372419D02*
X74399122Y-64324800D01*
X74399122Y-64324800D02*
X74351503Y-64277180D01*
X75494360Y-63800990D02*
X75399122Y-63753371D01*
X75399122Y-63753371D02*
X75351503Y-63705752D01*
X75351503Y-63705752D02*
X75303884Y-63610514D01*
X75303884Y-63610514D02*
X75303884Y-63562895D01*
X75303884Y-63562895D02*
X75351503Y-63467657D01*
X75351503Y-63467657D02*
X75399122Y-63420038D01*
X75399122Y-63420038D02*
X75494360Y-63372419D01*
X75494360Y-63372419D02*
X75684836Y-63372419D01*
X75684836Y-63372419D02*
X75780074Y-63420038D01*
X75780074Y-63420038D02*
X75827693Y-63467657D01*
X75827693Y-63467657D02*
X75875312Y-63562895D01*
X75875312Y-63562895D02*
X75875312Y-63610514D01*
X75875312Y-63610514D02*
X75827693Y-63705752D01*
X75827693Y-63705752D02*
X75780074Y-63753371D01*
X75780074Y-63753371D02*
X75684836Y-63800990D01*
X75684836Y-63800990D02*
X75494360Y-63800990D01*
X75494360Y-63800990D02*
X75399122Y-63848609D01*
X75399122Y-63848609D02*
X75351503Y-63896228D01*
X75351503Y-63896228D02*
X75303884Y-63991466D01*
X75303884Y-63991466D02*
X75303884Y-64181942D01*
X75303884Y-64181942D02*
X75351503Y-64277180D01*
X75351503Y-64277180D02*
X75399122Y-64324800D01*
X75399122Y-64324800D02*
X75494360Y-64372419D01*
X75494360Y-64372419D02*
X75684836Y-64372419D01*
X75684836Y-64372419D02*
X75780074Y-64324800D01*
X75780074Y-64324800D02*
X75827693Y-64277180D01*
X75827693Y-64277180D02*
X75875312Y-64181942D01*
X75875312Y-64181942D02*
X75875312Y-63991466D01*
X75875312Y-63991466D02*
X75827693Y-63896228D01*
X75827693Y-63896228D02*
X75780074Y-63848609D01*
X75780074Y-63848609D02*
X75684836Y-63800990D01*
X76732455Y-63705752D02*
X76732455Y-64372419D01*
X76494360Y-63324800D02*
X76256265Y-64039085D01*
X76256265Y-64039085D02*
X76875312Y-64039085D01*
X77256265Y-63848609D02*
X77589598Y-63848609D01*
X77732455Y-64372419D02*
X77256265Y-64372419D01*
X77256265Y-64372419D02*
X77256265Y-63372419D01*
X77256265Y-63372419D02*
X77732455Y-63372419D01*
X78161027Y-64372419D02*
X78161027Y-63372419D01*
X78161027Y-63372419D02*
X78732455Y-64372419D01*
X78732455Y-64372419D02*
X78732455Y-63372419D01*
X147280074Y-61122419D02*
X146803884Y-61122419D01*
X146803884Y-61122419D02*
X146803884Y-60122419D01*
X147565789Y-60217657D02*
X147613408Y-60170038D01*
X147613408Y-60170038D02*
X147708646Y-60122419D01*
X147708646Y-60122419D02*
X147946741Y-60122419D01*
X147946741Y-60122419D02*
X148041979Y-60170038D01*
X148041979Y-60170038D02*
X148089598Y-60217657D01*
X148089598Y-60217657D02*
X148137217Y-60312895D01*
X148137217Y-60312895D02*
X148137217Y-60408133D01*
X148137217Y-60408133D02*
X148089598Y-60550990D01*
X148089598Y-60550990D02*
X147518170Y-61122419D01*
X147518170Y-61122419D02*
X148137217Y-61122419D01*
X148613408Y-61122419D02*
X148803884Y-61122419D01*
X148803884Y-61122419D02*
X148899122Y-61074800D01*
X148899122Y-61074800D02*
X148946741Y-61027180D01*
X148946741Y-61027180D02*
X149041979Y-60884323D01*
X149041979Y-60884323D02*
X149089598Y-60693847D01*
X149089598Y-60693847D02*
X149089598Y-60312895D01*
X149089598Y-60312895D02*
X149041979Y-60217657D01*
X149041979Y-60217657D02*
X148994360Y-60170038D01*
X148994360Y-60170038D02*
X148899122Y-60122419D01*
X148899122Y-60122419D02*
X148708646Y-60122419D01*
X148708646Y-60122419D02*
X148613408Y-60170038D01*
X148613408Y-60170038D02*
X148565789Y-60217657D01*
X148565789Y-60217657D02*
X148518170Y-60312895D01*
X148518170Y-60312895D02*
X148518170Y-60550990D01*
X148518170Y-60550990D02*
X148565789Y-60646228D01*
X148565789Y-60646228D02*
X148613408Y-60693847D01*
X148613408Y-60693847D02*
X148708646Y-60741466D01*
X148708646Y-60741466D02*
X148899122Y-60741466D01*
X148899122Y-60741466D02*
X148994360Y-60693847D01*
X148994360Y-60693847D02*
X149041979Y-60646228D01*
X149041979Y-60646228D02*
X149089598Y-60550990D01*
X149422932Y-60122419D02*
X150041979Y-60122419D01*
X150041979Y-60122419D02*
X149708646Y-60503371D01*
X149708646Y-60503371D02*
X149851503Y-60503371D01*
X149851503Y-60503371D02*
X149946741Y-60550990D01*
X149946741Y-60550990D02*
X149994360Y-60598609D01*
X149994360Y-60598609D02*
X150041979Y-60693847D01*
X150041979Y-60693847D02*
X150041979Y-60931942D01*
X150041979Y-60931942D02*
X149994360Y-61027180D01*
X149994360Y-61027180D02*
X149946741Y-61074800D01*
X149946741Y-61074800D02*
X149851503Y-61122419D01*
X149851503Y-61122419D02*
X149565789Y-61122419D01*
X149565789Y-61122419D02*
X149470551Y-61074800D01*
X149470551Y-61074800D02*
X149422932Y-61027180D01*
X150470551Y-61122419D02*
X150470551Y-60122419D01*
X150470551Y-60122419D02*
X150708646Y-60122419D01*
X150708646Y-60122419D02*
X150851503Y-60170038D01*
X150851503Y-60170038D02*
X150946741Y-60265276D01*
X150946741Y-60265276D02*
X150994360Y-60360514D01*
X150994360Y-60360514D02*
X151041979Y-60550990D01*
X151041979Y-60550990D02*
X151041979Y-60693847D01*
X151041979Y-60693847D02*
X150994360Y-60884323D01*
X150994360Y-60884323D02*
X150946741Y-60979561D01*
X150946741Y-60979561D02*
X150851503Y-61074800D01*
X150851503Y-61074800D02*
X150708646Y-61122419D01*
X150708646Y-61122419D02*
X150470551Y-61122419D01*
X151470551Y-61122419D02*
X151470551Y-60122419D01*
X151470551Y-60122419D02*
X152041979Y-61122419D01*
X152041979Y-61122419D02*
X152041979Y-60122419D01*
X152518170Y-60598609D02*
X152851503Y-60598609D01*
X152994360Y-61122419D02*
X152518170Y-61122419D01*
X152518170Y-61122419D02*
X152518170Y-60122419D01*
X152518170Y-60122419D02*
X152994360Y-60122419D01*
D11*
X115517731Y-65094295D02*
X115517731Y-65665723D01*
X115517731Y-65665723D02*
X115479636Y-65780009D01*
X115479636Y-65780009D02*
X115403445Y-65856200D01*
X115403445Y-65856200D02*
X115289160Y-65894295D01*
X115289160Y-65894295D02*
X115212969Y-65894295D01*
X116279636Y-65894295D02*
X115898684Y-65894295D01*
X115898684Y-65894295D02*
X115898684Y-65094295D01*
X117003446Y-65818104D02*
X116965350Y-65856200D01*
X116965350Y-65856200D02*
X116851065Y-65894295D01*
X116851065Y-65894295D02*
X116774874Y-65894295D01*
X116774874Y-65894295D02*
X116660588Y-65856200D01*
X116660588Y-65856200D02*
X116584398Y-65780009D01*
X116584398Y-65780009D02*
X116546303Y-65703819D01*
X116546303Y-65703819D02*
X116508207Y-65551438D01*
X116508207Y-65551438D02*
X116508207Y-65437152D01*
X116508207Y-65437152D02*
X116546303Y-65284771D01*
X116546303Y-65284771D02*
X116584398Y-65208580D01*
X116584398Y-65208580D02*
X116660588Y-65132390D01*
X116660588Y-65132390D02*
X116774874Y-65094295D01*
X116774874Y-65094295D02*
X116851065Y-65094295D01*
X116851065Y-65094295D02*
X116965350Y-65132390D01*
X116965350Y-65132390D02*
X117003446Y-65170485D01*
X117574874Y-65094295D02*
X117574874Y-65665723D01*
X117574874Y-65665723D02*
X117536779Y-65780009D01*
X117536779Y-65780009D02*
X117460588Y-65856200D01*
X117460588Y-65856200D02*
X117346303Y-65894295D01*
X117346303Y-65894295D02*
X117270112Y-65894295D01*
X118336779Y-65894295D02*
X117955827Y-65894295D01*
X117955827Y-65894295D02*
X117955827Y-65094295D01*
X119060589Y-65818104D02*
X119022493Y-65856200D01*
X119022493Y-65856200D02*
X118908208Y-65894295D01*
X118908208Y-65894295D02*
X118832017Y-65894295D01*
X118832017Y-65894295D02*
X118717731Y-65856200D01*
X118717731Y-65856200D02*
X118641541Y-65780009D01*
X118641541Y-65780009D02*
X118603446Y-65703819D01*
X118603446Y-65703819D02*
X118565350Y-65551438D01*
X118565350Y-65551438D02*
X118565350Y-65437152D01*
X118565350Y-65437152D02*
X118603446Y-65284771D01*
X118603446Y-65284771D02*
X118641541Y-65208580D01*
X118641541Y-65208580D02*
X118717731Y-65132390D01*
X118717731Y-65132390D02*
X118832017Y-65094295D01*
X118832017Y-65094295D02*
X118908208Y-65094295D01*
X118908208Y-65094295D02*
X119022493Y-65132390D01*
X119022493Y-65132390D02*
X119060589Y-65170485D01*
X119632017Y-65094295D02*
X119632017Y-65665723D01*
X119632017Y-65665723D02*
X119593922Y-65780009D01*
X119593922Y-65780009D02*
X119517731Y-65856200D01*
X119517731Y-65856200D02*
X119403446Y-65894295D01*
X119403446Y-65894295D02*
X119327255Y-65894295D01*
X120393922Y-65894295D02*
X120012970Y-65894295D01*
X120012970Y-65894295D02*
X120012970Y-65094295D01*
X121117732Y-65818104D02*
X121079636Y-65856200D01*
X121079636Y-65856200D02*
X120965351Y-65894295D01*
X120965351Y-65894295D02*
X120889160Y-65894295D01*
X120889160Y-65894295D02*
X120774874Y-65856200D01*
X120774874Y-65856200D02*
X120698684Y-65780009D01*
X120698684Y-65780009D02*
X120660589Y-65703819D01*
X120660589Y-65703819D02*
X120622493Y-65551438D01*
X120622493Y-65551438D02*
X120622493Y-65437152D01*
X120622493Y-65437152D02*
X120660589Y-65284771D01*
X120660589Y-65284771D02*
X120698684Y-65208580D01*
X120698684Y-65208580D02*
X120774874Y-65132390D01*
X120774874Y-65132390D02*
X120889160Y-65094295D01*
X120889160Y-65094295D02*
X120965351Y-65094295D01*
X120965351Y-65094295D02*
X121079636Y-65132390D01*
X121079636Y-65132390D02*
X121117732Y-65170485D01*
X121689160Y-65094295D02*
X121689160Y-65665723D01*
X121689160Y-65665723D02*
X121651065Y-65780009D01*
X121651065Y-65780009D02*
X121574874Y-65856200D01*
X121574874Y-65856200D02*
X121460589Y-65894295D01*
X121460589Y-65894295D02*
X121384398Y-65894295D01*
X122451065Y-65894295D02*
X122070113Y-65894295D01*
X122070113Y-65894295D02*
X122070113Y-65094295D01*
X123174875Y-65818104D02*
X123136779Y-65856200D01*
X123136779Y-65856200D02*
X123022494Y-65894295D01*
X123022494Y-65894295D02*
X122946303Y-65894295D01*
X122946303Y-65894295D02*
X122832017Y-65856200D01*
X122832017Y-65856200D02*
X122755827Y-65780009D01*
X122755827Y-65780009D02*
X122717732Y-65703819D01*
X122717732Y-65703819D02*
X122679636Y-65551438D01*
X122679636Y-65551438D02*
X122679636Y-65437152D01*
X122679636Y-65437152D02*
X122717732Y-65284771D01*
X122717732Y-65284771D02*
X122755827Y-65208580D01*
X122755827Y-65208580D02*
X122832017Y-65132390D01*
X122832017Y-65132390D02*
X122946303Y-65094295D01*
X122946303Y-65094295D02*
X123022494Y-65094295D01*
X123022494Y-65094295D02*
X123136779Y-65132390D01*
X123136779Y-65132390D02*
X123174875Y-65170485D01*
D10*
X113708646Y-60872419D02*
X114375312Y-61872419D01*
X114375312Y-60872419D02*
X113708646Y-61872419D01*
X114756265Y-61872419D02*
X114756265Y-60872419D01*
X115184836Y-61586704D02*
X115661026Y-61586704D01*
X115089598Y-61872419D02*
X115422931Y-60872419D01*
X115422931Y-60872419D02*
X115756264Y-61872419D01*
X116280074Y-60872419D02*
X116470550Y-60872419D01*
X116470550Y-60872419D02*
X116565788Y-60920038D01*
X116565788Y-60920038D02*
X116661026Y-61015276D01*
X116661026Y-61015276D02*
X116708645Y-61205752D01*
X116708645Y-61205752D02*
X116708645Y-61539085D01*
X116708645Y-61539085D02*
X116661026Y-61729561D01*
X116661026Y-61729561D02*
X116565788Y-61824800D01*
X116565788Y-61824800D02*
X116470550Y-61872419D01*
X116470550Y-61872419D02*
X116280074Y-61872419D01*
X116280074Y-61872419D02*
X116184836Y-61824800D01*
X116184836Y-61824800D02*
X116089598Y-61729561D01*
X116089598Y-61729561D02*
X116041979Y-61539085D01*
X116041979Y-61539085D02*
X116041979Y-61205752D01*
X116041979Y-61205752D02*
X116089598Y-61015276D01*
X116089598Y-61015276D02*
X116184836Y-60920038D01*
X116184836Y-60920038D02*
X116280074Y-60872419D01*
X117899122Y-61348609D02*
X118232455Y-61348609D01*
X118375312Y-61872419D02*
X117899122Y-61872419D01*
X117899122Y-61872419D02*
X117899122Y-60872419D01*
X117899122Y-60872419D02*
X118375312Y-60872419D01*
X118756265Y-61824800D02*
X118899122Y-61872419D01*
X118899122Y-61872419D02*
X119137217Y-61872419D01*
X119137217Y-61872419D02*
X119232455Y-61824800D01*
X119232455Y-61824800D02*
X119280074Y-61777180D01*
X119280074Y-61777180D02*
X119327693Y-61681942D01*
X119327693Y-61681942D02*
X119327693Y-61586704D01*
X119327693Y-61586704D02*
X119280074Y-61491466D01*
X119280074Y-61491466D02*
X119232455Y-61443847D01*
X119232455Y-61443847D02*
X119137217Y-61396228D01*
X119137217Y-61396228D02*
X118946741Y-61348609D01*
X118946741Y-61348609D02*
X118851503Y-61300990D01*
X118851503Y-61300990D02*
X118803884Y-61253371D01*
X118803884Y-61253371D02*
X118756265Y-61158133D01*
X118756265Y-61158133D02*
X118756265Y-61062895D01*
X118756265Y-61062895D02*
X118803884Y-60967657D01*
X118803884Y-60967657D02*
X118851503Y-60920038D01*
X118851503Y-60920038D02*
X118946741Y-60872419D01*
X118946741Y-60872419D02*
X119184836Y-60872419D01*
X119184836Y-60872419D02*
X119327693Y-60920038D01*
X119756265Y-61872419D02*
X119756265Y-60872419D01*
X119756265Y-60872419D02*
X120137217Y-60872419D01*
X120137217Y-60872419D02*
X120232455Y-60920038D01*
X120232455Y-60920038D02*
X120280074Y-60967657D01*
X120280074Y-60967657D02*
X120327693Y-61062895D01*
X120327693Y-61062895D02*
X120327693Y-61205752D01*
X120327693Y-61205752D02*
X120280074Y-61300990D01*
X120280074Y-61300990D02*
X120232455Y-61348609D01*
X120232455Y-61348609D02*
X120137217Y-61396228D01*
X120137217Y-61396228D02*
X119756265Y-61396228D01*
X120661027Y-60872419D02*
X121280074Y-60872419D01*
X121280074Y-60872419D02*
X120946741Y-61253371D01*
X120946741Y-61253371D02*
X121089598Y-61253371D01*
X121089598Y-61253371D02*
X121184836Y-61300990D01*
X121184836Y-61300990D02*
X121232455Y-61348609D01*
X121232455Y-61348609D02*
X121280074Y-61443847D01*
X121280074Y-61443847D02*
X121280074Y-61681942D01*
X121280074Y-61681942D02*
X121232455Y-61777180D01*
X121232455Y-61777180D02*
X121184836Y-61824800D01*
X121184836Y-61824800D02*
X121089598Y-61872419D01*
X121089598Y-61872419D02*
X120803884Y-61872419D01*
X120803884Y-61872419D02*
X120708646Y-61824800D01*
X120708646Y-61824800D02*
X120661027Y-61777180D01*
X121661027Y-60967657D02*
X121708646Y-60920038D01*
X121708646Y-60920038D02*
X121803884Y-60872419D01*
X121803884Y-60872419D02*
X122041979Y-60872419D01*
X122041979Y-60872419D02*
X122137217Y-60920038D01*
X122137217Y-60920038D02*
X122184836Y-60967657D01*
X122184836Y-60967657D02*
X122232455Y-61062895D01*
X122232455Y-61062895D02*
X122232455Y-61158133D01*
X122232455Y-61158133D02*
X122184836Y-61300990D01*
X122184836Y-61300990D02*
X121613408Y-61872419D01*
X121613408Y-61872419D02*
X122232455Y-61872419D01*
X123232455Y-61777180D02*
X123184836Y-61824800D01*
X123184836Y-61824800D02*
X123041979Y-61872419D01*
X123041979Y-61872419D02*
X122946741Y-61872419D01*
X122946741Y-61872419D02*
X122803884Y-61824800D01*
X122803884Y-61824800D02*
X122708646Y-61729561D01*
X122708646Y-61729561D02*
X122661027Y-61634323D01*
X122661027Y-61634323D02*
X122613408Y-61443847D01*
X122613408Y-61443847D02*
X122613408Y-61300990D01*
X122613408Y-61300990D02*
X122661027Y-61110514D01*
X122661027Y-61110514D02*
X122708646Y-61015276D01*
X122708646Y-61015276D02*
X122803884Y-60920038D01*
X122803884Y-60920038D02*
X122946741Y-60872419D01*
X122946741Y-60872419D02*
X123041979Y-60872419D01*
X123041979Y-60872419D02*
X123184836Y-60920038D01*
X123184836Y-60920038D02*
X123232455Y-60967657D01*
X124089598Y-60872419D02*
X123899122Y-60872419D01*
X123899122Y-60872419D02*
X123803884Y-60920038D01*
X123803884Y-60920038D02*
X123756265Y-60967657D01*
X123756265Y-60967657D02*
X123661027Y-61110514D01*
X123661027Y-61110514D02*
X123613408Y-61300990D01*
X123613408Y-61300990D02*
X123613408Y-61681942D01*
X123613408Y-61681942D02*
X123661027Y-61777180D01*
X123661027Y-61777180D02*
X123708646Y-61824800D01*
X123708646Y-61824800D02*
X123803884Y-61872419D01*
X123803884Y-61872419D02*
X123994360Y-61872419D01*
X123994360Y-61872419D02*
X124089598Y-61824800D01*
X124089598Y-61824800D02*
X124137217Y-61777180D01*
X124137217Y-61777180D02*
X124184836Y-61681942D01*
X124184836Y-61681942D02*
X124184836Y-61443847D01*
X124184836Y-61443847D02*
X124137217Y-61348609D01*
X124137217Y-61348609D02*
X124089598Y-61300990D01*
X124089598Y-61300990D02*
X123994360Y-61253371D01*
X123994360Y-61253371D02*
X123803884Y-61253371D01*
X123803884Y-61253371D02*
X123708646Y-61300990D01*
X123708646Y-61300990D02*
X123661027Y-61348609D01*
X123661027Y-61348609D02*
X123613408Y-61443847D01*
D12*
X91604510Y-56950828D02*
X91604510Y-55450828D01*
X91604510Y-55450828D02*
X92104510Y-56522257D01*
X92104510Y-56522257D02*
X92604510Y-55450828D01*
X92604510Y-55450828D02*
X92604510Y-56950828D01*
X93890225Y-56879400D02*
X93747368Y-56950828D01*
X93747368Y-56950828D02*
X93461654Y-56950828D01*
X93461654Y-56950828D02*
X93318796Y-56879400D01*
X93318796Y-56879400D02*
X93247368Y-56736542D01*
X93247368Y-56736542D02*
X93247368Y-56165114D01*
X93247368Y-56165114D02*
X93318796Y-56022257D01*
X93318796Y-56022257D02*
X93461654Y-55950828D01*
X93461654Y-55950828D02*
X93747368Y-55950828D01*
X93747368Y-55950828D02*
X93890225Y-56022257D01*
X93890225Y-56022257D02*
X93961654Y-56165114D01*
X93961654Y-56165114D02*
X93961654Y-56307971D01*
X93961654Y-56307971D02*
X93247368Y-56450828D01*
X94818796Y-56950828D02*
X94675939Y-56879400D01*
X94675939Y-56879400D02*
X94604510Y-56807971D01*
X94604510Y-56807971D02*
X94533082Y-56665114D01*
X94533082Y-56665114D02*
X94533082Y-56236542D01*
X94533082Y-56236542D02*
X94604510Y-56093685D01*
X94604510Y-56093685D02*
X94675939Y-56022257D01*
X94675939Y-56022257D02*
X94818796Y-55950828D01*
X94818796Y-55950828D02*
X95033082Y-55950828D01*
X95033082Y-55950828D02*
X95175939Y-56022257D01*
X95175939Y-56022257D02*
X95247368Y-56093685D01*
X95247368Y-56093685D02*
X95318796Y-56236542D01*
X95318796Y-56236542D02*
X95318796Y-56665114D01*
X95318796Y-56665114D02*
X95247368Y-56807971D01*
X95247368Y-56807971D02*
X95175939Y-56879400D01*
X95175939Y-56879400D02*
X95033082Y-56950828D01*
X95033082Y-56950828D02*
X94818796Y-56950828D01*
X95818796Y-55950828D02*
X96104511Y-56950828D01*
X96104511Y-56950828D02*
X96390225Y-56236542D01*
X96390225Y-56236542D02*
X96675939Y-56950828D01*
X96675939Y-56950828D02*
X96961653Y-55950828D01*
X97533082Y-56950828D02*
X97533082Y-55450828D01*
X97533082Y-55450828D02*
X98104511Y-55450828D01*
X98104511Y-55450828D02*
X98247368Y-55522257D01*
X98247368Y-55522257D02*
X98318797Y-55593685D01*
X98318797Y-55593685D02*
X98390225Y-55736542D01*
X98390225Y-55736542D02*
X98390225Y-55950828D01*
X98390225Y-55950828D02*
X98318797Y-56093685D01*
X98318797Y-56093685D02*
X98247368Y-56165114D01*
X98247368Y-56165114D02*
X98104511Y-56236542D01*
X98104511Y-56236542D02*
X97533082Y-56236542D01*
X99675940Y-56950828D02*
X99675940Y-56165114D01*
X99675940Y-56165114D02*
X99604511Y-56022257D01*
X99604511Y-56022257D02*
X99461654Y-55950828D01*
X99461654Y-55950828D02*
X99175940Y-55950828D01*
X99175940Y-55950828D02*
X99033082Y-56022257D01*
X99675940Y-56879400D02*
X99533082Y-56950828D01*
X99533082Y-56950828D02*
X99175940Y-56950828D01*
X99175940Y-56950828D02*
X99033082Y-56879400D01*
X99033082Y-56879400D02*
X98961654Y-56736542D01*
X98961654Y-56736542D02*
X98961654Y-56593685D01*
X98961654Y-56593685D02*
X99033082Y-56450828D01*
X99033082Y-56450828D02*
X99175940Y-56379400D01*
X99175940Y-56379400D02*
X99533082Y-56379400D01*
X99533082Y-56379400D02*
X99675940Y-56307971D01*
X100318797Y-56879400D02*
X100461654Y-56950828D01*
X100461654Y-56950828D02*
X100747368Y-56950828D01*
X100747368Y-56950828D02*
X100890225Y-56879400D01*
X100890225Y-56879400D02*
X100961654Y-56736542D01*
X100961654Y-56736542D02*
X100961654Y-56665114D01*
X100961654Y-56665114D02*
X100890225Y-56522257D01*
X100890225Y-56522257D02*
X100747368Y-56450828D01*
X100747368Y-56450828D02*
X100533083Y-56450828D01*
X100533083Y-56450828D02*
X100390225Y-56379400D01*
X100390225Y-56379400D02*
X100318797Y-56236542D01*
X100318797Y-56236542D02*
X100318797Y-56165114D01*
X100318797Y-56165114D02*
X100390225Y-56022257D01*
X100390225Y-56022257D02*
X100533083Y-55950828D01*
X100533083Y-55950828D02*
X100747368Y-55950828D01*
X100747368Y-55950828D02*
X100890225Y-56022257D01*
X101533083Y-56879400D02*
X101675940Y-56950828D01*
X101675940Y-56950828D02*
X101961654Y-56950828D01*
X101961654Y-56950828D02*
X102104511Y-56879400D01*
X102104511Y-56879400D02*
X102175940Y-56736542D01*
X102175940Y-56736542D02*
X102175940Y-56665114D01*
X102175940Y-56665114D02*
X102104511Y-56522257D01*
X102104511Y-56522257D02*
X101961654Y-56450828D01*
X101961654Y-56450828D02*
X101747369Y-56450828D01*
X101747369Y-56450828D02*
X101604511Y-56379400D01*
X101604511Y-56379400D02*
X101533083Y-56236542D01*
X101533083Y-56236542D02*
X101533083Y-56165114D01*
X101533083Y-56165114D02*
X101604511Y-56022257D01*
X101604511Y-56022257D02*
X101747369Y-55950828D01*
X101747369Y-55950828D02*
X101961654Y-55950828D01*
X101961654Y-55950828D02*
X102104511Y-56022257D01*
D10*
X213208646Y-69872419D02*
X213446741Y-70872419D01*
X213446741Y-70872419D02*
X213637217Y-70158133D01*
X213637217Y-70158133D02*
X213827693Y-70872419D01*
X213827693Y-70872419D02*
X214065789Y-69872419D01*
X214922931Y-70872419D02*
X214446741Y-70872419D01*
X214446741Y-70872419D02*
X214446741Y-69872419D01*
X215256265Y-70491466D02*
X216018170Y-70491466D01*
X217018169Y-70872419D02*
X216446741Y-70872419D01*
X216732455Y-70872419D02*
X216732455Y-69872419D01*
X216732455Y-69872419D02*
X216637217Y-70015276D01*
X216637217Y-70015276D02*
X216541979Y-70110514D01*
X216541979Y-70110514D02*
X216446741Y-70158133D01*
X217351503Y-69872419D02*
X217970550Y-69872419D01*
X217970550Y-69872419D02*
X217637217Y-70253371D01*
X217637217Y-70253371D02*
X217780074Y-70253371D01*
X217780074Y-70253371D02*
X217875312Y-70300990D01*
X217875312Y-70300990D02*
X217922931Y-70348609D01*
X217922931Y-70348609D02*
X217970550Y-70443847D01*
X217970550Y-70443847D02*
X217970550Y-70681942D01*
X217970550Y-70681942D02*
X217922931Y-70777180D01*
X217922931Y-70777180D02*
X217875312Y-70824800D01*
X217875312Y-70824800D02*
X217780074Y-70872419D01*
X217780074Y-70872419D02*
X217494360Y-70872419D01*
X217494360Y-70872419D02*
X217399122Y-70824800D01*
X217399122Y-70824800D02*
X217351503Y-70777180D01*
X218827693Y-70205752D02*
X218827693Y-70872419D01*
X218589598Y-69824800D02*
X218351503Y-70539085D01*
X218351503Y-70539085D02*
X218970550Y-70539085D01*
D13*
X90273809Y-59117219D02*
X89702381Y-59117219D01*
X89988095Y-59117219D02*
X89988095Y-58117219D01*
X89988095Y-58117219D02*
X89892857Y-58260076D01*
X89892857Y-58260076D02*
X89797619Y-58355314D01*
X89797619Y-58355314D02*
X89702381Y-58402933D01*
X91178571Y-58117219D02*
X90702381Y-58117219D01*
X90702381Y-58117219D02*
X90654762Y-58593409D01*
X90654762Y-58593409D02*
X90702381Y-58545790D01*
X90702381Y-58545790D02*
X90797619Y-58498171D01*
X90797619Y-58498171D02*
X91035714Y-58498171D01*
X91035714Y-58498171D02*
X91130952Y-58545790D01*
X91130952Y-58545790D02*
X91178571Y-58593409D01*
X91178571Y-58593409D02*
X91226190Y-58688647D01*
X91226190Y-58688647D02*
X91226190Y-58926742D01*
X91226190Y-58926742D02*
X91178571Y-59021980D01*
X91178571Y-59021980D02*
X91130952Y-59069600D01*
X91130952Y-59069600D02*
X91035714Y-59117219D01*
X91035714Y-59117219D02*
X90797619Y-59117219D01*
X90797619Y-59117219D02*
X90702381Y-59069600D01*
X90702381Y-59069600D02*
X90654762Y-59021980D01*
X91654762Y-59021980D02*
X91702381Y-59069600D01*
X91702381Y-59069600D02*
X91654762Y-59117219D01*
X91654762Y-59117219D02*
X91607143Y-59069600D01*
X91607143Y-59069600D02*
X91654762Y-59021980D01*
X91654762Y-59021980D02*
X91654762Y-59117219D01*
X92321428Y-58117219D02*
X92416666Y-58117219D01*
X92416666Y-58117219D02*
X92511904Y-58164838D01*
X92511904Y-58164838D02*
X92559523Y-58212457D01*
X92559523Y-58212457D02*
X92607142Y-58307695D01*
X92607142Y-58307695D02*
X92654761Y-58498171D01*
X92654761Y-58498171D02*
X92654761Y-58736266D01*
X92654761Y-58736266D02*
X92607142Y-58926742D01*
X92607142Y-58926742D02*
X92559523Y-59021980D01*
X92559523Y-59021980D02*
X92511904Y-59069600D01*
X92511904Y-59069600D02*
X92416666Y-59117219D01*
X92416666Y-59117219D02*
X92321428Y-59117219D01*
X92321428Y-59117219D02*
X92226190Y-59069600D01*
X92226190Y-59069600D02*
X92178571Y-59021980D01*
X92178571Y-59021980D02*
X92130952Y-58926742D01*
X92130952Y-58926742D02*
X92083333Y-58736266D01*
X92083333Y-58736266D02*
X92083333Y-58498171D01*
X92083333Y-58498171D02*
X92130952Y-58307695D01*
X92130952Y-58307695D02*
X92178571Y-58212457D01*
X92178571Y-58212457D02*
X92226190Y-58164838D01*
X92226190Y-58164838D02*
X92321428Y-58117219D01*
X92988095Y-58117219D02*
X93607142Y-58117219D01*
X93607142Y-58117219D02*
X93273809Y-58498171D01*
X93273809Y-58498171D02*
X93416666Y-58498171D01*
X93416666Y-58498171D02*
X93511904Y-58545790D01*
X93511904Y-58545790D02*
X93559523Y-58593409D01*
X93559523Y-58593409D02*
X93607142Y-58688647D01*
X93607142Y-58688647D02*
X93607142Y-58926742D01*
X93607142Y-58926742D02*
X93559523Y-59021980D01*
X93559523Y-59021980D02*
X93511904Y-59069600D01*
X93511904Y-59069600D02*
X93416666Y-59117219D01*
X93416666Y-59117219D02*
X93130952Y-59117219D01*
X93130952Y-59117219D02*
X93035714Y-59069600D01*
X93035714Y-59069600D02*
X92988095Y-59021980D01*
X94035714Y-59021980D02*
X94083333Y-59069600D01*
X94083333Y-59069600D02*
X94035714Y-59117219D01*
X94035714Y-59117219D02*
X93988095Y-59069600D01*
X93988095Y-59069600D02*
X94035714Y-59021980D01*
X94035714Y-59021980D02*
X94035714Y-59117219D01*
X94464285Y-58212457D02*
X94511904Y-58164838D01*
X94511904Y-58164838D02*
X94607142Y-58117219D01*
X94607142Y-58117219D02*
X94845237Y-58117219D01*
X94845237Y-58117219D02*
X94940475Y-58164838D01*
X94940475Y-58164838D02*
X94988094Y-58212457D01*
X94988094Y-58212457D02*
X95035713Y-58307695D01*
X95035713Y-58307695D02*
X95035713Y-58402933D01*
X95035713Y-58402933D02*
X94988094Y-58545790D01*
X94988094Y-58545790D02*
X94416666Y-59117219D01*
X94416666Y-59117219D02*
X95035713Y-59117219D01*
X95654761Y-58117219D02*
X95749999Y-58117219D01*
X95749999Y-58117219D02*
X95845237Y-58164838D01*
X95845237Y-58164838D02*
X95892856Y-58212457D01*
X95892856Y-58212457D02*
X95940475Y-58307695D01*
X95940475Y-58307695D02*
X95988094Y-58498171D01*
X95988094Y-58498171D02*
X95988094Y-58736266D01*
X95988094Y-58736266D02*
X95940475Y-58926742D01*
X95940475Y-58926742D02*
X95892856Y-59021980D01*
X95892856Y-59021980D02*
X95845237Y-59069600D01*
X95845237Y-59069600D02*
X95749999Y-59117219D01*
X95749999Y-59117219D02*
X95654761Y-59117219D01*
X95654761Y-59117219D02*
X95559523Y-59069600D01*
X95559523Y-59069600D02*
X95511904Y-59021980D01*
X95511904Y-59021980D02*
X95464285Y-58926742D01*
X95464285Y-58926742D02*
X95416666Y-58736266D01*
X95416666Y-58736266D02*
X95416666Y-58498171D01*
X95416666Y-58498171D02*
X95464285Y-58307695D01*
X95464285Y-58307695D02*
X95511904Y-58212457D01*
X95511904Y-58212457D02*
X95559523Y-58164838D01*
X95559523Y-58164838D02*
X95654761Y-58117219D01*
X96369047Y-58212457D02*
X96416666Y-58164838D01*
X96416666Y-58164838D02*
X96511904Y-58117219D01*
X96511904Y-58117219D02*
X96749999Y-58117219D01*
X96749999Y-58117219D02*
X96845237Y-58164838D01*
X96845237Y-58164838D02*
X96892856Y-58212457D01*
X96892856Y-58212457D02*
X96940475Y-58307695D01*
X96940475Y-58307695D02*
X96940475Y-58402933D01*
X96940475Y-58402933D02*
X96892856Y-58545790D01*
X96892856Y-58545790D02*
X96321428Y-59117219D01*
X96321428Y-59117219D02*
X96940475Y-59117219D01*
X97797618Y-58117219D02*
X97607142Y-58117219D01*
X97607142Y-58117219D02*
X97511904Y-58164838D01*
X97511904Y-58164838D02*
X97464285Y-58212457D01*
X97464285Y-58212457D02*
X97369047Y-58355314D01*
X97369047Y-58355314D02*
X97321428Y-58545790D01*
X97321428Y-58545790D02*
X97321428Y-58926742D01*
X97321428Y-58926742D02*
X97369047Y-59021980D01*
X97369047Y-59021980D02*
X97416666Y-59069600D01*
X97416666Y-59069600D02*
X97511904Y-59117219D01*
X97511904Y-59117219D02*
X97702380Y-59117219D01*
X97702380Y-59117219D02*
X97797618Y-59069600D01*
X97797618Y-59069600D02*
X97845237Y-59021980D01*
X97845237Y-59021980D02*
X97892856Y-58926742D01*
X97892856Y-58926742D02*
X97892856Y-58688647D01*
X97892856Y-58688647D02*
X97845237Y-58593409D01*
X97845237Y-58593409D02*
X97797618Y-58545790D01*
X97797618Y-58545790D02*
X97702380Y-58498171D01*
X97702380Y-58498171D02*
X97511904Y-58498171D01*
X97511904Y-58498171D02*
X97416666Y-58545790D01*
X97416666Y-58545790D02*
X97369047Y-58593409D01*
X97369047Y-58593409D02*
X97321428Y-58688647D01*
X99083333Y-58736266D02*
X99845238Y-58736266D01*
X100988095Y-58450552D02*
X101226190Y-59117219D01*
X101226190Y-59117219D02*
X101464285Y-58450552D01*
X102035714Y-58117219D02*
X102130952Y-58117219D01*
X102130952Y-58117219D02*
X102226190Y-58164838D01*
X102226190Y-58164838D02*
X102273809Y-58212457D01*
X102273809Y-58212457D02*
X102321428Y-58307695D01*
X102321428Y-58307695D02*
X102369047Y-58498171D01*
X102369047Y-58498171D02*
X102369047Y-58736266D01*
X102369047Y-58736266D02*
X102321428Y-58926742D01*
X102321428Y-58926742D02*
X102273809Y-59021980D01*
X102273809Y-59021980D02*
X102226190Y-59069600D01*
X102226190Y-59069600D02*
X102130952Y-59117219D01*
X102130952Y-59117219D02*
X102035714Y-59117219D01*
X102035714Y-59117219D02*
X101940476Y-59069600D01*
X101940476Y-59069600D02*
X101892857Y-59021980D01*
X101892857Y-59021980D02*
X101845238Y-58926742D01*
X101845238Y-58926742D02*
X101797619Y-58736266D01*
X101797619Y-58736266D02*
X101797619Y-58498171D01*
X101797619Y-58498171D02*
X101845238Y-58307695D01*
X101845238Y-58307695D02*
X101892857Y-58212457D01*
X101892857Y-58212457D02*
X101940476Y-58164838D01*
X101940476Y-58164838D02*
X102035714Y-58117219D01*
X102797619Y-59021980D02*
X102845238Y-59069600D01*
X102845238Y-59069600D02*
X102797619Y-59117219D01*
X102797619Y-59117219D02*
X102750000Y-59069600D01*
X102750000Y-59069600D02*
X102797619Y-59021980D01*
X102797619Y-59021980D02*
X102797619Y-59117219D01*
X103226190Y-58212457D02*
X103273809Y-58164838D01*
X103273809Y-58164838D02*
X103369047Y-58117219D01*
X103369047Y-58117219D02*
X103607142Y-58117219D01*
X103607142Y-58117219D02*
X103702380Y-58164838D01*
X103702380Y-58164838D02*
X103749999Y-58212457D01*
X103749999Y-58212457D02*
X103797618Y-58307695D01*
X103797618Y-58307695D02*
X103797618Y-58402933D01*
X103797618Y-58402933D02*
X103749999Y-58545790D01*
X103749999Y-58545790D02*
X103178571Y-59117219D01*
X103178571Y-59117219D02*
X103797618Y-59117219D01*
D11*
X133833333Y-59609580D02*
X133785714Y-59657200D01*
X133785714Y-59657200D02*
X133642857Y-59704819D01*
X133642857Y-59704819D02*
X133547619Y-59704819D01*
X133547619Y-59704819D02*
X133404762Y-59657200D01*
X133404762Y-59657200D02*
X133309524Y-59561961D01*
X133309524Y-59561961D02*
X133261905Y-59466723D01*
X133261905Y-59466723D02*
X133214286Y-59276247D01*
X133214286Y-59276247D02*
X133214286Y-59133390D01*
X133214286Y-59133390D02*
X133261905Y-58942914D01*
X133261905Y-58942914D02*
X133309524Y-58847676D01*
X133309524Y-58847676D02*
X133404762Y-58752438D01*
X133404762Y-58752438D02*
X133547619Y-58704819D01*
X133547619Y-58704819D02*
X133642857Y-58704819D01*
X133642857Y-58704819D02*
X133785714Y-58752438D01*
X133785714Y-58752438D02*
X133833333Y-58800057D01*
X134690476Y-59038152D02*
X134690476Y-59704819D01*
X134452381Y-58657200D02*
X134214286Y-59371485D01*
X134214286Y-59371485D02*
X134833333Y-59371485D01*
X167833333Y-58609580D02*
X167785714Y-58657200D01*
X167785714Y-58657200D02*
X167642857Y-58704819D01*
X167642857Y-58704819D02*
X167547619Y-58704819D01*
X167547619Y-58704819D02*
X167404762Y-58657200D01*
X167404762Y-58657200D02*
X167309524Y-58561961D01*
X167309524Y-58561961D02*
X167261905Y-58466723D01*
X167261905Y-58466723D02*
X167214286Y-58276247D01*
X167214286Y-58276247D02*
X167214286Y-58133390D01*
X167214286Y-58133390D02*
X167261905Y-57942914D01*
X167261905Y-57942914D02*
X167309524Y-57847676D01*
X167309524Y-57847676D02*
X167404762Y-57752438D01*
X167404762Y-57752438D02*
X167547619Y-57704819D01*
X167547619Y-57704819D02*
X167642857Y-57704819D01*
X167642857Y-57704819D02*
X167785714Y-57752438D01*
X167785714Y-57752438D02*
X167833333Y-57800057D01*
X168690476Y-57704819D02*
X168500000Y-57704819D01*
X168500000Y-57704819D02*
X168404762Y-57752438D01*
X168404762Y-57752438D02*
X168357143Y-57800057D01*
X168357143Y-57800057D02*
X168261905Y-57942914D01*
X168261905Y-57942914D02*
X168214286Y-58133390D01*
X168214286Y-58133390D02*
X168214286Y-58514342D01*
X168214286Y-58514342D02*
X168261905Y-58609580D01*
X168261905Y-58609580D02*
X168309524Y-58657200D01*
X168309524Y-58657200D02*
X168404762Y-58704819D01*
X168404762Y-58704819D02*
X168595238Y-58704819D01*
X168595238Y-58704819D02*
X168690476Y-58657200D01*
X168690476Y-58657200D02*
X168738095Y-58609580D01*
X168738095Y-58609580D02*
X168785714Y-58514342D01*
X168785714Y-58514342D02*
X168785714Y-58276247D01*
X168785714Y-58276247D02*
X168738095Y-58181009D01*
X168738095Y-58181009D02*
X168690476Y-58133390D01*
X168690476Y-58133390D02*
X168595238Y-58085771D01*
X168595238Y-58085771D02*
X168404762Y-58085771D01*
X168404762Y-58085771D02*
X168309524Y-58133390D01*
X168309524Y-58133390D02*
X168261905Y-58181009D01*
X168261905Y-58181009D02*
X168214286Y-58276247D01*
X106240595Y-68612319D02*
X106240595Y-69421842D01*
X106240595Y-69421842D02*
X106288214Y-69517080D01*
X106288214Y-69517080D02*
X106335833Y-69564700D01*
X106335833Y-69564700D02*
X106431071Y-69612319D01*
X106431071Y-69612319D02*
X106621547Y-69612319D01*
X106621547Y-69612319D02*
X106716785Y-69564700D01*
X106716785Y-69564700D02*
X106764404Y-69517080D01*
X106764404Y-69517080D02*
X106812023Y-69421842D01*
X106812023Y-69421842D02*
X106812023Y-68612319D01*
X107812023Y-69612319D02*
X107240595Y-69612319D01*
X107526309Y-69612319D02*
X107526309Y-68612319D01*
X107526309Y-68612319D02*
X107431071Y-68755176D01*
X107431071Y-68755176D02*
X107335833Y-68850414D01*
X107335833Y-68850414D02*
X107240595Y-68898033D01*
X183083333Y-51704819D02*
X182607143Y-51704819D01*
X182607143Y-51704819D02*
X182607143Y-50704819D01*
X183940476Y-51704819D02*
X183369048Y-51704819D01*
X183654762Y-51704819D02*
X183654762Y-50704819D01*
X183654762Y-50704819D02*
X183559524Y-50847676D01*
X183559524Y-50847676D02*
X183464286Y-50942914D01*
X183464286Y-50942914D02*
X183369048Y-50990533D01*
X162333333Y-67109580D02*
X162285714Y-67157200D01*
X162285714Y-67157200D02*
X162142857Y-67204819D01*
X162142857Y-67204819D02*
X162047619Y-67204819D01*
X162047619Y-67204819D02*
X161904762Y-67157200D01*
X161904762Y-67157200D02*
X161809524Y-67061961D01*
X161809524Y-67061961D02*
X161761905Y-66966723D01*
X161761905Y-66966723D02*
X161714286Y-66776247D01*
X161714286Y-66776247D02*
X161714286Y-66633390D01*
X161714286Y-66633390D02*
X161761905Y-66442914D01*
X161761905Y-66442914D02*
X161809524Y-66347676D01*
X161809524Y-66347676D02*
X161904762Y-66252438D01*
X161904762Y-66252438D02*
X162047619Y-66204819D01*
X162047619Y-66204819D02*
X162142857Y-66204819D01*
X162142857Y-66204819D02*
X162285714Y-66252438D01*
X162285714Y-66252438D02*
X162333333Y-66300057D01*
X163238095Y-66204819D02*
X162761905Y-66204819D01*
X162761905Y-66204819D02*
X162714286Y-66681009D01*
X162714286Y-66681009D02*
X162761905Y-66633390D01*
X162761905Y-66633390D02*
X162857143Y-66585771D01*
X162857143Y-66585771D02*
X163095238Y-66585771D01*
X163095238Y-66585771D02*
X163190476Y-66633390D01*
X163190476Y-66633390D02*
X163238095Y-66681009D01*
X163238095Y-66681009D02*
X163285714Y-66776247D01*
X163285714Y-66776247D02*
X163285714Y-67014342D01*
X163285714Y-67014342D02*
X163238095Y-67109580D01*
X163238095Y-67109580D02*
X163190476Y-67157200D01*
X163190476Y-67157200D02*
X163095238Y-67204819D01*
X163095238Y-67204819D02*
X162857143Y-67204819D01*
X162857143Y-67204819D02*
X162761905Y-67157200D01*
X162761905Y-67157200D02*
X162714286Y-67109580D01*
X195333333Y-54359580D02*
X195285714Y-54407200D01*
X195285714Y-54407200D02*
X195142857Y-54454819D01*
X195142857Y-54454819D02*
X195047619Y-54454819D01*
X195047619Y-54454819D02*
X194904762Y-54407200D01*
X194904762Y-54407200D02*
X194809524Y-54311961D01*
X194809524Y-54311961D02*
X194761905Y-54216723D01*
X194761905Y-54216723D02*
X194714286Y-54026247D01*
X194714286Y-54026247D02*
X194714286Y-53883390D01*
X194714286Y-53883390D02*
X194761905Y-53692914D01*
X194761905Y-53692914D02*
X194809524Y-53597676D01*
X194809524Y-53597676D02*
X194904762Y-53502438D01*
X194904762Y-53502438D02*
X195047619Y-53454819D01*
X195047619Y-53454819D02*
X195142857Y-53454819D01*
X195142857Y-53454819D02*
X195285714Y-53502438D01*
X195285714Y-53502438D02*
X195333333Y-53550057D01*
X195714286Y-53550057D02*
X195761905Y-53502438D01*
X195761905Y-53502438D02*
X195857143Y-53454819D01*
X195857143Y-53454819D02*
X196095238Y-53454819D01*
X196095238Y-53454819D02*
X196190476Y-53502438D01*
X196190476Y-53502438D02*
X196238095Y-53550057D01*
X196238095Y-53550057D02*
X196285714Y-53645295D01*
X196285714Y-53645295D02*
X196285714Y-53740533D01*
X196285714Y-53740533D02*
X196238095Y-53883390D01*
X196238095Y-53883390D02*
X195666667Y-54454819D01*
X195666667Y-54454819D02*
X196285714Y-54454819D01*
X85938095Y-56354819D02*
X85938095Y-57164342D01*
X85938095Y-57164342D02*
X85985714Y-57259580D01*
X85985714Y-57259580D02*
X86033333Y-57307200D01*
X86033333Y-57307200D02*
X86128571Y-57354819D01*
X86128571Y-57354819D02*
X86319047Y-57354819D01*
X86319047Y-57354819D02*
X86414285Y-57307200D01*
X86414285Y-57307200D02*
X86461904Y-57259580D01*
X86461904Y-57259580D02*
X86509523Y-57164342D01*
X86509523Y-57164342D02*
X86509523Y-56354819D01*
X86938095Y-56450057D02*
X86985714Y-56402438D01*
X86985714Y-56402438D02*
X87080952Y-56354819D01*
X87080952Y-56354819D02*
X87319047Y-56354819D01*
X87319047Y-56354819D02*
X87414285Y-56402438D01*
X87414285Y-56402438D02*
X87461904Y-56450057D01*
X87461904Y-56450057D02*
X87509523Y-56545295D01*
X87509523Y-56545295D02*
X87509523Y-56640533D01*
X87509523Y-56640533D02*
X87461904Y-56783390D01*
X87461904Y-56783390D02*
X86890476Y-57354819D01*
X86890476Y-57354819D02*
X87509523Y-57354819D01*
X64701219Y-64900037D02*
X65701219Y-64566704D01*
X65701219Y-64566704D02*
X64701219Y-64233371D01*
X65701219Y-63900037D02*
X64701219Y-63900037D01*
X65701219Y-63423847D02*
X64701219Y-63423847D01*
X64701219Y-63423847D02*
X65701219Y-62852419D01*
X65701219Y-62852419D02*
X64701219Y-62852419D01*
X81045248Y-58646266D02*
X81807153Y-58646266D01*
X81146848Y-69301566D02*
X81908753Y-69301566D01*
X81527800Y-69682519D02*
X81527800Y-68920614D01*
X83268619Y-65312704D02*
X84268619Y-64979371D01*
X84268619Y-64979371D02*
X83268619Y-64646038D01*
X83268619Y-64122228D02*
X83268619Y-63931752D01*
X83268619Y-63931752D02*
X83316238Y-63836514D01*
X83316238Y-63836514D02*
X83411476Y-63741276D01*
X83411476Y-63741276D02*
X83601952Y-63693657D01*
X83601952Y-63693657D02*
X83935285Y-63693657D01*
X83935285Y-63693657D02*
X84125761Y-63741276D01*
X84125761Y-63741276D02*
X84221000Y-63836514D01*
X84221000Y-63836514D02*
X84268619Y-63931752D01*
X84268619Y-63931752D02*
X84268619Y-64122228D01*
X84268619Y-64122228D02*
X84221000Y-64217466D01*
X84221000Y-64217466D02*
X84125761Y-64312704D01*
X84125761Y-64312704D02*
X83935285Y-64360323D01*
X83935285Y-64360323D02*
X83601952Y-64360323D01*
X83601952Y-64360323D02*
X83411476Y-64312704D01*
X83411476Y-64312704D02*
X83316238Y-64217466D01*
X83316238Y-64217466D02*
X83268619Y-64122228D01*
X83268619Y-63265085D02*
X84078142Y-63265085D01*
X84078142Y-63265085D02*
X84173380Y-63217466D01*
X84173380Y-63217466D02*
X84221000Y-63169847D01*
X84221000Y-63169847D02*
X84268619Y-63074609D01*
X84268619Y-63074609D02*
X84268619Y-62884133D01*
X84268619Y-62884133D02*
X84221000Y-62788895D01*
X84221000Y-62788895D02*
X84173380Y-62741276D01*
X84173380Y-62741276D02*
X84078142Y-62693657D01*
X84078142Y-62693657D02*
X83268619Y-62693657D01*
X83268619Y-62360323D02*
X83268619Y-61788895D01*
X84268619Y-62074609D02*
X83268619Y-62074609D01*
X66516448Y-69326966D02*
X67278353Y-69326966D01*
X66897400Y-69707919D02*
X66897400Y-68946014D01*
X66465648Y-58646266D02*
X67227553Y-58646266D01*
X190166666Y-78454819D02*
X190166666Y-79169104D01*
X190166666Y-79169104D02*
X190119047Y-79311961D01*
X190119047Y-79311961D02*
X190023809Y-79407200D01*
X190023809Y-79407200D02*
X189880952Y-79454819D01*
X189880952Y-79454819D02*
X189785714Y-79454819D01*
X190547619Y-78454819D02*
X191166666Y-78454819D01*
X191166666Y-78454819D02*
X190833333Y-78835771D01*
X190833333Y-78835771D02*
X190976190Y-78835771D01*
X190976190Y-78835771D02*
X191071428Y-78883390D01*
X191071428Y-78883390D02*
X191119047Y-78931009D01*
X191119047Y-78931009D02*
X191166666Y-79026247D01*
X191166666Y-79026247D02*
X191166666Y-79264342D01*
X191166666Y-79264342D02*
X191119047Y-79359580D01*
X191119047Y-79359580D02*
X191071428Y-79407200D01*
X191071428Y-79407200D02*
X190976190Y-79454819D01*
X190976190Y-79454819D02*
X190690476Y-79454819D01*
X190690476Y-79454819D02*
X190595238Y-79407200D01*
X190595238Y-79407200D02*
X190547619Y-79359580D01*
X178333333Y-70859580D02*
X178285714Y-70907200D01*
X178285714Y-70907200D02*
X178142857Y-70954819D01*
X178142857Y-70954819D02*
X178047619Y-70954819D01*
X178047619Y-70954819D02*
X177904762Y-70907200D01*
X177904762Y-70907200D02*
X177809524Y-70811961D01*
X177809524Y-70811961D02*
X177761905Y-70716723D01*
X177761905Y-70716723D02*
X177714286Y-70526247D01*
X177714286Y-70526247D02*
X177714286Y-70383390D01*
X177714286Y-70383390D02*
X177761905Y-70192914D01*
X177761905Y-70192914D02*
X177809524Y-70097676D01*
X177809524Y-70097676D02*
X177904762Y-70002438D01*
X177904762Y-70002438D02*
X178047619Y-69954819D01*
X178047619Y-69954819D02*
X178142857Y-69954819D01*
X178142857Y-69954819D02*
X178285714Y-70002438D01*
X178285714Y-70002438D02*
X178333333Y-70050057D01*
X178904762Y-70383390D02*
X178809524Y-70335771D01*
X178809524Y-70335771D02*
X178761905Y-70288152D01*
X178761905Y-70288152D02*
X178714286Y-70192914D01*
X178714286Y-70192914D02*
X178714286Y-70145295D01*
X178714286Y-70145295D02*
X178761905Y-70050057D01*
X178761905Y-70050057D02*
X178809524Y-70002438D01*
X178809524Y-70002438D02*
X178904762Y-69954819D01*
X178904762Y-69954819D02*
X179095238Y-69954819D01*
X179095238Y-69954819D02*
X179190476Y-70002438D01*
X179190476Y-70002438D02*
X179238095Y-70050057D01*
X179238095Y-70050057D02*
X179285714Y-70145295D01*
X179285714Y-70145295D02*
X179285714Y-70192914D01*
X179285714Y-70192914D02*
X179238095Y-70288152D01*
X179238095Y-70288152D02*
X179190476Y-70335771D01*
X179190476Y-70335771D02*
X179095238Y-70383390D01*
X179095238Y-70383390D02*
X178904762Y-70383390D01*
X178904762Y-70383390D02*
X178809524Y-70431009D01*
X178809524Y-70431009D02*
X178761905Y-70478628D01*
X178761905Y-70478628D02*
X178714286Y-70573866D01*
X178714286Y-70573866D02*
X178714286Y-70764342D01*
X178714286Y-70764342D02*
X178761905Y-70859580D01*
X178761905Y-70859580D02*
X178809524Y-70907200D01*
X178809524Y-70907200D02*
X178904762Y-70954819D01*
X178904762Y-70954819D02*
X179095238Y-70954819D01*
X179095238Y-70954819D02*
X179190476Y-70907200D01*
X179190476Y-70907200D02*
X179238095Y-70859580D01*
X179238095Y-70859580D02*
X179285714Y-70764342D01*
X179285714Y-70764342D02*
X179285714Y-70573866D01*
X179285714Y-70573866D02*
X179238095Y-70478628D01*
X179238095Y-70478628D02*
X179190476Y-70431009D01*
X179190476Y-70431009D02*
X179095238Y-70383390D01*
D10*
X214666666Y-52457419D02*
X214333333Y-51981228D01*
X214095238Y-52457419D02*
X214095238Y-51457419D01*
X214095238Y-51457419D02*
X214476190Y-51457419D01*
X214476190Y-51457419D02*
X214571428Y-51505038D01*
X214571428Y-51505038D02*
X214619047Y-51552657D01*
X214619047Y-51552657D02*
X214666666Y-51647895D01*
X214666666Y-51647895D02*
X214666666Y-51790752D01*
X214666666Y-51790752D02*
X214619047Y-51885990D01*
X214619047Y-51885990D02*
X214571428Y-51933609D01*
X214571428Y-51933609D02*
X214476190Y-51981228D01*
X214476190Y-51981228D02*
X214095238Y-51981228D01*
X215428571Y-51933609D02*
X215095238Y-51933609D01*
X215095238Y-52457419D02*
X215095238Y-51457419D01*
X215095238Y-51457419D02*
X215571428Y-51457419D01*
X215952381Y-52457419D02*
X215952381Y-51457419D01*
X216428571Y-52457419D02*
X216428571Y-51457419D01*
X216428571Y-51457419D02*
X216666666Y-51457419D01*
X216666666Y-51457419D02*
X216809523Y-51505038D01*
X216809523Y-51505038D02*
X216904761Y-51600276D01*
X216904761Y-51600276D02*
X216952380Y-51695514D01*
X216952380Y-51695514D02*
X216999999Y-51885990D01*
X216999999Y-51885990D02*
X216999999Y-52028847D01*
X216999999Y-52028847D02*
X216952380Y-52219323D01*
X216952380Y-52219323D02*
X216904761Y-52314561D01*
X216904761Y-52314561D02*
X216809523Y-52409800D01*
X216809523Y-52409800D02*
X216666666Y-52457419D01*
X216666666Y-52457419D02*
X216428571Y-52457419D01*
X217952380Y-52457419D02*
X217380952Y-52457419D01*
X217666666Y-52457419D02*
X217666666Y-51457419D01*
X217666666Y-51457419D02*
X217571428Y-51600276D01*
X217571428Y-51600276D02*
X217476190Y-51695514D01*
X217476190Y-51695514D02*
X217380952Y-51743133D01*
X226812265Y-84842704D02*
X227288455Y-84842704D01*
X226717027Y-85128419D02*
X227050360Y-84128419D01*
X227050360Y-84128419D02*
X227383693Y-85128419D01*
X227717027Y-85128419D02*
X227717027Y-84128419D01*
X227717027Y-84128419D02*
X228288455Y-85128419D01*
X228288455Y-85128419D02*
X228288455Y-84128419D01*
X228621789Y-84128419D02*
X229193217Y-84128419D01*
X228907503Y-85128419D02*
X228907503Y-84128419D01*
X229478932Y-84223657D02*
X229526551Y-84176038D01*
X229526551Y-84176038D02*
X229621789Y-84128419D01*
X229621789Y-84128419D02*
X229859884Y-84128419D01*
X229859884Y-84128419D02*
X229955122Y-84176038D01*
X229955122Y-84176038D02*
X230002741Y-84223657D01*
X230002741Y-84223657D02*
X230050360Y-84318895D01*
X230050360Y-84318895D02*
X230050360Y-84414133D01*
X230050360Y-84414133D02*
X230002741Y-84556990D01*
X230002741Y-84556990D02*
X229431313Y-85128419D01*
X229431313Y-85128419D02*
X230050360Y-85128419D01*
X226812265Y-82048704D02*
X227288455Y-82048704D01*
X226717027Y-82334419D02*
X227050360Y-81334419D01*
X227050360Y-81334419D02*
X227383693Y-82334419D01*
X227717027Y-82334419D02*
X227717027Y-81334419D01*
X227717027Y-81334419D02*
X228288455Y-82334419D01*
X228288455Y-82334419D02*
X228288455Y-81334419D01*
X228621789Y-81334419D02*
X229193217Y-81334419D01*
X228907503Y-82334419D02*
X228907503Y-81334419D01*
X230050360Y-82334419D02*
X229478932Y-82334419D01*
X229764646Y-82334419D02*
X229764646Y-81334419D01*
X229764646Y-81334419D02*
X229669408Y-81477276D01*
X229669408Y-81477276D02*
X229574170Y-81572514D01*
X229574170Y-81572514D02*
X229478932Y-81620133D01*
X201475693Y-68174038D02*
X201380455Y-68126419D01*
X201380455Y-68126419D02*
X201237598Y-68126419D01*
X201237598Y-68126419D02*
X201094741Y-68174038D01*
X201094741Y-68174038D02*
X200999503Y-68269276D01*
X200999503Y-68269276D02*
X200951884Y-68364514D01*
X200951884Y-68364514D02*
X200904265Y-68554990D01*
X200904265Y-68554990D02*
X200904265Y-68697847D01*
X200904265Y-68697847D02*
X200951884Y-68888323D01*
X200951884Y-68888323D02*
X200999503Y-68983561D01*
X200999503Y-68983561D02*
X201094741Y-69078800D01*
X201094741Y-69078800D02*
X201237598Y-69126419D01*
X201237598Y-69126419D02*
X201332836Y-69126419D01*
X201332836Y-69126419D02*
X201475693Y-69078800D01*
X201475693Y-69078800D02*
X201523312Y-69031180D01*
X201523312Y-69031180D02*
X201523312Y-68697847D01*
X201523312Y-68697847D02*
X201332836Y-68697847D01*
X201951884Y-69126419D02*
X201951884Y-68126419D01*
X201951884Y-68126419D02*
X202523312Y-69126419D01*
X202523312Y-69126419D02*
X202523312Y-68126419D01*
X202999503Y-69126419D02*
X202999503Y-68126419D01*
X202999503Y-68126419D02*
X203237598Y-68126419D01*
X203237598Y-68126419D02*
X203380455Y-68174038D01*
X203380455Y-68174038D02*
X203475693Y-68269276D01*
X203475693Y-68269276D02*
X203523312Y-68364514D01*
X203523312Y-68364514D02*
X203570931Y-68554990D01*
X203570931Y-68554990D02*
X203570931Y-68697847D01*
X203570931Y-68697847D02*
X203523312Y-68888323D01*
X203523312Y-68888323D02*
X203475693Y-68983561D01*
X203475693Y-68983561D02*
X203380455Y-69078800D01*
X203380455Y-69078800D02*
X203237598Y-69126419D01*
X203237598Y-69126419D02*
X202999503Y-69126419D01*
X202425342Y-54976646D02*
X202425342Y-54548074D01*
X202425342Y-54548074D02*
X201996771Y-54505217D01*
X201996771Y-54505217D02*
X202039628Y-54548074D01*
X202039628Y-54548074D02*
X202082485Y-54633789D01*
X202082485Y-54633789D02*
X202082485Y-54848074D01*
X202082485Y-54848074D02*
X202039628Y-54933789D01*
X202039628Y-54933789D02*
X201996771Y-54976646D01*
X201996771Y-54976646D02*
X201911057Y-55019503D01*
X201911057Y-55019503D02*
X201696771Y-55019503D01*
X201696771Y-55019503D02*
X201611057Y-54976646D01*
X201611057Y-54976646D02*
X201568200Y-54933789D01*
X201568200Y-54933789D02*
X201525342Y-54848074D01*
X201525342Y-54848074D02*
X201525342Y-54633789D01*
X201525342Y-54633789D02*
X201568200Y-54548074D01*
X201568200Y-54548074D02*
X201611057Y-54505217D01*
X202425342Y-55276646D02*
X201525342Y-55576646D01*
X201525342Y-55576646D02*
X202425342Y-55876646D01*
X201868200Y-56176646D02*
X201868200Y-56862361D01*
X201525342Y-56519503D02*
X202211057Y-56519503D01*
X201525342Y-57762361D02*
X201525342Y-57248075D01*
X201525342Y-57505218D02*
X202425342Y-57505218D01*
X202425342Y-57505218D02*
X202296771Y-57419504D01*
X202296771Y-57419504D02*
X202211057Y-57333789D01*
X202211057Y-57333789D02*
X202168200Y-57248075D01*
X202425342Y-58319504D02*
X202425342Y-58405218D01*
X202425342Y-58405218D02*
X202382485Y-58490932D01*
X202382485Y-58490932D02*
X202339628Y-58533790D01*
X202339628Y-58533790D02*
X202253914Y-58576647D01*
X202253914Y-58576647D02*
X202082485Y-58619504D01*
X202082485Y-58619504D02*
X201868200Y-58619504D01*
X201868200Y-58619504D02*
X201696771Y-58576647D01*
X201696771Y-58576647D02*
X201611057Y-58533790D01*
X201611057Y-58533790D02*
X201568200Y-58490932D01*
X201568200Y-58490932D02*
X201525342Y-58405218D01*
X201525342Y-58405218D02*
X201525342Y-58319504D01*
X201525342Y-58319504D02*
X201568200Y-58233790D01*
X201568200Y-58233790D02*
X201611057Y-58190932D01*
X201611057Y-58190932D02*
X201696771Y-58148075D01*
X201696771Y-58148075D02*
X201868200Y-58105218D01*
X201868200Y-58105218D02*
X202082485Y-58105218D01*
X202082485Y-58105218D02*
X202253914Y-58148075D01*
X202253914Y-58148075D02*
X202339628Y-58190932D01*
X202339628Y-58190932D02*
X202382485Y-58233790D01*
X202382485Y-58233790D02*
X202425342Y-58319504D01*
X201525342Y-59519504D02*
X201953914Y-59219504D01*
X201525342Y-59005218D02*
X202425342Y-59005218D01*
X202425342Y-59005218D02*
X202425342Y-59348075D01*
X202425342Y-59348075D02*
X202382485Y-59433790D01*
X202382485Y-59433790D02*
X202339628Y-59476647D01*
X202339628Y-59476647D02*
X202253914Y-59519504D01*
X202253914Y-59519504D02*
X202125342Y-59519504D01*
X202125342Y-59519504D02*
X202039628Y-59476647D01*
X202039628Y-59476647D02*
X201996771Y-59433790D01*
X201996771Y-59433790D02*
X201953914Y-59348075D01*
X201953914Y-59348075D02*
X201953914Y-59005218D01*
X207462485Y-57559503D02*
X207505342Y-57473789D01*
X207505342Y-57473789D02*
X207505342Y-57345217D01*
X207505342Y-57345217D02*
X207462485Y-57216646D01*
X207462485Y-57216646D02*
X207376771Y-57130931D01*
X207376771Y-57130931D02*
X207291057Y-57088074D01*
X207291057Y-57088074D02*
X207119628Y-57045217D01*
X207119628Y-57045217D02*
X206991057Y-57045217D01*
X206991057Y-57045217D02*
X206819628Y-57088074D01*
X206819628Y-57088074D02*
X206733914Y-57130931D01*
X206733914Y-57130931D02*
X206648200Y-57216646D01*
X206648200Y-57216646D02*
X206605342Y-57345217D01*
X206605342Y-57345217D02*
X206605342Y-57430931D01*
X206605342Y-57430931D02*
X206648200Y-57559503D01*
X206648200Y-57559503D02*
X206691057Y-57602360D01*
X206691057Y-57602360D02*
X206991057Y-57602360D01*
X206991057Y-57602360D02*
X206991057Y-57430931D01*
X206605342Y-57988074D02*
X207505342Y-57988074D01*
X207505342Y-57988074D02*
X206605342Y-58502360D01*
X206605342Y-58502360D02*
X207505342Y-58502360D01*
X206605342Y-58930931D02*
X207505342Y-58930931D01*
X207505342Y-58930931D02*
X207505342Y-59145217D01*
X207505342Y-59145217D02*
X207462485Y-59273788D01*
X207462485Y-59273788D02*
X207376771Y-59359503D01*
X207376771Y-59359503D02*
X207291057Y-59402360D01*
X207291057Y-59402360D02*
X207119628Y-59445217D01*
X207119628Y-59445217D02*
X206991057Y-59445217D01*
X206991057Y-59445217D02*
X206819628Y-59402360D01*
X206819628Y-59402360D02*
X206733914Y-59359503D01*
X206733914Y-59359503D02*
X206648200Y-59273788D01*
X206648200Y-59273788D02*
X206605342Y-59145217D01*
X206605342Y-59145217D02*
X206605342Y-58930931D01*
X199328200Y-55056074D02*
X199328200Y-55741789D01*
X198985342Y-55398931D02*
X199671057Y-55398931D01*
X199885342Y-56598932D02*
X199885342Y-56170360D01*
X199885342Y-56170360D02*
X199456771Y-56127503D01*
X199456771Y-56127503D02*
X199499628Y-56170360D01*
X199499628Y-56170360D02*
X199542485Y-56256075D01*
X199542485Y-56256075D02*
X199542485Y-56470360D01*
X199542485Y-56470360D02*
X199499628Y-56556075D01*
X199499628Y-56556075D02*
X199456771Y-56598932D01*
X199456771Y-56598932D02*
X199371057Y-56641789D01*
X199371057Y-56641789D02*
X199156771Y-56641789D01*
X199156771Y-56641789D02*
X199071057Y-56598932D01*
X199071057Y-56598932D02*
X199028200Y-56556075D01*
X199028200Y-56556075D02*
X198985342Y-56470360D01*
X198985342Y-56470360D02*
X198985342Y-56256075D01*
X198985342Y-56256075D02*
X199028200Y-56170360D01*
X199028200Y-56170360D02*
X199071057Y-56127503D01*
X199328200Y-57027503D02*
X199328200Y-57713218D01*
X198985342Y-58184646D02*
X198985342Y-58356075D01*
X198985342Y-58356075D02*
X199028200Y-58441789D01*
X199028200Y-58441789D02*
X199071057Y-58484646D01*
X199071057Y-58484646D02*
X199199628Y-58570361D01*
X199199628Y-58570361D02*
X199371057Y-58613218D01*
X199371057Y-58613218D02*
X199713914Y-58613218D01*
X199713914Y-58613218D02*
X199799628Y-58570361D01*
X199799628Y-58570361D02*
X199842485Y-58527504D01*
X199842485Y-58527504D02*
X199885342Y-58441789D01*
X199885342Y-58441789D02*
X199885342Y-58270361D01*
X199885342Y-58270361D02*
X199842485Y-58184646D01*
X199842485Y-58184646D02*
X199799628Y-58141789D01*
X199799628Y-58141789D02*
X199713914Y-58098932D01*
X199713914Y-58098932D02*
X199499628Y-58098932D01*
X199499628Y-58098932D02*
X199413914Y-58141789D01*
X199413914Y-58141789D02*
X199371057Y-58184646D01*
X199371057Y-58184646D02*
X199328200Y-58270361D01*
X199328200Y-58270361D02*
X199328200Y-58441789D01*
X199328200Y-58441789D02*
X199371057Y-58527504D01*
X199371057Y-58527504D02*
X199413914Y-58570361D01*
X199413914Y-58570361D02*
X199499628Y-58613218D01*
X199885342Y-58870361D02*
X198985342Y-59170361D01*
X198985342Y-59170361D02*
X199885342Y-59470361D01*
X201523312Y-64046419D02*
X201189979Y-63570228D01*
X200951884Y-64046419D02*
X200951884Y-63046419D01*
X200951884Y-63046419D02*
X201332836Y-63046419D01*
X201332836Y-63046419D02*
X201428074Y-63094038D01*
X201428074Y-63094038D02*
X201475693Y-63141657D01*
X201475693Y-63141657D02*
X201523312Y-63236895D01*
X201523312Y-63236895D02*
X201523312Y-63379752D01*
X201523312Y-63379752D02*
X201475693Y-63474990D01*
X201475693Y-63474990D02*
X201428074Y-63522609D01*
X201428074Y-63522609D02*
X201332836Y-63570228D01*
X201332836Y-63570228D02*
X200951884Y-63570228D01*
X201904265Y-63998800D02*
X202047122Y-64046419D01*
X202047122Y-64046419D02*
X202285217Y-64046419D01*
X202285217Y-64046419D02*
X202380455Y-63998800D01*
X202380455Y-63998800D02*
X202428074Y-63951180D01*
X202428074Y-63951180D02*
X202475693Y-63855942D01*
X202475693Y-63855942D02*
X202475693Y-63760704D01*
X202475693Y-63760704D02*
X202428074Y-63665466D01*
X202428074Y-63665466D02*
X202380455Y-63617847D01*
X202380455Y-63617847D02*
X202285217Y-63570228D01*
X202285217Y-63570228D02*
X202094741Y-63522609D01*
X202094741Y-63522609D02*
X201999503Y-63474990D01*
X201999503Y-63474990D02*
X201951884Y-63427371D01*
X201951884Y-63427371D02*
X201904265Y-63332133D01*
X201904265Y-63332133D02*
X201904265Y-63236895D01*
X201904265Y-63236895D02*
X201951884Y-63141657D01*
X201951884Y-63141657D02*
X201999503Y-63094038D01*
X201999503Y-63094038D02*
X202094741Y-63046419D01*
X202094741Y-63046419D02*
X202332836Y-63046419D01*
X202332836Y-63046419D02*
X202475693Y-63094038D01*
X202761408Y-63046419D02*
X203332836Y-63046419D01*
X203047122Y-64046419D02*
X203047122Y-63046419D01*
X201428074Y-65586419D02*
X200951884Y-65586419D01*
X200951884Y-65586419D02*
X200904265Y-66062609D01*
X200904265Y-66062609D02*
X200951884Y-66014990D01*
X200951884Y-66014990D02*
X201047122Y-65967371D01*
X201047122Y-65967371D02*
X201285217Y-65967371D01*
X201285217Y-65967371D02*
X201380455Y-66014990D01*
X201380455Y-66014990D02*
X201428074Y-66062609D01*
X201428074Y-66062609D02*
X201475693Y-66157847D01*
X201475693Y-66157847D02*
X201475693Y-66395942D01*
X201475693Y-66395942D02*
X201428074Y-66491180D01*
X201428074Y-66491180D02*
X201380455Y-66538800D01*
X201380455Y-66538800D02*
X201285217Y-66586419D01*
X201285217Y-66586419D02*
X201047122Y-66586419D01*
X201047122Y-66586419D02*
X200951884Y-66538800D01*
X200951884Y-66538800D02*
X200904265Y-66491180D01*
X201809027Y-65919752D02*
X202047122Y-66586419D01*
X202047122Y-66586419D02*
X202285217Y-65919752D01*
X202523313Y-65586419D02*
X203094741Y-65586419D01*
X202809027Y-66586419D02*
X202809027Y-65586419D01*
X203332837Y-65586419D02*
X203999503Y-66586419D01*
X203999503Y-65586419D02*
X203332837Y-66586419D01*
X204965342Y-55312360D02*
X204965342Y-55869503D01*
X204965342Y-55869503D02*
X204622485Y-55569503D01*
X204622485Y-55569503D02*
X204622485Y-55698074D01*
X204622485Y-55698074D02*
X204579628Y-55783789D01*
X204579628Y-55783789D02*
X204536771Y-55826646D01*
X204536771Y-55826646D02*
X204451057Y-55869503D01*
X204451057Y-55869503D02*
X204236771Y-55869503D01*
X204236771Y-55869503D02*
X204151057Y-55826646D01*
X204151057Y-55826646D02*
X204108200Y-55783789D01*
X204108200Y-55783789D02*
X204065342Y-55698074D01*
X204065342Y-55698074D02*
X204065342Y-55440931D01*
X204065342Y-55440931D02*
X204108200Y-55355217D01*
X204108200Y-55355217D02*
X204151057Y-55312360D01*
X204151057Y-56255217D02*
X204108200Y-56298074D01*
X204108200Y-56298074D02*
X204065342Y-56255217D01*
X204065342Y-56255217D02*
X204108200Y-56212360D01*
X204108200Y-56212360D02*
X204151057Y-56255217D01*
X204151057Y-56255217D02*
X204065342Y-56255217D01*
X204965342Y-56598074D02*
X204965342Y-57155217D01*
X204965342Y-57155217D02*
X204622485Y-56855217D01*
X204622485Y-56855217D02*
X204622485Y-56983788D01*
X204622485Y-56983788D02*
X204579628Y-57069503D01*
X204579628Y-57069503D02*
X204536771Y-57112360D01*
X204536771Y-57112360D02*
X204451057Y-57155217D01*
X204451057Y-57155217D02*
X204236771Y-57155217D01*
X204236771Y-57155217D02*
X204151057Y-57112360D01*
X204151057Y-57112360D02*
X204108200Y-57069503D01*
X204108200Y-57069503D02*
X204065342Y-56983788D01*
X204065342Y-56983788D02*
X204065342Y-56726645D01*
X204065342Y-56726645D02*
X204108200Y-56640931D01*
X204108200Y-56640931D02*
X204151057Y-56598074D01*
X204665342Y-57455217D02*
X204065342Y-57669503D01*
X204065342Y-57669503D02*
X204665342Y-57883788D01*
X204965342Y-58098074D02*
X204965342Y-58612360D01*
X204065342Y-58355217D02*
X204965342Y-58355217D01*
X204965342Y-58826645D02*
X204065342Y-59426645D01*
X204965342Y-59426645D02*
X204065342Y-58826645D01*
D11*
X187238095Y-69204819D02*
X187238095Y-70014342D01*
X187238095Y-70014342D02*
X187285714Y-70109580D01*
X187285714Y-70109580D02*
X187333333Y-70157200D01*
X187333333Y-70157200D02*
X187428571Y-70204819D01*
X187428571Y-70204819D02*
X187619047Y-70204819D01*
X187619047Y-70204819D02*
X187714285Y-70157200D01*
X187714285Y-70157200D02*
X187761904Y-70109580D01*
X187761904Y-70109580D02*
X187809523Y-70014342D01*
X187809523Y-70014342D02*
X187809523Y-69204819D01*
X188714285Y-69538152D02*
X188714285Y-70204819D01*
X188476190Y-69157200D02*
X188238095Y-69871485D01*
X188238095Y-69871485D02*
X188857142Y-69871485D01*
X160083333Y-54204819D02*
X159750000Y-53728628D01*
X159511905Y-54204819D02*
X159511905Y-53204819D01*
X159511905Y-53204819D02*
X159892857Y-53204819D01*
X159892857Y-53204819D02*
X159988095Y-53252438D01*
X159988095Y-53252438D02*
X160035714Y-53300057D01*
X160035714Y-53300057D02*
X160083333Y-53395295D01*
X160083333Y-53395295D02*
X160083333Y-53538152D01*
X160083333Y-53538152D02*
X160035714Y-53633390D01*
X160035714Y-53633390D02*
X159988095Y-53681009D01*
X159988095Y-53681009D02*
X159892857Y-53728628D01*
X159892857Y-53728628D02*
X159511905Y-53728628D01*
X160464286Y-53300057D02*
X160511905Y-53252438D01*
X160511905Y-53252438D02*
X160607143Y-53204819D01*
X160607143Y-53204819D02*
X160845238Y-53204819D01*
X160845238Y-53204819D02*
X160940476Y-53252438D01*
X160940476Y-53252438D02*
X160988095Y-53300057D01*
X160988095Y-53300057D02*
X161035714Y-53395295D01*
X161035714Y-53395295D02*
X161035714Y-53490533D01*
X161035714Y-53490533D02*
X160988095Y-53633390D01*
X160988095Y-53633390D02*
X160416667Y-54204819D01*
X160416667Y-54204819D02*
X161035714Y-54204819D01*
X175038446Y-63609580D02*
X174990827Y-63657200D01*
X174990827Y-63657200D02*
X174847970Y-63704819D01*
X174847970Y-63704819D02*
X174752732Y-63704819D01*
X174752732Y-63704819D02*
X174609875Y-63657200D01*
X174609875Y-63657200D02*
X174514637Y-63561961D01*
X174514637Y-63561961D02*
X174467018Y-63466723D01*
X174467018Y-63466723D02*
X174419399Y-63276247D01*
X174419399Y-63276247D02*
X174419399Y-63133390D01*
X174419399Y-63133390D02*
X174467018Y-62942914D01*
X174467018Y-62942914D02*
X174514637Y-62847676D01*
X174514637Y-62847676D02*
X174609875Y-62752438D01*
X174609875Y-62752438D02*
X174752732Y-62704819D01*
X174752732Y-62704819D02*
X174847970Y-62704819D01*
X174847970Y-62704819D02*
X174990827Y-62752438D01*
X174990827Y-62752438D02*
X175038446Y-62800057D01*
X175514637Y-63704819D02*
X175705113Y-63704819D01*
X175705113Y-63704819D02*
X175800351Y-63657200D01*
X175800351Y-63657200D02*
X175847970Y-63609580D01*
X175847970Y-63609580D02*
X175943208Y-63466723D01*
X175943208Y-63466723D02*
X175990827Y-63276247D01*
X175990827Y-63276247D02*
X175990827Y-62895295D01*
X175990827Y-62895295D02*
X175943208Y-62800057D01*
X175943208Y-62800057D02*
X175895589Y-62752438D01*
X175895589Y-62752438D02*
X175800351Y-62704819D01*
X175800351Y-62704819D02*
X175609875Y-62704819D01*
X175609875Y-62704819D02*
X175514637Y-62752438D01*
X175514637Y-62752438D02*
X175467018Y-62800057D01*
X175467018Y-62800057D02*
X175419399Y-62895295D01*
X175419399Y-62895295D02*
X175419399Y-63133390D01*
X175419399Y-63133390D02*
X175467018Y-63228628D01*
X175467018Y-63228628D02*
X175514637Y-63276247D01*
X175514637Y-63276247D02*
X175609875Y-63323866D01*
X175609875Y-63323866D02*
X175800351Y-63323866D01*
X175800351Y-63323866D02*
X175895589Y-63276247D01*
X175895589Y-63276247D02*
X175943208Y-63228628D01*
X175943208Y-63228628D02*
X175990827Y-63133390D01*
X195333333Y-71209580D02*
X195285714Y-71257200D01*
X195285714Y-71257200D02*
X195142857Y-71304819D01*
X195142857Y-71304819D02*
X195047619Y-71304819D01*
X195047619Y-71304819D02*
X194904762Y-71257200D01*
X194904762Y-71257200D02*
X194809524Y-71161961D01*
X194809524Y-71161961D02*
X194761905Y-71066723D01*
X194761905Y-71066723D02*
X194714286Y-70876247D01*
X194714286Y-70876247D02*
X194714286Y-70733390D01*
X194714286Y-70733390D02*
X194761905Y-70542914D01*
X194761905Y-70542914D02*
X194809524Y-70447676D01*
X194809524Y-70447676D02*
X194904762Y-70352438D01*
X194904762Y-70352438D02*
X195047619Y-70304819D01*
X195047619Y-70304819D02*
X195142857Y-70304819D01*
X195142857Y-70304819D02*
X195285714Y-70352438D01*
X195285714Y-70352438D02*
X195333333Y-70400057D01*
X195666667Y-70304819D02*
X196285714Y-70304819D01*
X196285714Y-70304819D02*
X195952381Y-70685771D01*
X195952381Y-70685771D02*
X196095238Y-70685771D01*
X196095238Y-70685771D02*
X196190476Y-70733390D01*
X196190476Y-70733390D02*
X196238095Y-70781009D01*
X196238095Y-70781009D02*
X196285714Y-70876247D01*
X196285714Y-70876247D02*
X196285714Y-71114342D01*
X196285714Y-71114342D02*
X196238095Y-71209580D01*
X196238095Y-71209580D02*
X196190476Y-71257200D01*
X196190476Y-71257200D02*
X196095238Y-71304819D01*
X196095238Y-71304819D02*
X195809524Y-71304819D01*
X195809524Y-71304819D02*
X195714286Y-71257200D01*
X195714286Y-71257200D02*
X195666667Y-71209580D01*
X51916666Y-65404819D02*
X51916666Y-66119104D01*
X51916666Y-66119104D02*
X51869047Y-66261961D01*
X51869047Y-66261961D02*
X51773809Y-66357200D01*
X51773809Y-66357200D02*
X51630952Y-66404819D01*
X51630952Y-66404819D02*
X51535714Y-66404819D01*
X52916666Y-66404819D02*
X52345238Y-66404819D01*
X52630952Y-66404819D02*
X52630952Y-65404819D01*
X52630952Y-65404819D02*
X52535714Y-65547676D01*
X52535714Y-65547676D02*
X52440476Y-65642914D01*
X52440476Y-65642914D02*
X52345238Y-65690533D01*
X149166666Y-70704819D02*
X149166666Y-71419104D01*
X149166666Y-71419104D02*
X149119047Y-71561961D01*
X149119047Y-71561961D02*
X149023809Y-71657200D01*
X149023809Y-71657200D02*
X148880952Y-71704819D01*
X148880952Y-71704819D02*
X148785714Y-71704819D01*
X149595238Y-70800057D02*
X149642857Y-70752438D01*
X149642857Y-70752438D02*
X149738095Y-70704819D01*
X149738095Y-70704819D02*
X149976190Y-70704819D01*
X149976190Y-70704819D02*
X150071428Y-70752438D01*
X150071428Y-70752438D02*
X150119047Y-70800057D01*
X150119047Y-70800057D02*
X150166666Y-70895295D01*
X150166666Y-70895295D02*
X150166666Y-70990533D01*
X150166666Y-70990533D02*
X150119047Y-71133390D01*
X150119047Y-71133390D02*
X149547619Y-71704819D01*
X149547619Y-71704819D02*
X150166666Y-71704819D01*
X58583333Y-57109580D02*
X58535714Y-57157200D01*
X58535714Y-57157200D02*
X58392857Y-57204819D01*
X58392857Y-57204819D02*
X58297619Y-57204819D01*
X58297619Y-57204819D02*
X58154762Y-57157200D01*
X58154762Y-57157200D02*
X58059524Y-57061961D01*
X58059524Y-57061961D02*
X58011905Y-56966723D01*
X58011905Y-56966723D02*
X57964286Y-56776247D01*
X57964286Y-56776247D02*
X57964286Y-56633390D01*
X57964286Y-56633390D02*
X58011905Y-56442914D01*
X58011905Y-56442914D02*
X58059524Y-56347676D01*
X58059524Y-56347676D02*
X58154762Y-56252438D01*
X58154762Y-56252438D02*
X58297619Y-56204819D01*
X58297619Y-56204819D02*
X58392857Y-56204819D01*
X58392857Y-56204819D02*
X58535714Y-56252438D01*
X58535714Y-56252438D02*
X58583333Y-56300057D01*
X59535714Y-57204819D02*
X58964286Y-57204819D01*
X59250000Y-57204819D02*
X59250000Y-56204819D01*
X59250000Y-56204819D02*
X59154762Y-56347676D01*
X59154762Y-56347676D02*
X59059524Y-56442914D01*
X59059524Y-56442914D02*
X58964286Y-56490533D01*
X172583333Y-60609580D02*
X172535714Y-60657200D01*
X172535714Y-60657200D02*
X172392857Y-60704819D01*
X172392857Y-60704819D02*
X172297619Y-60704819D01*
X172297619Y-60704819D02*
X172154762Y-60657200D01*
X172154762Y-60657200D02*
X172059524Y-60561961D01*
X172059524Y-60561961D02*
X172011905Y-60466723D01*
X172011905Y-60466723D02*
X171964286Y-60276247D01*
X171964286Y-60276247D02*
X171964286Y-60133390D01*
X171964286Y-60133390D02*
X172011905Y-59942914D01*
X172011905Y-59942914D02*
X172059524Y-59847676D01*
X172059524Y-59847676D02*
X172154762Y-59752438D01*
X172154762Y-59752438D02*
X172297619Y-59704819D01*
X172297619Y-59704819D02*
X172392857Y-59704819D01*
X172392857Y-59704819D02*
X172535714Y-59752438D01*
X172535714Y-59752438D02*
X172583333Y-59800057D01*
X172916667Y-59704819D02*
X173583333Y-59704819D01*
X173583333Y-59704819D02*
X173154762Y-60704819D01*
X136738095Y-64204819D02*
X136738095Y-65014342D01*
X136738095Y-65014342D02*
X136785714Y-65109580D01*
X136785714Y-65109580D02*
X136833333Y-65157200D01*
X136833333Y-65157200D02*
X136928571Y-65204819D01*
X136928571Y-65204819D02*
X137119047Y-65204819D01*
X137119047Y-65204819D02*
X137214285Y-65157200D01*
X137214285Y-65157200D02*
X137261904Y-65109580D01*
X137261904Y-65109580D02*
X137309523Y-65014342D01*
X137309523Y-65014342D02*
X137309523Y-64204819D01*
X137690476Y-64204819D02*
X138309523Y-64204819D01*
X138309523Y-64204819D02*
X137976190Y-64585771D01*
X137976190Y-64585771D02*
X138119047Y-64585771D01*
X138119047Y-64585771D02*
X138214285Y-64633390D01*
X138214285Y-64633390D02*
X138261904Y-64681009D01*
X138261904Y-64681009D02*
X138309523Y-64776247D01*
X138309523Y-64776247D02*
X138309523Y-65014342D01*
X138309523Y-65014342D02*
X138261904Y-65109580D01*
X138261904Y-65109580D02*
X138214285Y-65157200D01*
X138214285Y-65157200D02*
X138119047Y-65204819D01*
X138119047Y-65204819D02*
X137833333Y-65204819D01*
X137833333Y-65204819D02*
X137738095Y-65157200D01*
X137738095Y-65157200D02*
X137690476Y-65109580D01*
D14*
%TO.C,C4*%
X131630000Y-55630000D02*
X136870000Y-55630000D01*
X131630000Y-55967000D02*
X131630000Y-55630000D01*
X131630000Y-58370000D02*
X131630000Y-58033000D01*
X136870000Y-55630000D02*
X136870000Y-55967000D01*
X136870000Y-58033000D02*
X136870000Y-58370000D01*
X136870000Y-58370000D02*
X131630000Y-58370000D01*
%TO.C,C6*%
X166960000Y-54250000D02*
X165420000Y-54250000D01*
X166960000Y-54290000D02*
X165420000Y-54290000D01*
X166960000Y-54330000D02*
X165421000Y-54330000D01*
X166960000Y-54370000D02*
X165423000Y-54370000D01*
X166960000Y-54410000D02*
X165425000Y-54410000D01*
X166960000Y-54450000D02*
X165428000Y-54450000D01*
X166960000Y-54490000D02*
X165431000Y-54490000D01*
X166960000Y-54530000D02*
X165435000Y-54530000D01*
X166960000Y-54570000D02*
X165440000Y-54570000D01*
X166960000Y-54610000D02*
X165445000Y-54610000D01*
X166960000Y-54650000D02*
X165451000Y-54650000D01*
X166960000Y-54690000D02*
X165457000Y-54690000D01*
X166960000Y-54730000D02*
X165464000Y-54730000D01*
X166960000Y-54770000D02*
X165472000Y-54770000D01*
X166960000Y-54810000D02*
X165481000Y-54810000D01*
X166960000Y-54850000D02*
X165490000Y-54850000D01*
X166960000Y-54890000D02*
X165499000Y-54890000D01*
X166960000Y-54930000D02*
X165510000Y-54930000D01*
X166960000Y-54970000D02*
X165521000Y-54970000D01*
X166960000Y-55010000D02*
X165533000Y-55010000D01*
X166960000Y-55050000D02*
X165545000Y-55050000D01*
X166960000Y-55090000D02*
X165558000Y-55090000D01*
X166960000Y-55130000D02*
X165572000Y-55130000D01*
X166960000Y-55170000D02*
X165587000Y-55170000D01*
X166960000Y-55210000D02*
X165602000Y-55210000D01*
X166960000Y-55250000D02*
X165618000Y-55250000D01*
X166960000Y-55290000D02*
X165635000Y-55290000D01*
X166960000Y-55330000D02*
X165653000Y-55330000D01*
X166960000Y-55370000D02*
X165671000Y-55370000D01*
X166960000Y-55410000D02*
X165691000Y-55410000D01*
X166960000Y-55450000D02*
X165711000Y-55450000D01*
X166960000Y-55490000D02*
X165732000Y-55490000D01*
X166960000Y-55530000D02*
X165754000Y-55530000D01*
X166960000Y-55570000D02*
X165777000Y-55570000D01*
X166960000Y-55610000D02*
X165801000Y-55610000D01*
X166960000Y-55650000D02*
X165825000Y-55650000D01*
X166960000Y-55690000D02*
X165851000Y-55690000D01*
X166960000Y-55730000D02*
X165878000Y-55730000D01*
X166960000Y-55770000D02*
X165906000Y-55770000D01*
X166960000Y-55810000D02*
X165935000Y-55810000D01*
X166960000Y-55850000D02*
X165965000Y-55850000D01*
X166960000Y-55890000D02*
X165997000Y-55890000D01*
X166960000Y-55930000D02*
X166030000Y-55930000D01*
X166960000Y-55970000D02*
X166064000Y-55970000D01*
X166960000Y-56010000D02*
X166099000Y-56010000D01*
X166960000Y-56050000D02*
X166136000Y-56050000D01*
X166960000Y-56090000D02*
X166175000Y-56090000D01*
X166960000Y-56130000D02*
X166215000Y-56130000D01*
X166960000Y-56170000D02*
X166257000Y-56170000D01*
X166960000Y-56210000D02*
X166301000Y-56210000D01*
X166960000Y-56250000D02*
X166348000Y-56250000D01*
X168283000Y-56850000D02*
X167717000Y-56850000D01*
X168517000Y-56810000D02*
X167483000Y-56810000D01*
X168677000Y-56770000D02*
X167323000Y-56770000D01*
X168805000Y-56730000D02*
X167195000Y-56730000D01*
X168914000Y-56690000D02*
X167086000Y-56690000D01*
X169011000Y-56650000D02*
X166989000Y-56650000D01*
X169098000Y-56610000D02*
X166902000Y-56610000D01*
X169177000Y-56570000D02*
X166823000Y-56570000D01*
X169251000Y-56530000D02*
X166749000Y-56530000D01*
X169319000Y-56490000D02*
X166681000Y-56490000D01*
X169383000Y-56450000D02*
X166617000Y-56450000D01*
X169443000Y-56410000D02*
X166557000Y-56410000D01*
X169475000Y-51445225D02*
X169475000Y-51945225D01*
X169499000Y-56370000D02*
X166501000Y-56370000D01*
X169553000Y-56330000D02*
X166447000Y-56330000D01*
X169604000Y-56290000D02*
X166396000Y-56290000D01*
X169652000Y-56250000D02*
X169040000Y-56250000D01*
X169699000Y-56210000D02*
X169040000Y-56210000D01*
X169725000Y-51695225D02*
X169225000Y-51695225D01*
X169743000Y-56170000D02*
X169040000Y-56170000D01*
X169785000Y-56130000D02*
X169040000Y-56130000D01*
X169825000Y-56090000D02*
X169040000Y-56090000D01*
X169864000Y-56050000D02*
X169040000Y-56050000D01*
X169901000Y-56010000D02*
X169040000Y-56010000D01*
X169936000Y-55970000D02*
X169040000Y-55970000D01*
X169970000Y-55930000D02*
X169040000Y-55930000D01*
X170003000Y-55890000D02*
X169040000Y-55890000D01*
X170035000Y-55850000D02*
X169040000Y-55850000D01*
X170065000Y-55810000D02*
X169040000Y-55810000D01*
X170094000Y-55770000D02*
X169040000Y-55770000D01*
X170122000Y-55730000D02*
X169040000Y-55730000D01*
X170149000Y-55690000D02*
X169040000Y-55690000D01*
X170175000Y-55650000D02*
X169040000Y-55650000D01*
X170199000Y-55610000D02*
X169040000Y-55610000D01*
X170223000Y-55570000D02*
X169040000Y-55570000D01*
X170246000Y-55530000D02*
X169040000Y-55530000D01*
X170268000Y-55490000D02*
X169040000Y-55490000D01*
X170289000Y-55450000D02*
X169040000Y-55450000D01*
X170309000Y-55410000D02*
X169040000Y-55410000D01*
X170329000Y-55370000D02*
X169040000Y-55370000D01*
X170347000Y-55330000D02*
X169040000Y-55330000D01*
X170365000Y-55290000D02*
X169040000Y-55290000D01*
X170382000Y-55250000D02*
X169040000Y-55250000D01*
X170398000Y-55210000D02*
X169040000Y-55210000D01*
X170413000Y-55170000D02*
X169040000Y-55170000D01*
X170428000Y-55130000D02*
X169040000Y-55130000D01*
X170442000Y-55090000D02*
X169040000Y-55090000D01*
X170455000Y-55050000D02*
X169040000Y-55050000D01*
X170467000Y-55010000D02*
X169040000Y-55010000D01*
X170479000Y-54970000D02*
X169040000Y-54970000D01*
X170490000Y-54930000D02*
X169040000Y-54930000D01*
X170501000Y-54890000D02*
X169040000Y-54890000D01*
X170510000Y-54850000D02*
X169040000Y-54850000D01*
X170519000Y-54810000D02*
X169040000Y-54810000D01*
X170528000Y-54770000D02*
X169040000Y-54770000D01*
X170536000Y-54730000D02*
X169040000Y-54730000D01*
X170543000Y-54690000D02*
X169040000Y-54690000D01*
X170549000Y-54650000D02*
X169040000Y-54650000D01*
X170555000Y-54610000D02*
X169040000Y-54610000D01*
X170560000Y-54570000D02*
X169040000Y-54570000D01*
X170565000Y-54530000D02*
X169040000Y-54530000D01*
X170569000Y-54490000D02*
X169040000Y-54490000D01*
X170572000Y-54450000D02*
X169040000Y-54450000D01*
X170575000Y-54410000D02*
X169040000Y-54410000D01*
X170577000Y-54370000D02*
X169040000Y-54370000D01*
X170579000Y-54330000D02*
X169040000Y-54330000D01*
X170580000Y-54250000D02*
X169040000Y-54250000D01*
X170580000Y-54290000D02*
X169040000Y-54290000D01*
X170620000Y-54250000D02*
G75*
G02*
X165380000Y-54250000I-2620000J0D01*
G01*
X165380000Y-54250000D02*
G75*
G02*
X170620000Y-54250000I2620000J0D01*
G01*
D15*
%TO.C,U1*%
X106869000Y-66111272D02*
X106869000Y-58116000D01*
X107369000Y-57616000D02*
X108379000Y-57616000D01*
D10*
X108379000Y-55135000D02*
X108379000Y-69105000D01*
D15*
X108379000Y-55135000D02*
X108379000Y-69105000D01*
X108379000Y-66615000D02*
X107368728Y-66611272D01*
X127429000Y-53230000D02*
X110284000Y-53230000D01*
X127429000Y-71010000D02*
X110284000Y-71010000D01*
X129334000Y-69105000D02*
X129334000Y-55135000D01*
X106869000Y-58116000D02*
G75*
G02*
X107369000Y-57616000I500000J0D01*
G01*
X107368728Y-66611272D02*
G75*
G02*
X106869001Y-66111272I291J500018D01*
G01*
X108379000Y-55135000D02*
G75*
G02*
X110284000Y-53230000I1905000J0D01*
G01*
X110284000Y-71010000D02*
G75*
G02*
X108379000Y-69105000I1J1905001D01*
G01*
X127429000Y-53230000D02*
G75*
G02*
X129334000Y-55135000I0J-1905000D01*
G01*
X129334000Y-69105000D02*
G75*
G02*
X127429000Y-71010000I-1905001J1D01*
G01*
D16*
X108872000Y-71070000D02*
G75*
G02*
X108368000Y-71070000I-252000J0D01*
G01*
X108368000Y-71070000D02*
G75*
G02*
X108872000Y-71070000I252000J0D01*
G01*
X109752000Y-69927000D02*
G75*
G02*
X109248000Y-69927000I-252000J0D01*
G01*
X109248000Y-69927000D02*
G75*
G02*
X109752000Y-69927000I252000J0D01*
G01*
D14*
%TO.C,L1*%
X184220000Y-55750000D02*
G75*
G02*
X175280000Y-55750000I-4470000J0D01*
G01*
X175280000Y-55750000D02*
G75*
G02*
X184220000Y-55750000I4470000J0D01*
G01*
%TO.C,C5*%
X161130000Y-59380000D02*
X161467000Y-59380000D01*
X161130000Y-64620000D02*
X161130000Y-59380000D01*
X161467000Y-64620000D02*
X161130000Y-64620000D01*
X163533000Y-59380000D02*
X163870000Y-59380000D01*
X163870000Y-59380000D02*
X163870000Y-64620000D01*
X163870000Y-64620000D02*
X163533000Y-64620000D01*
%TO.C,C2*%
X194130000Y-55880000D02*
X194467000Y-55880000D01*
X194130000Y-61120000D02*
X194130000Y-55880000D01*
X194467000Y-61120000D02*
X194130000Y-61120000D01*
X196533000Y-55880000D02*
X196870000Y-55880000D01*
X196870000Y-55880000D02*
X196870000Y-61120000D01*
X196870000Y-61120000D02*
X196533000Y-61120000D01*
%TO.C,U2*%
X63824000Y-56007000D02*
X63824000Y-72136000D01*
X63824000Y-72136000D02*
X85160000Y-72136000D01*
X85160000Y-56007000D02*
X63824000Y-56007000D01*
X85160000Y-72136000D02*
X85160000Y-56007000D01*
X67611241Y-58635900D02*
G75*
G02*
X66081959Y-58635900I-764641J0D01*
G01*
X66081959Y-58635900D02*
G75*
G02*
X67611241Y-58635900I764641J0D01*
G01*
X67662041Y-69316600D02*
G75*
G02*
X66132759Y-69316600I-764641J0D01*
G01*
X66132759Y-69316600D02*
G75*
G02*
X67662041Y-69316600I764641J0D01*
G01*
X82190841Y-58635900D02*
G75*
G02*
X80661559Y-58635900I-764641J0D01*
G01*
X80661559Y-58635900D02*
G75*
G02*
X82190841Y-58635900I764641J0D01*
G01*
X82292441Y-69291200D02*
G75*
G02*
X80763159Y-69291200I-764641J0D01*
G01*
X80763159Y-69291200D02*
G75*
G02*
X82292441Y-69291200I764641J0D01*
G01*
%TO.C,J3*%
X189490000Y-82785000D02*
X190090000Y-82785000D01*
X189490000Y-85325000D02*
X190090000Y-85325000D01*
X190090000Y-81185000D02*
X189490000Y-81185000D01*
X190090000Y-82785000D02*
X190090000Y-81185000D01*
X190090000Y-83725000D02*
X189490000Y-83725000D01*
X190090000Y-85325000D02*
X190090000Y-83725000D01*
X190520000Y-86195000D02*
X194520000Y-86195000D01*
X193980000Y-82235000D02*
X194510000Y-81985000D01*
X193980000Y-84275000D02*
X193980000Y-82235000D01*
X194510000Y-81985000D02*
X195510000Y-81985000D01*
X194510000Y-84525000D02*
X193980000Y-84275000D01*
X194510000Y-84525000D02*
X194510000Y-81985000D01*
X195510000Y-82235000D02*
X194510000Y-82235000D01*
X195510000Y-84275000D02*
X194510000Y-84275000D01*
X195510000Y-84525000D02*
X194510000Y-84525000D01*
X189490000Y-85905000D02*
X195510000Y-85905000D01*
X195510000Y-80605000D01*
X189490000Y-80605000D01*
X189490000Y-85905000D01*
%TO.C,C8*%
X175880000Y-66630000D02*
X181120000Y-66630000D01*
X175880000Y-66967000D02*
X175880000Y-66630000D01*
X175880000Y-69370000D02*
X175880000Y-69033000D01*
X181120000Y-66630000D02*
X181120000Y-66967000D01*
X181120000Y-69033000D02*
X181120000Y-69370000D01*
X181120000Y-69370000D02*
X175880000Y-69370000D01*
%TO.C,RFID1*%
D10*
X197600000Y-53760000D02*
X232930000Y-53760000D01*
X232930000Y-89470000D01*
X197600000Y-89470000D01*
X197600000Y-53760000D01*
D14*
%TO.C,U4*%
X182890000Y-63940000D02*
X193110000Y-63940000D01*
X182890000Y-65320000D02*
X193110000Y-65320000D01*
X182890000Y-68560000D02*
X182890000Y-63940000D01*
X186150000Y-63940000D02*
X186150000Y-65320000D01*
X189850000Y-63940000D02*
X189850000Y-65320000D01*
X193110000Y-63940000D02*
X193110000Y-68560000D01*
X193110000Y-68560000D02*
X182890000Y-68560000D01*
%TO.C,R2*%
X149040000Y-53750000D02*
X149810000Y-53750000D01*
X157120000Y-53750000D02*
X156350000Y-53750000D01*
X156350000Y-55120000D02*
X149810000Y-55120000D01*
X149810000Y-52380000D01*
X156350000Y-52380000D01*
X156350000Y-55120000D01*
%TO.C,C9*%
X176605113Y-63533000D02*
X176605113Y-62967000D01*
X176645113Y-63767000D02*
X176645113Y-62733000D01*
X176685113Y-63927000D02*
X176685113Y-62573000D01*
X176725113Y-64055000D02*
X176725113Y-62445000D01*
X176765113Y-64164000D02*
X176765113Y-62336000D01*
X176805113Y-64261000D02*
X176805113Y-62239000D01*
X176845113Y-64348000D02*
X176845113Y-62152000D01*
X176885113Y-64427000D02*
X176885113Y-62073000D01*
X176925113Y-64501000D02*
X176925113Y-61999000D01*
X176965113Y-64569000D02*
X176965113Y-61931000D01*
X177005113Y-64633000D02*
X177005113Y-61867000D01*
X177045113Y-64693000D02*
X177045113Y-61807000D01*
X177085113Y-64749000D02*
X177085113Y-61751000D01*
X177125113Y-64803000D02*
X177125113Y-61697000D01*
X177165113Y-64854000D02*
X177165113Y-61646000D01*
X177205113Y-62210000D02*
X177205113Y-61598000D01*
X177205113Y-64902000D02*
X177205113Y-64290000D01*
X177245113Y-62210000D02*
X177245113Y-61551000D01*
X177245113Y-64949000D02*
X177245113Y-64290000D01*
X177285113Y-62210000D02*
X177285113Y-61507000D01*
X177285113Y-64993000D02*
X177285113Y-64290000D01*
X177325113Y-62210000D02*
X177325113Y-61465000D01*
X177325113Y-65035000D02*
X177325113Y-64290000D01*
X177365113Y-62210000D02*
X177365113Y-61425000D01*
X177365113Y-65075000D02*
X177365113Y-64290000D01*
X177405113Y-62210000D02*
X177405113Y-61386000D01*
X177405113Y-65114000D02*
X177405113Y-64290000D01*
X177445113Y-62210000D02*
X177445113Y-61349000D01*
X177445113Y-65151000D02*
X177445113Y-64290000D01*
X177485113Y-62210000D02*
X177485113Y-61314000D01*
X177485113Y-65186000D02*
X177485113Y-64290000D01*
X177525113Y-62210000D02*
X177525113Y-61280000D01*
X177525113Y-65220000D02*
X177525113Y-64290000D01*
X177565113Y-62210000D02*
X177565113Y-61247000D01*
X177565113Y-65253000D02*
X177565113Y-64290000D01*
X177605113Y-62210000D02*
X177605113Y-61215000D01*
X177605113Y-65285000D02*
X177605113Y-64290000D01*
X177645113Y-62210000D02*
X177645113Y-61185000D01*
X177645113Y-65315000D02*
X177645113Y-64290000D01*
X177685113Y-62210000D02*
X177685113Y-61156000D01*
X177685113Y-65344000D02*
X177685113Y-64290000D01*
X177725113Y-62210000D02*
X177725113Y-61128000D01*
X177725113Y-65372000D02*
X177725113Y-64290000D01*
X177765113Y-62210000D02*
X177765113Y-61101000D01*
X177765113Y-65399000D02*
X177765113Y-64290000D01*
X177805113Y-62210000D02*
X177805113Y-61075000D01*
X177805113Y-65425000D02*
X177805113Y-64290000D01*
X177845113Y-62210000D02*
X177845113Y-61051000D01*
X177845113Y-65449000D02*
X177845113Y-64290000D01*
X177885113Y-62210000D02*
X177885113Y-61027000D01*
X177885113Y-65473000D02*
X177885113Y-64290000D01*
X177925113Y-62210000D02*
X177925113Y-61004000D01*
X177925113Y-65496000D02*
X177925113Y-64290000D01*
X177965113Y-62210000D02*
X177965113Y-60982000D01*
X177965113Y-65518000D02*
X177965113Y-64290000D01*
X178005113Y-62210000D02*
X178005113Y-60961000D01*
X178005113Y-65539000D02*
X178005113Y-64290000D01*
X178045113Y-62210000D02*
X178045113Y-60941000D01*
X178045113Y-65559000D02*
X178045113Y-64290000D01*
X178085113Y-62210000D02*
X178085113Y-60921000D01*
X178085113Y-65579000D02*
X178085113Y-64290000D01*
X178125113Y-62210000D02*
X178125113Y-60903000D01*
X178125113Y-65597000D02*
X178125113Y-64290000D01*
X178165113Y-62210000D02*
X178165113Y-60885000D01*
X178165113Y-65615000D02*
X178165113Y-64290000D01*
X178205113Y-62210000D02*
X178205113Y-60868000D01*
X178205113Y-65632000D02*
X178205113Y-64290000D01*
X178245113Y-62210000D02*
X178245113Y-60852000D01*
X178245113Y-65648000D02*
X178245113Y-64290000D01*
X178285113Y-62210000D02*
X178285113Y-60837000D01*
X178285113Y-65663000D02*
X178285113Y-64290000D01*
X178325113Y-62210000D02*
X178325113Y-60822000D01*
X178325113Y-65678000D02*
X178325113Y-64290000D01*
X178365113Y-62210000D02*
X178365113Y-60808000D01*
X178365113Y-65692000D02*
X178365113Y-64290000D01*
X178405113Y-62210000D02*
X178405113Y-60795000D01*
X178405113Y-65705000D02*
X178405113Y-64290000D01*
X178445113Y-62210000D02*
X178445113Y-60783000D01*
X178445113Y-65717000D02*
X178445113Y-64290000D01*
X178485113Y-62210000D02*
X178485113Y-60771000D01*
X178485113Y-65729000D02*
X178485113Y-64290000D01*
X178525113Y-62210000D02*
X178525113Y-60760000D01*
X178525113Y-65740000D02*
X178525113Y-64290000D01*
X178565113Y-62210000D02*
X178565113Y-60749000D01*
X178565113Y-65751000D02*
X178565113Y-64290000D01*
X178605113Y-62210000D02*
X178605113Y-60740000D01*
X178605113Y-65760000D02*
X178605113Y-64290000D01*
X178645113Y-62210000D02*
X178645113Y-60731000D01*
X178645113Y-65769000D02*
X178645113Y-64290000D01*
X178685113Y-62210000D02*
X178685113Y-60722000D01*
X178685113Y-65778000D02*
X178685113Y-64290000D01*
X178725113Y-62210000D02*
X178725113Y-60714000D01*
X178725113Y-65786000D02*
X178725113Y-64290000D01*
X178765113Y-62210000D02*
X178765113Y-60707000D01*
X178765113Y-65793000D02*
X178765113Y-64290000D01*
X178805113Y-62210000D02*
X178805113Y-60701000D01*
X178805113Y-65799000D02*
X178805113Y-64290000D01*
X178845113Y-62210000D02*
X178845113Y-60695000D01*
X178845113Y-65805000D02*
X178845113Y-64290000D01*
X178885113Y-62210000D02*
X178885113Y-60690000D01*
X178885113Y-65810000D02*
X178885113Y-64290000D01*
X178925113Y-62210000D02*
X178925113Y-60685000D01*
X178925113Y-65815000D02*
X178925113Y-64290000D01*
X178965113Y-62210000D02*
X178965113Y-60681000D01*
X178965113Y-65819000D02*
X178965113Y-64290000D01*
X179005113Y-62210000D02*
X179005113Y-60678000D01*
X179005113Y-65822000D02*
X179005113Y-64290000D01*
X179045113Y-62210000D02*
X179045113Y-60675000D01*
X179045113Y-65825000D02*
X179045113Y-64290000D01*
X179085113Y-62210000D02*
X179085113Y-60673000D01*
X179085113Y-65827000D02*
X179085113Y-64290000D01*
X179125113Y-62210000D02*
X179125113Y-60671000D01*
X179125113Y-65829000D02*
X179125113Y-64290000D01*
X179165113Y-62210000D02*
X179165113Y-60670000D01*
X179165113Y-65830000D02*
X179165113Y-64290000D01*
X179205113Y-62210000D02*
X179205113Y-60670000D01*
X179205113Y-65830000D02*
X179205113Y-64290000D01*
X181759888Y-64975000D02*
X181759888Y-64475000D01*
X182009888Y-64725000D02*
X181509888Y-64725000D01*
X181825113Y-63250000D02*
G75*
G02*
X176585113Y-63250000I-2620000J0D01*
G01*
X176585113Y-63250000D02*
G75*
G02*
X181825113Y-63250000I2620000J0D01*
G01*
%TO.C,C3*%
X194130000Y-63630000D02*
X194467000Y-63630000D01*
X194130000Y-68870000D02*
X194130000Y-63630000D01*
X194467000Y-68870000D02*
X194130000Y-68870000D01*
X196533000Y-63630000D02*
X196870000Y-63630000D01*
X196870000Y-63630000D02*
X196870000Y-68870000D01*
X196870000Y-68870000D02*
X196533000Y-68870000D01*
%TO.C,J1*%
X41700000Y-57450000D02*
X41700000Y-56400000D01*
X41900000Y-56600000D02*
X44500000Y-56600000D01*
X41900000Y-71300000D02*
X41900000Y-56600000D01*
X42750000Y-56400000D02*
X41700000Y-56400000D01*
X48400000Y-56600000D02*
X51100000Y-56600000D01*
X51100000Y-56600000D02*
X51100000Y-58500000D01*
X51100000Y-62500000D02*
X51100000Y-71300000D01*
X51100000Y-71300000D02*
X41900000Y-71300000D01*
%TO.C,J2*%
X132500000Y-71430000D02*
X132500000Y-72030000D01*
X133300000Y-67010000D02*
X133300000Y-66010000D01*
X133550000Y-66010000D02*
X133550000Y-67010000D01*
X133550000Y-67540000D02*
X133300000Y-67010000D01*
X134100000Y-71430000D02*
X132500000Y-71430000D01*
X134100000Y-72030000D02*
X134100000Y-71430000D01*
X135040000Y-71430000D02*
X135040000Y-72030000D01*
X136640000Y-71430000D02*
X135040000Y-71430000D01*
X136640000Y-72030000D02*
X136640000Y-71430000D01*
X137580000Y-71430000D02*
X137580000Y-72030000D01*
X139180000Y-71430000D02*
X137580000Y-71430000D01*
X139180000Y-72030000D02*
X139180000Y-71430000D01*
X140120000Y-71430000D02*
X140120000Y-72030000D01*
X141720000Y-71430000D02*
X140120000Y-71430000D01*
X141720000Y-72030000D02*
X141720000Y-71430000D01*
X142660000Y-71430000D02*
X142660000Y-72030000D01*
X144260000Y-71430000D02*
X142660000Y-71430000D01*
X144260000Y-72030000D02*
X144260000Y-71430000D01*
X145200000Y-71430000D02*
X145200000Y-72030000D01*
X145750000Y-66010000D02*
X145750000Y-67010000D01*
X145750000Y-67540000D02*
X133550000Y-67540000D01*
X146000000Y-66010000D02*
X146000000Y-67010000D01*
X146000000Y-67010000D02*
X133300000Y-67010000D01*
X146000000Y-67010000D02*
X145750000Y-67540000D01*
X146800000Y-71430000D02*
X145200000Y-71430000D01*
X146800000Y-72030000D02*
X146800000Y-71430000D01*
X147670000Y-71000000D02*
X147670000Y-67000000D01*
X147380000Y-72030000D02*
X131920000Y-72030000D01*
X131920000Y-66010000D01*
X147380000Y-66010000D01*
X147380000Y-72030000D01*
%TO.C,C1*%
X55740113Y-59025000D02*
X56240113Y-59025000D01*
X55990113Y-58775000D02*
X55990113Y-59275000D01*
X58544888Y-57920000D02*
X58544888Y-59460000D01*
X58544888Y-61540000D02*
X58544888Y-63080000D01*
X58584888Y-57920000D02*
X58584888Y-59460000D01*
X58584888Y-61540000D02*
X58584888Y-63080000D01*
X58624888Y-57921000D02*
X58624888Y-59460000D01*
X58624888Y-61540000D02*
X58624888Y-63079000D01*
X58664888Y-57923000D02*
X58664888Y-59460000D01*
X58664888Y-61540000D02*
X58664888Y-63077000D01*
X58704888Y-57925000D02*
X58704888Y-59460000D01*
X58704888Y-61540000D02*
X58704888Y-63075000D01*
X58744888Y-57928000D02*
X58744888Y-59460000D01*
X58744888Y-61540000D02*
X58744888Y-63072000D01*
X58784888Y-57931000D02*
X58784888Y-59460000D01*
X58784888Y-61540000D02*
X58784888Y-63069000D01*
X58824888Y-57935000D02*
X58824888Y-59460000D01*
X58824888Y-61540000D02*
X58824888Y-63065000D01*
X58864888Y-57940000D02*
X58864888Y-59460000D01*
X58864888Y-61540000D02*
X58864888Y-63060000D01*
X58904888Y-57945000D02*
X58904888Y-59460000D01*
X58904888Y-61540000D02*
X58904888Y-63055000D01*
X58944888Y-57951000D02*
X58944888Y-59460000D01*
X58944888Y-61540000D02*
X58944888Y-63049000D01*
X58984888Y-57957000D02*
X58984888Y-59460000D01*
X58984888Y-61540000D02*
X58984888Y-63043000D01*
X59024888Y-57964000D02*
X59024888Y-59460000D01*
X59024888Y-61540000D02*
X59024888Y-63036000D01*
X59064888Y-57972000D02*
X59064888Y-59460000D01*
X59064888Y-61540000D02*
X59064888Y-63028000D01*
X59104888Y-57981000D02*
X59104888Y-59460000D01*
X59104888Y-61540000D02*
X59104888Y-63019000D01*
X59144888Y-57990000D02*
X59144888Y-59460000D01*
X59144888Y-61540000D02*
X59144888Y-63010000D01*
X59184888Y-57999000D02*
X59184888Y-59460000D01*
X59184888Y-61540000D02*
X59184888Y-63001000D01*
X59224888Y-58010000D02*
X59224888Y-59460000D01*
X59224888Y-61540000D02*
X59224888Y-62990000D01*
X59264888Y-58021000D02*
X59264888Y-59460000D01*
X59264888Y-61540000D02*
X59264888Y-62979000D01*
X59304888Y-58033000D02*
X59304888Y-59460000D01*
X59304888Y-61540000D02*
X59304888Y-62967000D01*
X59344888Y-58045000D02*
X59344888Y-59460000D01*
X59344888Y-61540000D02*
X59344888Y-62955000D01*
X59384888Y-58058000D02*
X59384888Y-59460000D01*
X59384888Y-61540000D02*
X59384888Y-62942000D01*
X59424888Y-58072000D02*
X59424888Y-59460000D01*
X59424888Y-61540000D02*
X59424888Y-62928000D01*
X59464888Y-58087000D02*
X59464888Y-59460000D01*
X59464888Y-61540000D02*
X59464888Y-62913000D01*
X59504888Y-58102000D02*
X59504888Y-59460000D01*
X59504888Y-61540000D02*
X59504888Y-62898000D01*
X59544888Y-58118000D02*
X59544888Y-59460000D01*
X59544888Y-61540000D02*
X59544888Y-62882000D01*
X59584888Y-58135000D02*
X59584888Y-59460000D01*
X59584888Y-61540000D02*
X59584888Y-62865000D01*
X59624888Y-58153000D02*
X59624888Y-59460000D01*
X59624888Y-61540000D02*
X59624888Y-62847000D01*
X59664888Y-58171000D02*
X59664888Y-59460000D01*
X59664888Y-61540000D02*
X59664888Y-62829000D01*
X59704888Y-58191000D02*
X59704888Y-59460000D01*
X59704888Y-61540000D02*
X59704888Y-62809000D01*
X59744888Y-58211000D02*
X59744888Y-59460000D01*
X59744888Y-61540000D02*
X59744888Y-62789000D01*
X59784888Y-58232000D02*
X59784888Y-59460000D01*
X59784888Y-61540000D02*
X59784888Y-62768000D01*
X59824888Y-58254000D02*
X59824888Y-59460000D01*
X59824888Y-61540000D02*
X59824888Y-62746000D01*
X59864888Y-58277000D02*
X59864888Y-59460000D01*
X59864888Y-61540000D02*
X59864888Y-62723000D01*
X59904888Y-58301000D02*
X59904888Y-59460000D01*
X59904888Y-61540000D02*
X59904888Y-62699000D01*
X59944888Y-58325000D02*
X59944888Y-59460000D01*
X59944888Y-61540000D02*
X59944888Y-62675000D01*
X59984888Y-58351000D02*
X59984888Y-59460000D01*
X59984888Y-61540000D02*
X59984888Y-62649000D01*
X60024888Y-58378000D02*
X60024888Y-59460000D01*
X60024888Y-61540000D02*
X60024888Y-62622000D01*
X60064888Y-58406000D02*
X60064888Y-59460000D01*
X60064888Y-61540000D02*
X60064888Y-62594000D01*
X60104888Y-58435000D02*
X60104888Y-59460000D01*
X60104888Y-61540000D02*
X60104888Y-62565000D01*
X60144888Y-58465000D02*
X60144888Y-59460000D01*
X60144888Y-61540000D02*
X60144888Y-62535000D01*
X60184888Y-58497000D02*
X60184888Y-59460000D01*
X60184888Y-61540000D02*
X60184888Y-62503000D01*
X60224888Y-58530000D02*
X60224888Y-59460000D01*
X60224888Y-61540000D02*
X60224888Y-62470000D01*
X60264888Y-58564000D02*
X60264888Y-59460000D01*
X60264888Y-61540000D02*
X60264888Y-62436000D01*
X60304888Y-58599000D02*
X60304888Y-59460000D01*
X60304888Y-61540000D02*
X60304888Y-62401000D01*
X60344888Y-58636000D02*
X60344888Y-59460000D01*
X60344888Y-61540000D02*
X60344888Y-62364000D01*
X60384888Y-58675000D02*
X60384888Y-59460000D01*
X60384888Y-61540000D02*
X60384888Y-62325000D01*
X60424888Y-58715000D02*
X60424888Y-59460000D01*
X60424888Y-61540000D02*
X60424888Y-62285000D01*
X60464888Y-58757000D02*
X60464888Y-59460000D01*
X60464888Y-61540000D02*
X60464888Y-62243000D01*
X60504888Y-58801000D02*
X60504888Y-59460000D01*
X60504888Y-61540000D02*
X60504888Y-62199000D01*
X60544888Y-58848000D02*
X60544888Y-59460000D01*
X60544888Y-61540000D02*
X60544888Y-62152000D01*
X60584888Y-58896000D02*
X60584888Y-62104000D01*
X60624888Y-58947000D02*
X60624888Y-62053000D01*
X60664888Y-59001000D02*
X60664888Y-61999000D01*
X60704888Y-59057000D02*
X60704888Y-61943000D01*
X60744888Y-59117000D02*
X60744888Y-61883000D01*
X60784888Y-59181000D02*
X60784888Y-61819000D01*
X60824888Y-59249000D02*
X60824888Y-61751000D01*
X60864888Y-59323000D02*
X60864888Y-61677000D01*
X60904888Y-59402000D02*
X60904888Y-61598000D01*
X60944888Y-59489000D02*
X60944888Y-61511000D01*
X60984888Y-59586000D02*
X60984888Y-61414000D01*
X61024888Y-59695000D02*
X61024888Y-61305000D01*
X61064888Y-59823000D02*
X61064888Y-61177000D01*
X61104888Y-59983000D02*
X61104888Y-61017000D01*
X61144888Y-60217000D02*
X61144888Y-60783000D01*
X61164888Y-60500000D02*
G75*
G02*
X55924888Y-60500000I-2620000J0D01*
G01*
X55924888Y-60500000D02*
G75*
G02*
X61164888Y-60500000I2620000J0D01*
G01*
%TO.C,C7*%
X171380000Y-53130000D02*
X171717000Y-53130000D01*
X171380000Y-58370000D02*
X171380000Y-53130000D01*
X171717000Y-58370000D02*
X171380000Y-58370000D01*
X173783000Y-53130000D02*
X174120000Y-53130000D01*
X174120000Y-53130000D02*
X174120000Y-58370000D01*
X174120000Y-58370000D02*
X173783000Y-58370000D01*
%TO.C,U3*%
X139050000Y-58040000D02*
X139050000Y-59690000D01*
X139050000Y-61690000D02*
X139050000Y-63340000D01*
X139050000Y-63340000D02*
X159490000Y-63340000D01*
X159490000Y-58040000D02*
X139050000Y-58040000D01*
X159490000Y-63340000D02*
X159490000Y-58040000D01*
X139050000Y-59690000D02*
G75*
G02*
X139050000Y-61690000I0J-1000000D01*
G01*
%TD*%
M02*
