%TF.GenerationSoftware,KiCad,Pcbnew,9.0.7*%
%TF.CreationDate,2026-04-03T17:45:58+02:00*%
%TF.ProjectId,meowpass_0.2,6d656f77-7061-4737-935f-302e322e6b69,rev?*%
%TF.SameCoordinates,Original*%
%TF.FileFunction,Copper,L2,Inr*%
%TF.FilePolarity,Positive*%
%FSLAX46Y46*%
G04 Gerber Fmt 4.6, Leading zero omitted, Abs format (unit mm)*
G04 Created by KiCad (PCBNEW 9.0.7) date 2026-04-03 17:45:58*
%MOMM*%
%LPD*%
G01*
G04 APERTURE LIST*
G04 Aperture macros list*
%AMRoundRect*
0 Rectangle with rounded corners*
0 $1 Rounding radius*
0 $2 $3 $4 $5 $6 $7 $8 $9 X,Y pos of 4 corners*
0 Add a 4 corners polygon primitive as box body*
4,1,4,$2,$3,$4,$5,$6,$7,$8,$9,$2,$3,0*
0 Add four circle primitives for the rounded corners*
1,1,$1+$1,$2,$3*
1,1,$1+$1,$4,$5*
1,1,$1+$1,$6,$7*
1,1,$1+$1,$8,$9*
0 Add four rect primitives between the rounded corners*
20,1,$1+$1,$2,$3,$4,$5,0*
20,1,$1+$1,$4,$5,$6,$7,0*
20,1,$1+$1,$6,$7,$8,$9,0*
20,1,$1+$1,$8,$9,$2,$3,0*%
G04 Aperture macros list end*
%TA.AperFunction,ComponentPad*%
%ADD10C,1.600000*%
%TD*%
%TA.AperFunction,ComponentPad*%
%ADD11RoundRect,0.250000X-0.550000X0.550000X-0.550000X-0.550000X0.550000X-0.550000X0.550000X0.550000X0*%
%TD*%
%TA.AperFunction,ComponentPad*%
%ADD12C,1.524000*%
%TD*%
%TA.AperFunction,ComponentPad*%
%ADD13C,2.600000*%
%TD*%
%TA.AperFunction,ComponentPad*%
%ADD14R,1.600000X1.600000*%
%TD*%
%TA.AperFunction,ComponentPad*%
%ADD15O,1.600000X1.600000*%
%TD*%
%TA.AperFunction,ComponentPad*%
%ADD16RoundRect,0.250000X0.845000X-0.620000X0.845000X0.620000X-0.845000X0.620000X-0.845000X-0.620000X0*%
%TD*%
%TA.AperFunction,ComponentPad*%
%ADD17O,2.190000X1.740000*%
%TD*%
%TA.AperFunction,ComponentPad*%
%ADD18C,1.700000*%
%TD*%
%TA.AperFunction,ComponentPad*%
%ADD19R,1.905000X2.000000*%
%TD*%
%TA.AperFunction,ComponentPad*%
%ADD20O,1.905000X2.000000*%
%TD*%
%TA.AperFunction,ComponentPad*%
%ADD21RoundRect,0.250000X0.550000X0.550000X-0.550000X0.550000X-0.550000X-0.550000X0.550000X-0.550000X0*%
%TD*%
%TA.AperFunction,ComponentPad*%
%ADD22R,3.500000X3.500000*%
%TD*%
%TA.AperFunction,ComponentPad*%
%ADD23RoundRect,0.750000X1.000000X-0.750000X1.000000X0.750000X-1.000000X0.750000X-1.000000X-0.750000X0*%
%TD*%
%TA.AperFunction,ComponentPad*%
%ADD24RoundRect,0.875000X0.875000X-0.875000X0.875000X0.875000X-0.875000X0.875000X-0.875000X-0.875000X0*%
%TD*%
%TA.AperFunction,ComponentPad*%
%ADD25RoundRect,0.250000X0.620000X0.845000X-0.620000X0.845000X-0.620000X-0.845000X0.620000X-0.845000X0*%
%TD*%
%TA.AperFunction,ComponentPad*%
%ADD26O,1.740000X2.190000*%
%TD*%
%TA.AperFunction,ComponentPad*%
%ADD27RoundRect,0.250000X-0.550000X-0.550000X0.550000X-0.550000X0.550000X0.550000X-0.550000X0.550000X0*%
%TD*%
%TA.AperFunction,ComponentPad*%
%ADD28RoundRect,0.250000X0.550000X-0.550000X0.550000X0.550000X-0.550000X0.550000X-0.550000X-0.550000X0*%
%TD*%
%TA.AperFunction,ViaPad*%
%ADD29C,0.600000*%
%TD*%
G04 APERTURE END LIST*
D10*
%TO.N,+5V*%
%TO.C,C4*%
X136750000Y-57000000D03*
%TO.N,GND*%
X131750000Y-57000000D03*
%TD*%
D11*
%TO.N,+12V*%
%TO.C,C6*%
X168000000Y-53250000D03*
D10*
%TO.N,GND*%
X168000000Y-55250000D03*
%TD*%
D12*
%TO.N,/RFID data*%
%TO.C,U1*%
X111300000Y-69740000D03*
%TO.N,/GPIO1*%
X113840000Y-69740000D03*
%TO.N,/GPIO2*%
X116380000Y-69740000D03*
%TO.N,/GPIO21*%
X118920000Y-69740000D03*
%TO.N,/GPIO22*%
X121460000Y-69740000D03*
%TO.N,unconnected-(U1-GPIO23{slash}D5{slash}SCL-Pad6)*%
X124000000Y-69740000D03*
%TO.N,unconnected-(U1-GPIO16{slash}D6{slash}TX-Pad7)_1*%
X126540000Y-69740000D03*
%TO.N,unconnected-(U1-GPIO17{slash}D7{slash}RX-Pad8)*%
X126540000Y-54500000D03*
%TO.N,unconnected-(U1-GPIO19{slash}D8{slash}SCK-Pad9)*%
X124000000Y-54500000D03*
%TO.N,unconnected-(U1-GPIO20{slash}D9{slash}MISO-Pad10)_1*%
X121460000Y-54500000D03*
%TO.N,unconnected-(U1-GPIO18{slash}D10{slash}MOSI-Pad11)_1*%
X118920000Y-54500000D03*
%TO.N,unconnected-(U1-3V3-Pad12)*%
X116380000Y-54500000D03*
%TO.N,GND*%
X113840000Y-54500000D03*
%TO.N,+5V*%
X111300000Y-54500000D03*
%TD*%
D13*
%TO.N,+12V*%
%TO.C,L1*%
X177250000Y-55750000D03*
%TO.N,Net-(U4-IN)*%
X182250000Y-55750000D03*
%TD*%
D10*
%TO.N,+12V*%
%TO.C,C5*%
X162500000Y-64500000D03*
%TO.N,GND*%
X162500000Y-59500000D03*
%TD*%
%TO.N,GND*%
%TO.C,C2*%
X195500000Y-56000000D03*
%TO.N,+9V*%
X195500000Y-61000000D03*
%TD*%
D14*
%TO.N,+12V*%
%TO.C,U2*%
X64840000Y-68072000D03*
X64840000Y-70612000D03*
D15*
%TO.N,GND*%
X64814600Y-59817000D03*
X64840000Y-57277000D03*
D14*
%TO.N,+5V*%
X83636000Y-68199000D03*
X83636000Y-70739000D03*
D15*
%TO.N,GND*%
X83737600Y-59817000D03*
X83763000Y-57277000D03*
%TD*%
D16*
%TO.N,Net-(J3-Pin_1)*%
%TO.C,J3*%
X192520000Y-84525000D03*
D17*
%TO.N,Net-(J3-Pin_2)*%
X192520000Y-81985000D03*
%TD*%
D10*
%TO.N,Net-(U4-IN)*%
%TO.C,C8*%
X181000000Y-68000000D03*
%TO.N,GND*%
X176000000Y-68000000D03*
%TD*%
D18*
%TO.N,Net-(J3-Pin_2)*%
%TO.C,RFID1*%
X231530000Y-81960000D03*
%TO.N,Net-(J3-Pin_1)*%
X231530000Y-84500000D03*
%TO.N,GND*%
X199380000Y-68620000D03*
X207000000Y-61000000D03*
%TO.N,unconnected-(RFID1-5vTX-Pad4)*%
X199380000Y-66080000D03*
%TO.N,unconnected-(RFID1-RST-Pad5)*%
X199380000Y-63540000D03*
%TO.N,+9V*%
X199380000Y-61000000D03*
%TO.N,unconnected-(RFID1-5V+10R-Pad7)*%
X201920000Y-61000000D03*
%TO.N,/RFID data*%
X204460000Y-61000000D03*
%TD*%
D19*
%TO.N,Net-(U4-IN)*%
%TO.C,U4*%
X185460000Y-67200000D03*
D20*
%TO.N,GND*%
X188000000Y-67200000D03*
%TO.N,+9V*%
X190540000Y-67200000D03*
%TD*%
D10*
%TO.N,Net-(U3-EN1\u002C2)*%
%TO.C,R2*%
X158160000Y-53750000D03*
%TO.N,+5V*%
X148000000Y-53750000D03*
%TD*%
D21*
%TO.N,Net-(U4-IN)*%
%TO.C,C9*%
X180205113Y-63250000D03*
D10*
%TO.N,GND*%
X178205113Y-63250000D03*
%TD*%
%TO.N,GND*%
%TO.C,C3*%
X195500000Y-68750000D03*
%TO.N,+9V*%
X195500000Y-63750000D03*
%TD*%
D22*
%TO.N,+12V*%
%TO.C,J1*%
X46500000Y-57500000D03*
D23*
%TO.N,GND*%
X46500000Y-63500000D03*
D24*
%TO.N,N/C*%
X51200000Y-60500000D03*
%TD*%
D25*
%TO.N,unconnected-(J2-Pin_1-Pad1)*%
%TO.C,J2*%
X146000000Y-69000000D03*
D26*
%TO.N,Net-(J2-Pin_2)*%
X143460000Y-69000000D03*
%TO.N,Net-(J2-Pin_3)*%
X140920000Y-69000000D03*
%TO.N,Net-(J2-Pin_4)*%
X138380000Y-69000000D03*
%TO.N,Net-(J2-Pin_5)*%
X135840000Y-69000000D03*
%TO.N,unconnected-(J2-Pin_6-Pad6)*%
X133300000Y-69000000D03*
%TD*%
D27*
%TO.N,+12V*%
%TO.C,C1*%
X57544888Y-60500000D03*
D10*
%TO.N,GND*%
X59544888Y-60500000D03*
%TD*%
%TO.N,+12V*%
%TO.C,C7*%
X172750000Y-53250000D03*
%TO.N,GND*%
X172750000Y-58250000D03*
%TD*%
D28*
%TO.N,Net-(U3-EN1\u002C2)*%
%TO.C,U3*%
X140380000Y-64500000D03*
D10*
%TO.N,/GPIO22*%
X142920000Y-64500000D03*
%TO.N,Net-(J2-Pin_3)*%
X145460000Y-64500000D03*
%TO.N,GND*%
X148000000Y-64500000D03*
X150540000Y-64500000D03*
%TO.N,Net-(J2-Pin_2)*%
X153080000Y-64500000D03*
%TO.N,/GPIO21*%
X155620000Y-64500000D03*
%TO.N,+12V*%
X158160000Y-64500000D03*
%TO.N,Net-(U3-EN1\u002C2)*%
X158160000Y-56880000D03*
%TO.N,/GPIO2*%
X155620000Y-56880000D03*
%TO.N,Net-(J2-Pin_4)*%
X153080000Y-56880000D03*
%TO.N,GND*%
X150540000Y-56880000D03*
X148000000Y-56880000D03*
%TO.N,Net-(J2-Pin_5)*%
X145460000Y-56880000D03*
%TO.N,/GPIO1*%
X142920000Y-56880000D03*
%TO.N,+5V*%
X140380000Y-56880000D03*
%TD*%
D29*
%TO.N,GND*%
X182000000Y-71500000D03*
X162000000Y-61500000D03*
X72000000Y-51500000D03*
X92000000Y-63250000D03*
X42000000Y-71500000D03*
X62000000Y-71500000D03*
X149250000Y-63750000D03*
X52000000Y-51500000D03*
X149250000Y-65000000D03*
X62000000Y-51500000D03*
X192000000Y-71500000D03*
X172000000Y-61500000D03*
X148750000Y-65750000D03*
X222000000Y-61500000D03*
X72000000Y-71500000D03*
X147750000Y-58250000D03*
X152000000Y-71500000D03*
X149250000Y-56250000D03*
X212000000Y-71500000D03*
X62000000Y-61500000D03*
X149250000Y-57750000D03*
X147000000Y-57750000D03*
X147000000Y-63750000D03*
X82000000Y-71500000D03*
X52000000Y-71500000D03*
X132000000Y-71500000D03*
X232000000Y-51500000D03*
X42000000Y-51500000D03*
X212000000Y-51500000D03*
X148500000Y-63250000D03*
X102000000Y-61500000D03*
X232000000Y-71500000D03*
X92000000Y-54250000D03*
X149750000Y-55750000D03*
X222000000Y-71500000D03*
X150000000Y-58250000D03*
X149750000Y-65750000D03*
X138500000Y-53750000D03*
X142000000Y-71500000D03*
X202000000Y-71500000D03*
X172000000Y-71500000D03*
X232000000Y-61500000D03*
X112000000Y-61500000D03*
X212000000Y-61500000D03*
X151000000Y-58250000D03*
X151000000Y-63250000D03*
X192000000Y-61500000D03*
X102000000Y-71500000D03*
X162000000Y-71500000D03*
X92000000Y-71500000D03*
X148500000Y-58250000D03*
X202000000Y-51500000D03*
X82000000Y-61500000D03*
X182000000Y-61500000D03*
X150000000Y-63250000D03*
X42000000Y-61500000D03*
X222000000Y-51500000D03*
X151750000Y-63750000D03*
X147500000Y-63250000D03*
X151750000Y-57750000D03*
X133250000Y-64500000D03*
X148750000Y-55650000D03*
%TD*%
%TA.AperFunction,Conductor*%
%TO.N,GND*%
G36*
X65090000Y-58630238D02*
G01*
X65070315Y-58697277D01*
X65064600Y-58704369D01*
X65064600Y-59501314D01*
X65060206Y-59496920D01*
X64968994Y-59444259D01*
X64867261Y-59417000D01*
X64761939Y-59417000D01*
X64660206Y-59444259D01*
X64568994Y-59496920D01*
X64564600Y-59501314D01*
X64564600Y-58463762D01*
X64584285Y-58396723D01*
X64590000Y-58389630D01*
X64590000Y-57592686D01*
X64594394Y-57597080D01*
X64685606Y-57649741D01*
X64787339Y-57677000D01*
X64892661Y-57677000D01*
X64994394Y-57649741D01*
X65085606Y-57597080D01*
X65090000Y-57592686D01*
X65090000Y-58630238D01*
G37*
%TD.AperFunction*%
%TA.AperFunction,Conductor*%
G36*
X84013000Y-58630238D02*
G01*
X83993315Y-58697277D01*
X83987600Y-58704369D01*
X83987600Y-59501314D01*
X83983206Y-59496920D01*
X83891994Y-59444259D01*
X83790261Y-59417000D01*
X83684939Y-59417000D01*
X83583206Y-59444259D01*
X83491994Y-59496920D01*
X83487600Y-59501314D01*
X83487600Y-58463762D01*
X83507285Y-58396723D01*
X83513000Y-58389630D01*
X83513000Y-57592686D01*
X83517394Y-57597080D01*
X83608606Y-57649741D01*
X83710339Y-57677000D01*
X83815661Y-57677000D01*
X83917394Y-57649741D01*
X84008606Y-57597080D01*
X84013000Y-57592686D01*
X84013000Y-58630238D01*
G37*
%TD.AperFunction*%
%TA.AperFunction,Conductor*%
G36*
X233942539Y-50520185D02*
G01*
X233988294Y-50572989D01*
X233999500Y-50624500D01*
X233999500Y-75720358D01*
X233979815Y-75787397D01*
X233927011Y-75833152D01*
X233875349Y-75844358D01*
X189624349Y-75790590D01*
X189557334Y-75770824D01*
X189511643Y-75717964D01*
X189500500Y-75666590D01*
X189500500Y-72434110D01*
X189500500Y-72434108D01*
X189466392Y-72306814D01*
X189400500Y-72192686D01*
X189307314Y-72099500D01*
X189250250Y-72066554D01*
X189193187Y-72033608D01*
X189129539Y-72016554D01*
X189065892Y-71999500D01*
X189065891Y-71999500D01*
X84964197Y-71999500D01*
X84897158Y-71979815D01*
X84851403Y-71927011D01*
X84841459Y-71857853D01*
X84864931Y-71801188D01*
X84879796Y-71781331D01*
X84930091Y-71646483D01*
X84936500Y-71586873D01*
X84936499Y-69891128D01*
X84930091Y-69831517D01*
X84908871Y-69774624D01*
X84881844Y-69702159D01*
X84881843Y-69702158D01*
X84879796Y-69696669D01*
X84837852Y-69640639D01*
X110037500Y-69640639D01*
X110037500Y-69839361D01*
X110052926Y-69936757D01*
X110068587Y-70035637D01*
X110129993Y-70224629D01*
X110129994Y-70224632D01*
X110217901Y-70397156D01*
X110220213Y-70401694D01*
X110337019Y-70562464D01*
X110477536Y-70702981D01*
X110638306Y-70819787D01*
X110725149Y-70864035D01*
X110815367Y-70910005D01*
X110815370Y-70910006D01*
X110909866Y-70940709D01*
X111004364Y-70971413D01*
X111200639Y-71002500D01*
X111200640Y-71002500D01*
X111399360Y-71002500D01*
X111399361Y-71002500D01*
X111595636Y-70971413D01*
X111784632Y-70910005D01*
X111961694Y-70819787D01*
X112122464Y-70702981D01*
X112262981Y-70562464D01*
X112379787Y-70401694D01*
X112459515Y-70245218D01*
X112507490Y-70194423D01*
X112575311Y-70177628D01*
X112641446Y-70200165D01*
X112680484Y-70245218D01*
X112760213Y-70401694D01*
X112877019Y-70562464D01*
X113017536Y-70702981D01*
X113178306Y-70819787D01*
X113265149Y-70864035D01*
X113355367Y-70910005D01*
X113355370Y-70910006D01*
X113449866Y-70940709D01*
X113544364Y-70971413D01*
X113740639Y-71002500D01*
X113740640Y-71002500D01*
X113939360Y-71002500D01*
X113939361Y-71002500D01*
X114135636Y-70971413D01*
X114324632Y-70910005D01*
X114501694Y-70819787D01*
X114662464Y-70702981D01*
X114802981Y-70562464D01*
X114919787Y-70401694D01*
X114999515Y-70245218D01*
X115047490Y-70194423D01*
X115115311Y-70177628D01*
X115181446Y-70200165D01*
X115220484Y-70245218D01*
X115300213Y-70401694D01*
X115417019Y-70562464D01*
X115557536Y-70702981D01*
X115718306Y-70819787D01*
X115805149Y-70864035D01*
X115895367Y-70910005D01*
X115895370Y-70910006D01*
X115989866Y-70940709D01*
X116084364Y-70971413D01*
X116280639Y-71002500D01*
X116280640Y-71002500D01*
X116479360Y-71002500D01*
X116479361Y-71002500D01*
X116675636Y-70971413D01*
X116864632Y-70910005D01*
X117041694Y-70819787D01*
X117202464Y-70702981D01*
X117342981Y-70562464D01*
X117459787Y-70401694D01*
X117539515Y-70245218D01*
X117587490Y-70194423D01*
X117655311Y-70177628D01*
X117721446Y-70200165D01*
X117760484Y-70245218D01*
X117840213Y-70401694D01*
X117957019Y-70562464D01*
X118097536Y-70702981D01*
X118258306Y-70819787D01*
X118345149Y-70864035D01*
X118435367Y-70910005D01*
X118435370Y-70910006D01*
X118529866Y-70940709D01*
X118624364Y-70971413D01*
X118820639Y-71002500D01*
X118820640Y-71002500D01*
X119019360Y-71002500D01*
X119019361Y-71002500D01*
X119215636Y-70971413D01*
X119404632Y-70910005D01*
X119581694Y-70819787D01*
X119742464Y-70702981D01*
X119882981Y-70562464D01*
X119999787Y-70401694D01*
X120079515Y-70245218D01*
X120127490Y-70194423D01*
X120195311Y-70177628D01*
X120261446Y-70200165D01*
X120300484Y-70245218D01*
X120380213Y-70401694D01*
X120497019Y-70562464D01*
X120637536Y-70702981D01*
X120798306Y-70819787D01*
X120885149Y-70864035D01*
X120975367Y-70910005D01*
X120975370Y-70910006D01*
X121069866Y-70940709D01*
X121164364Y-70971413D01*
X121360639Y-71002500D01*
X121360640Y-71002500D01*
X121559360Y-71002500D01*
X121559361Y-71002500D01*
X121755636Y-70971413D01*
X121944632Y-70910005D01*
X122121694Y-70819787D01*
X122282464Y-70702981D01*
X122422981Y-70562464D01*
X122539787Y-70401694D01*
X122619515Y-70245218D01*
X122667490Y-70194423D01*
X122735311Y-70177628D01*
X122801446Y-70200165D01*
X122840484Y-70245218D01*
X122920213Y-70401694D01*
X123037019Y-70562464D01*
X123177536Y-70702981D01*
X123338306Y-70819787D01*
X123425149Y-70864035D01*
X123515367Y-70910005D01*
X123515370Y-70910006D01*
X123609866Y-70940709D01*
X123704364Y-70971413D01*
X123900639Y-71002500D01*
X123900640Y-71002500D01*
X124099360Y-71002500D01*
X124099361Y-71002500D01*
X124295636Y-70971413D01*
X124484632Y-70910005D01*
X124661694Y-70819787D01*
X124822464Y-70702981D01*
X124962981Y-70562464D01*
X125079787Y-70401694D01*
X125159515Y-70245218D01*
X125207490Y-70194423D01*
X125275311Y-70177628D01*
X125341446Y-70200165D01*
X125380484Y-70245218D01*
X125460213Y-70401694D01*
X125577019Y-70562464D01*
X125717536Y-70702981D01*
X125878306Y-70819787D01*
X125965149Y-70864035D01*
X126055367Y-70910005D01*
X126055370Y-70910006D01*
X126149866Y-70940709D01*
X126244364Y-70971413D01*
X126440639Y-71002500D01*
X126440640Y-71002500D01*
X126639360Y-71002500D01*
X126639361Y-71002500D01*
X126835636Y-70971413D01*
X127024632Y-70910005D01*
X127201694Y-70819787D01*
X127362464Y-70702981D01*
X127502981Y-70562464D01*
X127619787Y-70401694D01*
X127710005Y-70224632D01*
X127771413Y-70035636D01*
X127802500Y-69839361D01*
X127802500Y-69640639D01*
X127771413Y-69444364D01*
X127735184Y-69332861D01*
X127710006Y-69255370D01*
X127710005Y-69255367D01*
X127642428Y-69122741D01*
X127619787Y-69078306D01*
X127502981Y-68917536D01*
X127362464Y-68777019D01*
X127211219Y-68667133D01*
X131929500Y-68667133D01*
X131929500Y-69332866D01*
X131960548Y-69528893D01*
X131963246Y-69545926D01*
X132029908Y-69751089D01*
X132127843Y-69943299D01*
X132254641Y-70117821D01*
X132407179Y-70270359D01*
X132581701Y-70397157D01*
X132773911Y-70495092D01*
X132979074Y-70561754D01*
X133058973Y-70574408D01*
X133192134Y-70595500D01*
X133192139Y-70595500D01*
X133407866Y-70595500D01*
X133526230Y-70576752D01*
X133620926Y-70561754D01*
X133826089Y-70495092D01*
X134018299Y-70397157D01*
X134192821Y-70270359D01*
X134345359Y-70117821D01*
X134469682Y-69946704D01*
X134525012Y-69904040D01*
X134594626Y-69898061D01*
X134656420Y-69930667D01*
X134670315Y-69946702D01*
X134794641Y-70117821D01*
X134947179Y-70270359D01*
X135121701Y-70397157D01*
X135313911Y-70495092D01*
X135519074Y-70561754D01*
X135598973Y-70574408D01*
X135732134Y-70595500D01*
X135732139Y-70595500D01*
X135947866Y-70595500D01*
X136066230Y-70576752D01*
X136160926Y-70561754D01*
X136366089Y-70495092D01*
X136558299Y-70397157D01*
X136732821Y-70270359D01*
X136885359Y-70117821D01*
X137009682Y-69946704D01*
X137065012Y-69904040D01*
X137134626Y-69898061D01*
X137196420Y-69930667D01*
X137210315Y-69946702D01*
X137334641Y-70117821D01*
X137487179Y-70270359D01*
X137661701Y-70397157D01*
X137853911Y-70495092D01*
X138059074Y-70561754D01*
X138138973Y-70574408D01*
X138272134Y-70595500D01*
X138272139Y-70595500D01*
X138487866Y-70595500D01*
X138606230Y-70576752D01*
X138700926Y-70561754D01*
X138906089Y-70495092D01*
X139098299Y-70397157D01*
X139272821Y-70270359D01*
X139425359Y-70117821D01*
X139549682Y-69946704D01*
X139605012Y-69904040D01*
X139674626Y-69898061D01*
X139736420Y-69930667D01*
X139750315Y-69946702D01*
X139874641Y-70117821D01*
X140027179Y-70270359D01*
X140201701Y-70397157D01*
X140393911Y-70495092D01*
X140599074Y-70561754D01*
X140678973Y-70574408D01*
X140812134Y-70595500D01*
X140812139Y-70595500D01*
X141027866Y-70595500D01*
X141146230Y-70576752D01*
X141240926Y-70561754D01*
X141446089Y-70495092D01*
X141638299Y-70397157D01*
X141812821Y-70270359D01*
X141965359Y-70117821D01*
X142089682Y-69946704D01*
X142145012Y-69904040D01*
X142214626Y-69898061D01*
X142276420Y-69930667D01*
X142290315Y-69946702D01*
X142414641Y-70117821D01*
X142567179Y-70270359D01*
X142741701Y-70397157D01*
X142933911Y-70495092D01*
X143139074Y-70561754D01*
X143218973Y-70574408D01*
X143352134Y-70595500D01*
X143352139Y-70595500D01*
X143567866Y-70595500D01*
X143686230Y-70576752D01*
X143780926Y-70561754D01*
X143986089Y-70495092D01*
X144178299Y-70397157D01*
X144352821Y-70270359D01*
X144494807Y-70128372D01*
X144556126Y-70094890D01*
X144625818Y-70099874D01*
X144681752Y-70141745D01*
X144694864Y-70163645D01*
X144695181Y-70164326D01*
X144695186Y-70164334D01*
X144787288Y-70313656D01*
X144911344Y-70437712D01*
X145060666Y-70529814D01*
X145227203Y-70584999D01*
X145329991Y-70595500D01*
X146670008Y-70595499D01*
X146772797Y-70584999D01*
X146939334Y-70529814D01*
X147088656Y-70437712D01*
X147212712Y-70313656D01*
X147304814Y-70164334D01*
X147359999Y-69997797D01*
X147370500Y-69895009D01*
X147370499Y-68995606D01*
X147370499Y-68104998D01*
X147370498Y-68104981D01*
X147359999Y-68002203D01*
X147359269Y-67999999D01*
X147325364Y-67897682D01*
X174700000Y-67897682D01*
X174700000Y-68102317D01*
X174732009Y-68304417D01*
X174795244Y-68499031D01*
X174888141Y-68681350D01*
X174888147Y-68681359D01*
X174920523Y-68725921D01*
X174920524Y-68725922D01*
X175600000Y-68046446D01*
X175600000Y-68052661D01*
X175627259Y-68154394D01*
X175679920Y-68245606D01*
X175754394Y-68320080D01*
X175845606Y-68372741D01*
X175947339Y-68400000D01*
X175953553Y-68400000D01*
X175274076Y-69079474D01*
X175318650Y-69111859D01*
X175500968Y-69204755D01*
X175695582Y-69267990D01*
X175897683Y-69300000D01*
X176102317Y-69300000D01*
X176304417Y-69267990D01*
X176499031Y-69204755D01*
X176681349Y-69111859D01*
X176725921Y-69079474D01*
X176046447Y-68400000D01*
X176052661Y-68400000D01*
X176154394Y-68372741D01*
X176245606Y-68320080D01*
X176320080Y-68245606D01*
X176372741Y-68154394D01*
X176400000Y-68052661D01*
X176400000Y-68046448D01*
X177079474Y-68725922D01*
X177079474Y-68725921D01*
X177111859Y-68681349D01*
X177204755Y-68499031D01*
X177267990Y-68304417D01*
X177300000Y-68102317D01*
X177300000Y-67897682D01*
X177299995Y-67897648D01*
X179699500Y-67897648D01*
X179699500Y-68102352D01*
X179699918Y-68104992D01*
X179731522Y-68304534D01*
X179794781Y-68499223D01*
X179856321Y-68619999D01*
X179887585Y-68681359D01*
X179887715Y-68681613D01*
X180008028Y-68847213D01*
X180152786Y-68991971D01*
X180273226Y-69079474D01*
X180318390Y-69112287D01*
X180434607Y-69171503D01*
X180500776Y-69205218D01*
X180500778Y-69205218D01*
X180500781Y-69205220D01*
X180575643Y-69229544D01*
X180695465Y-69268477D01*
X180767164Y-69279833D01*
X180897648Y-69300500D01*
X180897649Y-69300500D01*
X181102351Y-69300500D01*
X181102352Y-69300500D01*
X181304534Y-69268477D01*
X181499219Y-69205220D01*
X181681610Y-69112287D01*
X181791821Y-69032215D01*
X181847213Y-68991971D01*
X181847215Y-68991968D01*
X181847219Y-68991966D01*
X181991966Y-68847219D01*
X181991968Y-68847215D01*
X181991971Y-68847213D01*
X182079857Y-68726246D01*
X182112287Y-68681610D01*
X182205220Y-68499219D01*
X182268477Y-68304534D01*
X182300500Y-68102352D01*
X182300500Y-67897648D01*
X182292257Y-67845606D01*
X182268477Y-67695465D01*
X182206502Y-67504727D01*
X182205220Y-67500781D01*
X182205218Y-67500778D01*
X182205218Y-67500776D01*
X182160385Y-67412788D01*
X182112287Y-67318390D01*
X182080092Y-67274077D01*
X181991971Y-67152786D01*
X181847213Y-67008028D01*
X181681613Y-66887715D01*
X181681612Y-66887714D01*
X181681610Y-66887713D01*
X181624653Y-66858691D01*
X181499223Y-66794781D01*
X181304534Y-66731522D01*
X181129995Y-66703878D01*
X181102352Y-66699500D01*
X180897648Y-66699500D01*
X180873329Y-66703351D01*
X180695465Y-66731522D01*
X180500776Y-66794781D01*
X180318386Y-66887715D01*
X180152786Y-67008028D01*
X180008028Y-67152786D01*
X179887715Y-67318386D01*
X179794781Y-67500776D01*
X179731522Y-67695465D01*
X179701950Y-67882177D01*
X179699500Y-67897648D01*
X177299995Y-67897648D01*
X177267990Y-67695582D01*
X177204755Y-67500968D01*
X177111859Y-67318650D01*
X177079474Y-67274077D01*
X177079474Y-67274076D01*
X176400000Y-67953551D01*
X176400000Y-67947339D01*
X176372741Y-67845606D01*
X176320080Y-67754394D01*
X176245606Y-67679920D01*
X176154394Y-67627259D01*
X176052661Y-67600000D01*
X176046446Y-67600000D01*
X176725922Y-66920524D01*
X176725921Y-66920523D01*
X176681359Y-66888147D01*
X176681350Y-66888141D01*
X176499031Y-66795244D01*
X176304417Y-66732009D01*
X176102317Y-66700000D01*
X175897683Y-66700000D01*
X175695582Y-66732009D01*
X175500968Y-66795244D01*
X175318644Y-66888143D01*
X175274077Y-66920523D01*
X175274077Y-66920524D01*
X175953554Y-67600000D01*
X175947339Y-67600000D01*
X175845606Y-67627259D01*
X175754394Y-67679920D01*
X175679920Y-67754394D01*
X175627259Y-67845606D01*
X175600000Y-67947339D01*
X175600000Y-67953553D01*
X174920524Y-67274077D01*
X174920523Y-67274077D01*
X174888143Y-67318644D01*
X174795244Y-67500968D01*
X174732009Y-67695582D01*
X174700000Y-67897682D01*
X147325364Y-67897682D01*
X147304814Y-67835666D01*
X147212712Y-67686344D01*
X147088656Y-67562288D01*
X146939334Y-67470186D01*
X146772797Y-67415001D01*
X146772795Y-67415000D01*
X146670010Y-67404500D01*
X145329998Y-67404500D01*
X145329981Y-67404501D01*
X145227203Y-67415000D01*
X145227200Y-67415001D01*
X145060668Y-67470185D01*
X145060663Y-67470187D01*
X144911342Y-67562289D01*
X144787289Y-67686342D01*
X144695179Y-67835677D01*
X144694861Y-67836360D01*
X144694518Y-67836748D01*
X144691395Y-67841813D01*
X144690529Y-67841278D01*
X144648683Y-67888794D01*
X144581487Y-67907939D01*
X144514608Y-67887716D01*
X144494804Y-67871624D01*
X144352823Y-67729643D01*
X144352821Y-67729641D01*
X144178299Y-67602843D01*
X143986089Y-67504908D01*
X143780926Y-67438246D01*
X143780924Y-67438245D01*
X143780922Y-67438245D01*
X143567866Y-67404500D01*
X143567861Y-67404500D01*
X143352139Y-67404500D01*
X143352134Y-67404500D01*
X143139077Y-67438245D01*
X142933908Y-67504909D01*
X142741700Y-67602843D01*
X142648548Y-67670523D01*
X142567179Y-67729641D01*
X142567177Y-67729643D01*
X142567176Y-67729643D01*
X142414643Y-67882176D01*
X142414643Y-67882177D01*
X142414641Y-67882179D01*
X142337729Y-67988038D01*
X142290318Y-68053294D01*
X142234988Y-68095959D01*
X142165374Y-68101938D01*
X142103579Y-68069332D01*
X142089682Y-68053294D01*
X142050960Y-67999999D01*
X141965359Y-67882179D01*
X141812821Y-67729641D01*
X141638299Y-67602843D01*
X141446089Y-67504908D01*
X141240926Y-67438246D01*
X141240924Y-67438245D01*
X141240922Y-67438245D01*
X141027866Y-67404500D01*
X141027861Y-67404500D01*
X140812139Y-67404500D01*
X140812134Y-67404500D01*
X140599077Y-67438245D01*
X140393908Y-67504909D01*
X140201700Y-67602843D01*
X140108548Y-67670523D01*
X140027179Y-67729641D01*
X140027177Y-67729643D01*
X140027176Y-67729643D01*
X139874643Y-67882176D01*
X139874643Y-67882177D01*
X139874641Y-67882179D01*
X139797729Y-67988038D01*
X139750318Y-68053294D01*
X139694988Y-68095959D01*
X139625374Y-68101938D01*
X139563579Y-68069332D01*
X139549682Y-68053294D01*
X139510960Y-67999999D01*
X139425359Y-67882179D01*
X139272821Y-67729641D01*
X139098299Y-67602843D01*
X138906089Y-67504908D01*
X138700926Y-67438246D01*
X138700924Y-67438245D01*
X138700922Y-67438245D01*
X138487866Y-67404500D01*
X138487861Y-67404500D01*
X138272139Y-67404500D01*
X138272134Y-67404500D01*
X138059077Y-67438245D01*
X137853908Y-67504909D01*
X137661700Y-67602843D01*
X137568548Y-67670523D01*
X137487179Y-67729641D01*
X137487177Y-67729643D01*
X137487176Y-67729643D01*
X137334643Y-67882176D01*
X137334643Y-67882177D01*
X137334641Y-67882179D01*
X137257729Y-67988038D01*
X137210318Y-68053294D01*
X137154988Y-68095959D01*
X137085374Y-68101938D01*
X137023579Y-68069332D01*
X137009682Y-68053294D01*
X136970960Y-67999999D01*
X136885359Y-67882179D01*
X136732821Y-67729641D01*
X136558299Y-67602843D01*
X136366089Y-67504908D01*
X136160926Y-67438246D01*
X136160924Y-67438245D01*
X136160922Y-67438245D01*
X135947866Y-67404500D01*
X135947861Y-67404500D01*
X135732139Y-67404500D01*
X135732134Y-67404500D01*
X135519077Y-67438245D01*
X135313908Y-67504909D01*
X135121700Y-67602843D01*
X135028548Y-67670523D01*
X134947179Y-67729641D01*
X134947177Y-67729643D01*
X134947176Y-67729643D01*
X134794643Y-67882176D01*
X134794643Y-67882177D01*
X134794641Y-67882179D01*
X134717729Y-67988038D01*
X134670318Y-68053294D01*
X134614988Y-68095959D01*
X134545374Y-68101938D01*
X134483579Y-68069332D01*
X134469682Y-68053294D01*
X134430960Y-67999999D01*
X134345359Y-67882179D01*
X134192821Y-67729641D01*
X134018299Y-67602843D01*
X133826089Y-67504908D01*
X133620926Y-67438246D01*
X133620924Y-67438245D01*
X133620922Y-67438245D01*
X133407866Y-67404500D01*
X133407861Y-67404500D01*
X133192139Y-67404500D01*
X133192134Y-67404500D01*
X132979077Y-67438245D01*
X132773908Y-67504909D01*
X132581700Y-67602843D01*
X132488548Y-67670523D01*
X132407179Y-67729641D01*
X132407177Y-67729643D01*
X132407176Y-67729643D01*
X132254643Y-67882176D01*
X132254643Y-67882177D01*
X132254641Y-67882179D01*
X132218574Y-67931821D01*
X132127843Y-68056700D01*
X132029909Y-68248908D01*
X132029908Y-68248910D01*
X132029908Y-68248911D01*
X132012051Y-68303869D01*
X131963245Y-68454077D01*
X131929500Y-68667133D01*
X127211219Y-68667133D01*
X127201694Y-68660213D01*
X127169468Y-68643793D01*
X127024632Y-68569994D01*
X127024629Y-68569993D01*
X126835637Y-68508587D01*
X126716944Y-68489788D01*
X126639361Y-68477500D01*
X126440639Y-68477500D01*
X126375214Y-68487862D01*
X126244362Y-68508587D01*
X126055370Y-68569993D01*
X126055367Y-68569994D01*
X125878305Y-68660213D01*
X125717533Y-68777021D01*
X125577021Y-68917533D01*
X125460213Y-69078305D01*
X125380485Y-69234780D01*
X125332510Y-69285576D01*
X125264689Y-69302371D01*
X125198554Y-69279833D01*
X125159515Y-69234780D01*
X125102428Y-69122741D01*
X125079787Y-69078306D01*
X124962981Y-68917536D01*
X124822464Y-68777019D01*
X124661694Y-68660213D01*
X124629468Y-68643793D01*
X124484632Y-68569994D01*
X124484629Y-68569993D01*
X124295637Y-68508587D01*
X124176944Y-68489788D01*
X124099361Y-68477500D01*
X123900639Y-68477500D01*
X123835214Y-68487862D01*
X123704362Y-68508587D01*
X123515370Y-68569993D01*
X123515367Y-68569994D01*
X123338305Y-68660213D01*
X123177533Y-68777021D01*
X123037021Y-68917533D01*
X122920213Y-69078305D01*
X122840485Y-69234780D01*
X122792510Y-69285576D01*
X122724689Y-69302371D01*
X122658554Y-69279833D01*
X122619515Y-69234780D01*
X122562428Y-69122741D01*
X122539787Y-69078306D01*
X122422981Y-68917536D01*
X122282464Y-68777019D01*
X122121694Y-68660213D01*
X122089468Y-68643793D01*
X121944632Y-68569994D01*
X121944629Y-68569993D01*
X121755637Y-68508587D01*
X121636944Y-68489788D01*
X121559361Y-68477500D01*
X121360639Y-68477500D01*
X121295214Y-68487862D01*
X121164362Y-68508587D01*
X120975370Y-68569993D01*
X120975367Y-68569994D01*
X120798305Y-68660213D01*
X120637533Y-68777021D01*
X120497021Y-68917533D01*
X120380213Y-69078305D01*
X120300485Y-69234780D01*
X120252510Y-69285576D01*
X120184689Y-69302371D01*
X120118554Y-69279833D01*
X120079515Y-69234780D01*
X120022428Y-69122741D01*
X119999787Y-69078306D01*
X119882981Y-68917536D01*
X119742464Y-68777019D01*
X119581694Y-68660213D01*
X119549468Y-68643793D01*
X119404632Y-68569994D01*
X119404629Y-68569993D01*
X119215637Y-68508587D01*
X119096944Y-68489788D01*
X119019361Y-68477500D01*
X118820639Y-68477500D01*
X118755214Y-68487862D01*
X118624362Y-68508587D01*
X118435370Y-68569993D01*
X118435367Y-68569994D01*
X118258305Y-68660213D01*
X118097533Y-68777021D01*
X117957021Y-68917533D01*
X117840213Y-69078305D01*
X117760485Y-69234780D01*
X117712510Y-69285576D01*
X117644689Y-69302371D01*
X117578554Y-69279833D01*
X117539515Y-69234780D01*
X117482428Y-69122741D01*
X117459787Y-69078306D01*
X117342981Y-68917536D01*
X117202464Y-68777019D01*
X117041694Y-68660213D01*
X117009468Y-68643793D01*
X116864632Y-68569994D01*
X116864629Y-68569993D01*
X116675637Y-68508587D01*
X116556944Y-68489788D01*
X116479361Y-68477500D01*
X116280639Y-68477500D01*
X116215214Y-68487862D01*
X116084362Y-68508587D01*
X115895370Y-68569993D01*
X115895367Y-68569994D01*
X115718305Y-68660213D01*
X115557533Y-68777021D01*
X115417021Y-68917533D01*
X115300213Y-69078305D01*
X115220485Y-69234780D01*
X115172510Y-69285576D01*
X115104689Y-69302371D01*
X115038554Y-69279833D01*
X114999515Y-69234780D01*
X114942428Y-69122741D01*
X114919787Y-69078306D01*
X114802981Y-68917536D01*
X114662464Y-68777019D01*
X114501694Y-68660213D01*
X114469468Y-68643793D01*
X114324632Y-68569994D01*
X114324629Y-68569993D01*
X114135637Y-68508587D01*
X114016944Y-68489788D01*
X113939361Y-68477500D01*
X113740639Y-68477500D01*
X113675214Y-68487862D01*
X113544362Y-68508587D01*
X113355370Y-68569993D01*
X113355367Y-68569994D01*
X113178305Y-68660213D01*
X113017533Y-68777021D01*
X112877021Y-68917533D01*
X112760213Y-69078305D01*
X112680485Y-69234780D01*
X112632510Y-69285576D01*
X112564689Y-69302371D01*
X112498554Y-69279833D01*
X112459515Y-69234780D01*
X112402428Y-69122741D01*
X112379787Y-69078306D01*
X112262981Y-68917536D01*
X112122464Y-68777019D01*
X111961694Y-68660213D01*
X111929468Y-68643793D01*
X111784632Y-68569994D01*
X111784629Y-68569993D01*
X111595637Y-68508587D01*
X111476944Y-68489788D01*
X111399361Y-68477500D01*
X111200639Y-68477500D01*
X111135214Y-68487862D01*
X111004362Y-68508587D01*
X110815370Y-68569993D01*
X110815367Y-68569994D01*
X110638305Y-68660213D01*
X110477533Y-68777021D01*
X110337021Y-68917533D01*
X110220213Y-69078305D01*
X110129994Y-69255367D01*
X110129993Y-69255370D01*
X110068587Y-69444362D01*
X110048740Y-69569671D01*
X110037500Y-69640639D01*
X84837852Y-69640639D01*
X84793546Y-69581454D01*
X84764038Y-69559364D01*
X84754590Y-69547912D01*
X84746454Y-69528893D01*
X84734058Y-69512334D01*
X84732991Y-69497419D01*
X84727111Y-69483672D01*
X84730549Y-69463274D01*
X84729074Y-69442642D01*
X84736239Y-69429518D01*
X84738725Y-69414775D01*
X84752644Y-69399475D01*
X84762558Y-69381319D01*
X84775930Y-69369733D01*
X84793546Y-69356546D01*
X84879796Y-69241331D01*
X84930091Y-69106483D01*
X84936500Y-69046873D01*
X84936499Y-67351128D01*
X84930091Y-67291517D01*
X84923586Y-67274077D01*
X84879797Y-67156671D01*
X84879793Y-67156664D01*
X84793547Y-67041455D01*
X84793544Y-67041452D01*
X84678335Y-66955206D01*
X84678328Y-66955202D01*
X84543482Y-66904908D01*
X84543483Y-66904908D01*
X84483883Y-66898501D01*
X84483881Y-66898500D01*
X84483873Y-66898500D01*
X84483864Y-66898500D01*
X82788129Y-66898500D01*
X82788123Y-66898501D01*
X82728516Y-66904908D01*
X82593671Y-66955202D01*
X82593664Y-66955206D01*
X82478455Y-67041452D01*
X82478452Y-67041455D01*
X82392206Y-67156664D01*
X82392202Y-67156671D01*
X82341908Y-67291517D01*
X82337604Y-67331557D01*
X82335501Y-67351123D01*
X82335500Y-67351135D01*
X82335500Y-69046870D01*
X82335501Y-69046876D01*
X82341908Y-69106483D01*
X82392202Y-69241328D01*
X82392206Y-69241335D01*
X82478452Y-69356544D01*
X82478453Y-69356544D01*
X82478454Y-69356546D01*
X82496070Y-69369733D01*
X82496071Y-69369734D01*
X82537941Y-69425668D01*
X82542925Y-69495360D01*
X82509439Y-69556683D01*
X82496071Y-69568266D01*
X82478452Y-69581455D01*
X82392206Y-69696664D01*
X82392202Y-69696671D01*
X82341908Y-69831517D01*
X82335501Y-69891116D01*
X82335501Y-69891123D01*
X82335500Y-69891135D01*
X82335500Y-71586870D01*
X82335501Y-71586876D01*
X82341908Y-71646483D01*
X82392202Y-71781328D01*
X82392204Y-71781331D01*
X82407069Y-71801188D01*
X82431487Y-71866652D01*
X82416636Y-71934926D01*
X82367231Y-71984331D01*
X82307803Y-71999500D01*
X66062924Y-71999500D01*
X65995885Y-71979815D01*
X65950130Y-71927011D01*
X65940186Y-71857853D01*
X65969211Y-71794297D01*
X65988611Y-71776235D01*
X65990881Y-71774535D01*
X65997546Y-71769546D01*
X66083796Y-71654331D01*
X66134091Y-71519483D01*
X66140500Y-71459873D01*
X66140499Y-69764128D01*
X66134091Y-69704517D01*
X66083796Y-69569669D01*
X66083795Y-69569668D01*
X66083793Y-69569664D01*
X65997547Y-69454455D01*
X65997546Y-69454454D01*
X65979929Y-69441266D01*
X65938058Y-69385334D01*
X65933074Y-69315642D01*
X65966558Y-69254319D01*
X65979930Y-69242733D01*
X65997546Y-69229546D01*
X66083796Y-69114331D01*
X66134091Y-68979483D01*
X66140500Y-68919873D01*
X66140499Y-67224128D01*
X66134091Y-67164517D01*
X66133609Y-67163226D01*
X66083797Y-67029671D01*
X66083793Y-67029664D01*
X65997547Y-66914455D01*
X65997544Y-66914452D01*
X65882335Y-66828206D01*
X65882328Y-66828202D01*
X65747482Y-66777908D01*
X65747483Y-66777908D01*
X65687883Y-66771501D01*
X65687881Y-66771500D01*
X65687873Y-66771500D01*
X65687864Y-66771500D01*
X63992129Y-66771500D01*
X63992123Y-66771501D01*
X63932516Y-66777908D01*
X63797671Y-66828202D01*
X63797664Y-66828206D01*
X63682455Y-66914452D01*
X63682452Y-66914455D01*
X63596206Y-67029664D01*
X63596202Y-67029671D01*
X63545908Y-67164517D01*
X63539501Y-67224116D01*
X63539501Y-67224123D01*
X63539500Y-67224135D01*
X63539500Y-68919870D01*
X63539501Y-68919876D01*
X63545908Y-68979483D01*
X63596202Y-69114328D01*
X63596206Y-69114335D01*
X63682452Y-69229544D01*
X63682453Y-69229544D01*
X63682454Y-69229546D01*
X63689446Y-69234780D01*
X63700071Y-69242734D01*
X63741941Y-69298668D01*
X63746925Y-69368360D01*
X63713439Y-69429683D01*
X63700071Y-69441266D01*
X63682452Y-69454455D01*
X63596206Y-69569664D01*
X63596202Y-69569671D01*
X63545908Y-69704517D01*
X63540882Y-69751269D01*
X63539501Y-69764123D01*
X63539500Y-69764135D01*
X63539500Y-71459870D01*
X63539501Y-71459876D01*
X63545908Y-71519483D01*
X63596202Y-71654328D01*
X63596206Y-71654335D01*
X63682452Y-71769544D01*
X63682454Y-71769546D01*
X63691389Y-71776235D01*
X63733259Y-71832169D01*
X63738242Y-71901861D01*
X63704755Y-71963183D01*
X63643431Y-71996667D01*
X63617076Y-71999500D01*
X40624500Y-71999500D01*
X40557461Y-71979815D01*
X40511706Y-71927011D01*
X40500500Y-71875500D01*
X40500500Y-62685803D01*
X44250000Y-62685803D01*
X44250000Y-63250000D01*
X45066988Y-63250000D01*
X45034075Y-63307007D01*
X45000000Y-63434174D01*
X45000000Y-63565826D01*
X45034075Y-63692993D01*
X45066988Y-63750000D01*
X44250001Y-63750000D01*
X44250001Y-64314197D01*
X44260400Y-64446332D01*
X44315377Y-64664519D01*
X44408428Y-64869374D01*
X44408431Y-64869380D01*
X44536559Y-65054323D01*
X44536569Y-65054335D01*
X44695664Y-65213430D01*
X44695676Y-65213440D01*
X44880619Y-65341568D01*
X44880625Y-65341571D01*
X45085480Y-65434622D01*
X45303667Y-65489599D01*
X45435810Y-65499999D01*
X46249999Y-65499999D01*
X46250000Y-65499998D01*
X46250000Y-64000000D01*
X46750000Y-64000000D01*
X46750000Y-65499999D01*
X47564182Y-65499999D01*
X47564197Y-65499998D01*
X47696332Y-65489599D01*
X47914519Y-65434622D01*
X48037609Y-65378711D01*
X101149500Y-65378711D01*
X101149500Y-65621288D01*
X101181161Y-65861785D01*
X101243947Y-66096104D01*
X101336773Y-66320205D01*
X101336777Y-66320214D01*
X101358974Y-66358661D01*
X101458064Y-66530289D01*
X101458066Y-66530292D01*
X101458067Y-66530293D01*
X101605733Y-66722736D01*
X101605739Y-66722743D01*
X101777256Y-66894260D01*
X101777263Y-66894266D01*
X101803570Y-66914452D01*
X101969711Y-67041936D01*
X102179788Y-67163224D01*
X102403900Y-67256054D01*
X102638211Y-67318838D01*
X102818586Y-67342584D01*
X102878711Y-67350500D01*
X102878712Y-67350500D01*
X103121289Y-67350500D01*
X103169388Y-67344167D01*
X103361789Y-67318838D01*
X103596100Y-67256054D01*
X103820212Y-67163224D01*
X104030289Y-67041936D01*
X104222738Y-66894265D01*
X104229290Y-66887713D01*
X104236902Y-66880102D01*
X104394260Y-66722743D01*
X104394265Y-66722738D01*
X104541936Y-66530289D01*
X104663224Y-66320212D01*
X104710557Y-66205940D01*
X104732844Y-66152135D01*
X184007000Y-66152135D01*
X184007000Y-68247870D01*
X184007001Y-68247876D01*
X184013408Y-68307483D01*
X184063702Y-68442328D01*
X184063706Y-68442335D01*
X184149952Y-68557544D01*
X184149955Y-68557547D01*
X184265164Y-68643793D01*
X184265171Y-68643797D01*
X184400017Y-68694091D01*
X184400016Y-68694091D01*
X184406944Y-68694835D01*
X184459627Y-68700500D01*
X186460372Y-68700499D01*
X186519983Y-68694091D01*
X186654831Y-68643796D01*
X186770046Y-68557546D01*
X186856296Y-68442331D01*
X186866872Y-68413974D01*
X186908740Y-68358041D01*
X186974204Y-68333622D01*
X187042477Y-68348472D01*
X187055940Y-68356988D01*
X187238723Y-68489788D01*
X187442429Y-68593582D01*
X187659871Y-68664234D01*
X187750000Y-68678509D01*
X187750000Y-67690747D01*
X187787708Y-67712518D01*
X187927591Y-67750000D01*
X188072409Y-67750000D01*
X188212292Y-67712518D01*
X188250000Y-67690747D01*
X188250000Y-68678508D01*
X188340128Y-68664234D01*
X188557570Y-68593582D01*
X188761276Y-68489788D01*
X188946242Y-68355402D01*
X189107905Y-68193739D01*
X189169371Y-68109137D01*
X189224701Y-68066470D01*
X189294314Y-68060491D01*
X189356109Y-68093096D01*
X189370007Y-68109134D01*
X189431714Y-68194066D01*
X189593434Y-68355786D01*
X189778462Y-68490217D01*
X189981327Y-68593582D01*
X189982244Y-68594049D01*
X190199751Y-68664721D01*
X190199752Y-68664721D01*
X190199755Y-68664722D01*
X190425646Y-68700500D01*
X190425647Y-68700500D01*
X190654353Y-68700500D01*
X190654354Y-68700500D01*
X190880245Y-68664722D01*
X190880248Y-68664721D01*
X190880249Y-68664721D01*
X190932690Y-68647682D01*
X194200000Y-68647682D01*
X194200000Y-68852317D01*
X194232009Y-69054417D01*
X194295244Y-69249031D01*
X194388141Y-69431350D01*
X194388147Y-69431359D01*
X194420523Y-69475921D01*
X194420524Y-69475922D01*
X195100000Y-68796446D01*
X195100000Y-68802661D01*
X195127259Y-68904394D01*
X195179920Y-68995606D01*
X195254394Y-69070080D01*
X195345606Y-69122741D01*
X195447339Y-69150000D01*
X195453553Y-69150000D01*
X194774076Y-69829474D01*
X194818650Y-69861859D01*
X195000968Y-69954755D01*
X195195582Y-70017990D01*
X195397683Y-70050000D01*
X195602317Y-70050000D01*
X195804417Y-70017990D01*
X195999031Y-69954755D01*
X196181349Y-69861859D01*
X196225921Y-69829474D01*
X196225922Y-69829474D01*
X196172140Y-69775692D01*
X195546447Y-69150000D01*
X195552661Y-69150000D01*
X195654394Y-69122741D01*
X195745606Y-69070080D01*
X195820080Y-68995606D01*
X195872741Y-68904394D01*
X195900000Y-68802661D01*
X195900000Y-68796447D01*
X196579474Y-69475921D01*
X196611859Y-69431349D01*
X196704755Y-69249031D01*
X196767990Y-69054417D01*
X196800000Y-68852317D01*
X196800000Y-68647682D01*
X196781088Y-68528279D01*
X196767990Y-68445582D01*
X196704755Y-68250968D01*
X196611859Y-68068650D01*
X196579474Y-68024077D01*
X196579474Y-68024076D01*
X195900000Y-68703551D01*
X195900000Y-68697339D01*
X195872741Y-68595606D01*
X195820080Y-68504394D01*
X195745606Y-68429920D01*
X195654394Y-68377259D01*
X195552661Y-68350000D01*
X195546446Y-68350000D01*
X196225922Y-67670524D01*
X196225921Y-67670523D01*
X196181359Y-67638147D01*
X196181350Y-67638141D01*
X195999031Y-67545244D01*
X195804417Y-67482009D01*
X195602317Y-67450000D01*
X195397683Y-67450000D01*
X195195582Y-67482009D01*
X195000968Y-67545244D01*
X194818644Y-67638143D01*
X194774077Y-67670523D01*
X194774077Y-67670524D01*
X195453554Y-68350000D01*
X195447339Y-68350000D01*
X195345606Y-68377259D01*
X195254394Y-68429920D01*
X195179920Y-68504394D01*
X195127259Y-68595606D01*
X195100000Y-68697339D01*
X195100000Y-68703553D01*
X194420524Y-68024077D01*
X194420523Y-68024077D01*
X194388143Y-68068644D01*
X194295244Y-68250968D01*
X194232009Y-68445582D01*
X194200000Y-68647682D01*
X190932690Y-68647682D01*
X191097755Y-68594049D01*
X191097755Y-68594048D01*
X191097758Y-68594048D01*
X191301538Y-68490217D01*
X191486566Y-68355786D01*
X191648286Y-68194066D01*
X191782717Y-68009038D01*
X191886548Y-67805258D01*
X191903075Y-67754394D01*
X191927421Y-67679465D01*
X191957221Y-67587749D01*
X191957221Y-67587748D01*
X191957222Y-67587745D01*
X191993000Y-67361854D01*
X191993000Y-67038146D01*
X191957222Y-66812255D01*
X191957221Y-66812251D01*
X191957221Y-66812250D01*
X191886549Y-66594744D01*
X191886548Y-66594742D01*
X191782717Y-66390962D01*
X191648286Y-66205934D01*
X191486566Y-66044214D01*
X191301538Y-65909783D01*
X191097755Y-65805950D01*
X190880248Y-65735278D01*
X190690468Y-65705220D01*
X190654354Y-65699500D01*
X190425646Y-65699500D01*
X190389532Y-65705220D01*
X190199753Y-65735278D01*
X190199750Y-65735278D01*
X189982244Y-65805950D01*
X189778461Y-65909783D01*
X189712550Y-65957671D01*
X189593434Y-66044214D01*
X189593432Y-66044216D01*
X189593431Y-66044216D01*
X189431716Y-66205931D01*
X189431709Y-66205940D01*
X189370007Y-66290864D01*
X189314677Y-66333530D01*
X189245063Y-66339508D01*
X189183269Y-66306901D01*
X189169372Y-66290863D01*
X189107907Y-66206263D01*
X189107902Y-66206257D01*
X188946242Y-66044597D01*
X188761276Y-65910211D01*
X188557568Y-65806417D01*
X188340124Y-65735765D01*
X188250000Y-65721490D01*
X188250000Y-66709252D01*
X188212292Y-66687482D01*
X188072409Y-66650000D01*
X187927591Y-66650000D01*
X187787708Y-66687482D01*
X187750000Y-66709252D01*
X187750000Y-65721490D01*
X187749999Y-65721490D01*
X187659875Y-65735765D01*
X187442431Y-65806417D01*
X187238719Y-65910213D01*
X187055939Y-66043010D01*
X186990132Y-66066490D01*
X186922079Y-66050664D01*
X186873384Y-66000558D01*
X186866875Y-65986033D01*
X186856296Y-65957669D01*
X186856295Y-65957667D01*
X186856293Y-65957664D01*
X186770047Y-65842455D01*
X186770044Y-65842452D01*
X186654835Y-65756206D01*
X186654828Y-65756202D01*
X186519982Y-65705908D01*
X186519983Y-65705908D01*
X186460383Y-65699501D01*
X186460381Y-65699500D01*
X186460373Y-65699500D01*
X186460364Y-65699500D01*
X184459629Y-65699500D01*
X184459623Y-65699501D01*
X184400016Y-65705908D01*
X184265171Y-65756202D01*
X184265164Y-65756206D01*
X184149955Y-65842452D01*
X184149952Y-65842455D01*
X184063706Y-65957664D01*
X184063702Y-65957671D01*
X184013408Y-66092517D01*
X184007001Y-66152116D01*
X184007000Y-66152135D01*
X104732844Y-66152135D01*
X104753878Y-66101354D01*
X104753878Y-66101353D01*
X104756054Y-66096100D01*
X104818838Y-65861789D01*
X104850500Y-65621288D01*
X104850500Y-65378712D01*
X104818838Y-65138211D01*
X104756054Y-64903900D01*
X104663224Y-64679788D01*
X104541936Y-64469711D01*
X104481018Y-64390321D01*
X104394266Y-64277263D01*
X104394260Y-64277256D01*
X104222743Y-64105739D01*
X104222736Y-64105733D01*
X104078699Y-63995210D01*
X104030293Y-63958067D01*
X104030292Y-63958066D01*
X104030289Y-63958064D01*
X103929690Y-63899983D01*
X139079500Y-63899983D01*
X139079500Y-65100001D01*
X139079501Y-65100018D01*
X139090000Y-65202796D01*
X139090001Y-65202799D01*
X139106818Y-65253548D01*
X139145186Y-65369334D01*
X139237288Y-65518656D01*
X139361344Y-65642712D01*
X139510666Y-65734814D01*
X139677203Y-65789999D01*
X139779991Y-65800500D01*
X140980008Y-65800499D01*
X141082797Y-65789999D01*
X141249334Y-65734814D01*
X141398656Y-65642712D01*
X141522712Y-65518656D01*
X141614814Y-65369334D01*
X141641955Y-65287427D01*
X141681726Y-65229984D01*
X141746242Y-65203161D01*
X141815018Y-65215476D01*
X141859977Y-65253547D01*
X141923928Y-65341568D01*
X141928034Y-65347219D01*
X142072786Y-65491971D01*
X142168608Y-65561588D01*
X142238390Y-65612287D01*
X142354607Y-65671503D01*
X142420776Y-65705218D01*
X142420778Y-65705218D01*
X142420781Y-65705220D01*
X142511856Y-65734812D01*
X142615465Y-65768477D01*
X142716557Y-65784488D01*
X142817648Y-65800500D01*
X142817649Y-65800500D01*
X143022351Y-65800500D01*
X143022352Y-65800500D01*
X143224534Y-65768477D01*
X143419219Y-65705220D01*
X143601610Y-65612287D01*
X143730482Y-65518657D01*
X143767213Y-65491971D01*
X143767215Y-65491968D01*
X143767219Y-65491966D01*
X143911966Y-65347219D01*
X143911968Y-65347215D01*
X143911971Y-65347213D01*
X144032284Y-65181614D01*
X144032286Y-65181611D01*
X144032287Y-65181610D01*
X144079516Y-65088917D01*
X144127489Y-65038123D01*
X144195310Y-65021328D01*
X144261445Y-65043865D01*
X144300483Y-65088917D01*
X144306140Y-65100018D01*
X144347715Y-65181614D01*
X144468028Y-65347213D01*
X144612786Y-65491971D01*
X144708608Y-65561588D01*
X144778390Y-65612287D01*
X144894607Y-65671503D01*
X144960776Y-65705218D01*
X144960778Y-65705218D01*
X144960781Y-65705220D01*
X145051856Y-65734812D01*
X145155465Y-65768477D01*
X145256557Y-65784488D01*
X145357648Y-65800500D01*
X145357649Y-65800500D01*
X145562351Y-65800500D01*
X145562352Y-65800500D01*
X145764534Y-65768477D01*
X145959219Y-65705220D01*
X146141610Y-65612287D01*
X146270482Y-65518657D01*
X146307213Y-65491971D01*
X146307215Y-65491968D01*
X146307219Y-65491966D01*
X146451966Y-65347219D01*
X146451968Y-65347215D01*
X146451971Y-65347213D01*
X146556894Y-65202797D01*
X146572287Y-65181610D01*
X146619795Y-65088369D01*
X146667769Y-65037573D01*
X146735590Y-65020778D01*
X146801725Y-65043315D01*
X146840765Y-65088369D01*
X146888141Y-65181350D01*
X146888147Y-65181359D01*
X146920523Y-65225921D01*
X146920524Y-65225922D01*
X147600000Y-64546446D01*
X147600000Y-64552661D01*
X147627259Y-64654394D01*
X147679920Y-64745606D01*
X147754394Y-64820080D01*
X147845606Y-64872741D01*
X147947339Y-64900000D01*
X147953553Y-64900000D01*
X147274076Y-65579474D01*
X147318650Y-65611859D01*
X147500968Y-65704755D01*
X147695582Y-65767990D01*
X147897683Y-65800000D01*
X148102317Y-65800000D01*
X148304417Y-65767990D01*
X148499031Y-65704755D01*
X148681349Y-65611859D01*
X148725921Y-65579474D01*
X148046447Y-64900000D01*
X148052661Y-64900000D01*
X148154394Y-64872741D01*
X148245606Y-64820080D01*
X148320080Y-64745606D01*
X148372741Y-64654394D01*
X148400000Y-64552661D01*
X148400000Y-64546448D01*
X149079474Y-65225922D01*
X149079474Y-65225921D01*
X149111861Y-65181347D01*
X149111861Y-65181346D01*
X149159515Y-65087820D01*
X149207489Y-65037024D01*
X149275310Y-65020228D01*
X149341445Y-65042765D01*
X149380485Y-65087819D01*
X149428141Y-65181350D01*
X149428147Y-65181359D01*
X149460523Y-65225921D01*
X149460524Y-65225922D01*
X150140000Y-64546446D01*
X150140000Y-64552661D01*
X150167259Y-64654394D01*
X150219920Y-64745606D01*
X150294394Y-64820080D01*
X150385606Y-64872741D01*
X150487339Y-64900000D01*
X150493553Y-64900000D01*
X149814076Y-65579474D01*
X149858650Y-65611859D01*
X150040968Y-65704755D01*
X150235582Y-65767990D01*
X150437683Y-65800000D01*
X150642317Y-65800000D01*
X150844417Y-65767990D01*
X151039031Y-65704755D01*
X151221349Y-65611859D01*
X151265921Y-65579474D01*
X150586447Y-64900000D01*
X150592661Y-64900000D01*
X150694394Y-64872741D01*
X150785606Y-64820080D01*
X150860080Y-64745606D01*
X150912741Y-64654394D01*
X150940000Y-64552661D01*
X150940000Y-64546447D01*
X151619474Y-65225921D01*
X151651861Y-65181347D01*
X151651861Y-65181346D01*
X151699234Y-65088371D01*
X151747208Y-65037575D01*
X151815028Y-65020779D01*
X151881164Y-65043316D01*
X151920203Y-65088369D01*
X151967713Y-65181611D01*
X152088028Y-65347213D01*
X152232786Y-65491971D01*
X152328608Y-65561588D01*
X152398390Y-65612287D01*
X152514607Y-65671503D01*
X152580776Y-65705218D01*
X152580778Y-65705218D01*
X152580781Y-65705220D01*
X152671856Y-65734812D01*
X152775465Y-65768477D01*
X152876557Y-65784488D01*
X152977648Y-65800500D01*
X152977649Y-65800500D01*
X153182351Y-65800500D01*
X153182352Y-65800500D01*
X153384534Y-65768477D01*
X153579219Y-65705220D01*
X153761610Y-65612287D01*
X153890482Y-65518657D01*
X153927213Y-65491971D01*
X153927215Y-65491968D01*
X153927219Y-65491966D01*
X154071966Y-65347219D01*
X154071968Y-65347215D01*
X154071971Y-65347213D01*
X154192284Y-65181614D01*
X154192286Y-65181611D01*
X154192287Y-65181610D01*
X154239516Y-65088917D01*
X154287489Y-65038123D01*
X154355310Y-65021328D01*
X154421445Y-65043865D01*
X154460483Y-65088917D01*
X154466140Y-65100018D01*
X154507715Y-65181614D01*
X154628028Y-65347213D01*
X154772786Y-65491971D01*
X154868608Y-65561588D01*
X154938390Y-65612287D01*
X155054607Y-65671503D01*
X155120776Y-65705218D01*
X155120778Y-65705218D01*
X155120781Y-65705220D01*
X155211856Y-65734812D01*
X155315465Y-65768477D01*
X155416557Y-65784488D01*
X155517648Y-65800500D01*
X155517649Y-65800500D01*
X155722351Y-65800500D01*
X155722352Y-65800500D01*
X155924534Y-65768477D01*
X156119219Y-65705220D01*
X156301610Y-65612287D01*
X156430482Y-65518657D01*
X156467213Y-65491971D01*
X156467215Y-65491968D01*
X156467219Y-65491966D01*
X156611966Y-65347219D01*
X156611968Y-65347215D01*
X156611971Y-65347213D01*
X156732284Y-65181614D01*
X156732286Y-65181611D01*
X156732287Y-65181610D01*
X156779516Y-65088917D01*
X156827489Y-65038123D01*
X156895310Y-65021328D01*
X156961445Y-65043865D01*
X157000483Y-65088917D01*
X157006140Y-65100018D01*
X157047715Y-65181614D01*
X157168028Y-65347213D01*
X157312786Y-65491971D01*
X157408608Y-65561588D01*
X157478390Y-65612287D01*
X157594607Y-65671503D01*
X157660776Y-65705218D01*
X157660778Y-65705218D01*
X157660781Y-65705220D01*
X157751856Y-65734812D01*
X157855465Y-65768477D01*
X157956557Y-65784488D01*
X158057648Y-65800500D01*
X158057649Y-65800500D01*
X158262351Y-65800500D01*
X158262352Y-65800500D01*
X158464534Y-65768477D01*
X158659219Y-65705220D01*
X158841610Y-65612287D01*
X158970482Y-65518657D01*
X159007213Y-65491971D01*
X159007215Y-65491968D01*
X159007219Y-65491966D01*
X159151966Y-65347219D01*
X159151968Y-65347215D01*
X159151971Y-65347213D01*
X159220021Y-65253548D01*
X159272287Y-65181610D01*
X159365220Y-64999219D01*
X159428477Y-64804534D01*
X159460500Y-64602352D01*
X159460500Y-64397648D01*
X161199500Y-64397648D01*
X161199500Y-64602351D01*
X161231522Y-64804534D01*
X161294781Y-64999223D01*
X161346135Y-65100009D01*
X161387585Y-65181359D01*
X161387715Y-65181613D01*
X161508028Y-65347213D01*
X161652786Y-65491971D01*
X161748608Y-65561588D01*
X161818390Y-65612287D01*
X161934607Y-65671503D01*
X162000776Y-65705218D01*
X162000778Y-65705218D01*
X162000781Y-65705220D01*
X162091856Y-65734812D01*
X162195465Y-65768477D01*
X162296557Y-65784488D01*
X162397648Y-65800500D01*
X162397649Y-65800500D01*
X162602351Y-65800500D01*
X162602352Y-65800500D01*
X162804534Y-65768477D01*
X162999219Y-65705220D01*
X163181610Y-65612287D01*
X163310482Y-65518657D01*
X163347213Y-65491971D01*
X163347215Y-65491968D01*
X163347219Y-65491966D01*
X163491966Y-65347219D01*
X163491968Y-65347215D01*
X163491971Y-65347213D01*
X163560021Y-65253548D01*
X163612287Y-65181610D01*
X163705220Y-64999219D01*
X163768477Y-64804534D01*
X163800500Y-64602352D01*
X163800500Y-64397648D01*
X163794832Y-64361863D01*
X163768477Y-64195465D01*
X163705218Y-64000776D01*
X163653865Y-63899991D01*
X163612287Y-63818390D01*
X163580092Y-63774077D01*
X163491971Y-63652786D01*
X163347213Y-63508028D01*
X163181613Y-63387715D01*
X163181612Y-63387714D01*
X163181610Y-63387713D01*
X163112142Y-63352317D01*
X162999223Y-63294781D01*
X162894476Y-63260747D01*
X162804534Y-63231522D01*
X162629995Y-63203878D01*
X162602352Y-63199500D01*
X162397648Y-63199500D01*
X162373329Y-63203351D01*
X162195465Y-63231522D01*
X162000776Y-63294781D01*
X161818386Y-63387715D01*
X161652786Y-63508028D01*
X161508028Y-63652786D01*
X161387715Y-63818386D01*
X161294781Y-64000776D01*
X161231522Y-64195465D01*
X161199500Y-64397648D01*
X159460500Y-64397648D01*
X159454832Y-64361863D01*
X159428477Y-64195465D01*
X159365218Y-64000776D01*
X159313865Y-63899991D01*
X159272287Y-63818390D01*
X159240092Y-63774077D01*
X159151971Y-63652786D01*
X159007213Y-63508028D01*
X158841613Y-63387715D01*
X158841612Y-63387714D01*
X158841610Y-63387713D01*
X158772142Y-63352317D01*
X158659223Y-63294781D01*
X158464534Y-63231522D01*
X158289995Y-63203878D01*
X158262352Y-63199500D01*
X158057648Y-63199500D01*
X158033329Y-63203351D01*
X157855465Y-63231522D01*
X157660776Y-63294781D01*
X157478386Y-63387715D01*
X157312786Y-63508028D01*
X157168028Y-63652786D01*
X157047715Y-63818386D01*
X157000485Y-63911080D01*
X156952510Y-63961876D01*
X156884689Y-63978671D01*
X156818554Y-63956134D01*
X156779515Y-63911080D01*
X156751574Y-63856243D01*
X156732287Y-63818390D01*
X156700092Y-63774077D01*
X156611971Y-63652786D01*
X156467213Y-63508028D01*
X156301613Y-63387715D01*
X156301612Y-63387714D01*
X156301610Y-63387713D01*
X156232142Y-63352317D01*
X156119223Y-63294781D01*
X155924534Y-63231522D01*
X155749995Y-63203878D01*
X155722352Y-63199500D01*
X155517648Y-63199500D01*
X155493329Y-63203351D01*
X155315465Y-63231522D01*
X155120776Y-63294781D01*
X154938386Y-63387715D01*
X154772786Y-63508028D01*
X154628028Y-63652786D01*
X154507715Y-63818386D01*
X154460485Y-63911080D01*
X154412510Y-63961876D01*
X154344689Y-63978671D01*
X154278554Y-63956134D01*
X154239515Y-63911080D01*
X154211574Y-63856243D01*
X154192287Y-63818390D01*
X154160092Y-63774077D01*
X154071971Y-63652786D01*
X153927213Y-63508028D01*
X153761613Y-63387715D01*
X153761612Y-63387714D01*
X153761610Y-63387713D01*
X153692142Y-63352317D01*
X153579223Y-63294781D01*
X153384534Y-63231522D01*
X153209995Y-63203878D01*
X153182352Y-63199500D01*
X152977648Y-63199500D01*
X152953329Y-63203351D01*
X152775465Y-63231522D01*
X152580776Y-63294781D01*
X152398386Y-63387715D01*
X152232786Y-63508028D01*
X152088028Y-63652786D01*
X151967713Y-63818388D01*
X151920203Y-63911630D01*
X151872228Y-63962426D01*
X151804407Y-63979220D01*
X151738272Y-63956682D01*
X151699234Y-63911628D01*
X151651861Y-63818652D01*
X151619474Y-63774077D01*
X151619474Y-63774076D01*
X150940000Y-64453551D01*
X150940000Y-64447339D01*
X150912741Y-64345606D01*
X150860080Y-64254394D01*
X150785606Y-64179920D01*
X150694394Y-64127259D01*
X150592661Y-64100000D01*
X150586446Y-64100000D01*
X151265922Y-63420524D01*
X151265921Y-63420523D01*
X151221359Y-63388147D01*
X151221350Y-63388141D01*
X151039031Y-63295244D01*
X150844417Y-63232009D01*
X150642317Y-63200000D01*
X150437683Y-63200000D01*
X150235582Y-63232009D01*
X150040968Y-63295244D01*
X149858644Y-63388143D01*
X149814077Y-63420523D01*
X149814077Y-63420524D01*
X150493554Y-64100000D01*
X150487339Y-64100000D01*
X150385606Y-64127259D01*
X150294394Y-64179920D01*
X150219920Y-64254394D01*
X150167259Y-64345606D01*
X150140000Y-64447339D01*
X150140000Y-64453553D01*
X149460524Y-63774077D01*
X149460523Y-63774077D01*
X149428143Y-63818644D01*
X149380485Y-63912180D01*
X149332510Y-63962976D01*
X149264689Y-63979771D01*
X149198554Y-63957233D01*
X149159515Y-63912180D01*
X149111859Y-63818650D01*
X149079474Y-63774077D01*
X149079474Y-63774076D01*
X148400000Y-64453551D01*
X148400000Y-64447339D01*
X148372741Y-64345606D01*
X148320080Y-64254394D01*
X148245606Y-64179920D01*
X148154394Y-64127259D01*
X148052661Y-64100000D01*
X148046446Y-64100000D01*
X148725922Y-63420524D01*
X148725921Y-63420523D01*
X148681359Y-63388147D01*
X148681350Y-63388141D01*
X148499031Y-63295244D01*
X148304417Y-63232009D01*
X148102317Y-63200000D01*
X147897683Y-63200000D01*
X147695582Y-63232009D01*
X147500968Y-63295244D01*
X147318644Y-63388143D01*
X147274077Y-63420523D01*
X147274077Y-63420524D01*
X147953554Y-64100000D01*
X147947339Y-64100000D01*
X147845606Y-64127259D01*
X147754394Y-64179920D01*
X147679920Y-64254394D01*
X147627259Y-64345606D01*
X147600000Y-64447339D01*
X147600000Y-64453553D01*
X146920524Y-63774077D01*
X146920523Y-63774077D01*
X146888143Y-63818644D01*
X146840765Y-63911630D01*
X146792790Y-63962426D01*
X146724969Y-63979221D01*
X146658834Y-63956683D01*
X146619795Y-63911630D01*
X146591572Y-63856239D01*
X146572287Y-63818390D01*
X146572285Y-63818387D01*
X146572284Y-63818385D01*
X146451971Y-63652786D01*
X146307213Y-63508028D01*
X146141613Y-63387715D01*
X146141612Y-63387714D01*
X146141610Y-63387713D01*
X146072142Y-63352317D01*
X145959223Y-63294781D01*
X145764534Y-63231522D01*
X145589995Y-63203878D01*
X145562352Y-63199500D01*
X145357648Y-63199500D01*
X145333329Y-63203351D01*
X145155465Y-63231522D01*
X144960776Y-63294781D01*
X144778386Y-63387715D01*
X144612786Y-63508028D01*
X144468028Y-63652786D01*
X144347715Y-63818386D01*
X144300485Y-63911080D01*
X144252510Y-63961876D01*
X144184689Y-63978671D01*
X144118554Y-63956134D01*
X144079515Y-63911080D01*
X144051574Y-63856243D01*
X144032287Y-63818390D01*
X144000092Y-63774077D01*
X143911971Y-63652786D01*
X143767213Y-63508028D01*
X143601613Y-63387715D01*
X143601612Y-63387714D01*
X143601610Y-63387713D01*
X143532142Y-63352317D01*
X143419223Y-63294781D01*
X143224534Y-63231522D01*
X143049995Y-63203878D01*
X143022352Y-63199500D01*
X142817648Y-63199500D01*
X142793329Y-63203351D01*
X142615465Y-63231522D01*
X142420776Y-63294781D01*
X142238386Y-63387715D01*
X142072786Y-63508028D01*
X141928032Y-63652782D01*
X141928028Y-63652787D01*
X141859978Y-63746451D01*
X141804648Y-63789117D01*
X141735035Y-63795096D01*
X141673240Y-63762490D01*
X141641954Y-63712570D01*
X141635467Y-63692993D01*
X141614814Y-63630666D01*
X141522712Y-63481344D01*
X141398656Y-63357288D01*
X141249334Y-63265186D01*
X141082797Y-63210001D01*
X141082795Y-63210000D01*
X140980010Y-63199500D01*
X139779998Y-63199500D01*
X139779981Y-63199501D01*
X139677203Y-63210000D01*
X139677200Y-63210001D01*
X139510668Y-63265185D01*
X139510663Y-63265187D01*
X139361342Y-63357289D01*
X139237289Y-63481342D01*
X139145187Y-63630663D01*
X139145185Y-63630668D01*
X139128453Y-63681162D01*
X139090001Y-63797203D01*
X139090001Y-63797204D01*
X139090000Y-63797204D01*
X139079500Y-63899983D01*
X103929690Y-63899983D01*
X103853923Y-63856239D01*
X103820214Y-63836777D01*
X103820205Y-63836773D01*
X103596104Y-63743947D01*
X103478944Y-63712554D01*
X103361789Y-63681162D01*
X103361788Y-63681161D01*
X103361785Y-63681161D01*
X103121289Y-63649500D01*
X103121288Y-63649500D01*
X102878712Y-63649500D01*
X102878711Y-63649500D01*
X102638214Y-63681161D01*
X102403895Y-63743947D01*
X102179794Y-63836773D01*
X102179785Y-63836777D01*
X102050137Y-63911630D01*
X101971151Y-63957233D01*
X101969706Y-63958067D01*
X101777263Y-64105733D01*
X101777256Y-64105739D01*
X101605739Y-64277256D01*
X101605733Y-64277263D01*
X101458067Y-64469706D01*
X101336777Y-64679785D01*
X101336773Y-64679794D01*
X101243947Y-64903895D01*
X101181161Y-65138214D01*
X101149500Y-65378711D01*
X48037609Y-65378711D01*
X48119374Y-65341571D01*
X48119380Y-65341568D01*
X48218751Y-65272725D01*
X48304323Y-65213440D01*
X48304335Y-65213430D01*
X48463430Y-65054335D01*
X48463440Y-65054323D01*
X48591568Y-64869380D01*
X48591571Y-64869374D01*
X48684622Y-64664519D01*
X48739599Y-64446332D01*
X48749999Y-64314196D01*
X48750000Y-64314184D01*
X48750000Y-63750000D01*
X47933012Y-63750000D01*
X47965925Y-63692993D01*
X48000000Y-63565826D01*
X48000000Y-63434174D01*
X47965925Y-63307007D01*
X47933012Y-63250000D01*
X48749999Y-63250000D01*
X48749999Y-63147682D01*
X176905113Y-63147682D01*
X176905113Y-63352317D01*
X176937122Y-63554417D01*
X177000357Y-63749031D01*
X177093254Y-63931350D01*
X177093260Y-63931359D01*
X177125636Y-63975921D01*
X177125637Y-63975922D01*
X177805113Y-63296446D01*
X177805113Y-63302661D01*
X177832372Y-63404394D01*
X177885033Y-63495606D01*
X177959507Y-63570080D01*
X178050719Y-63622741D01*
X178152452Y-63650000D01*
X178158665Y-63650000D01*
X177479189Y-64329474D01*
X177523763Y-64361859D01*
X177706081Y-64454755D01*
X177900695Y-64517990D01*
X178102796Y-64550000D01*
X178307430Y-64550000D01*
X178509530Y-64517990D01*
X178704144Y-64454755D01*
X178886454Y-64361863D01*
X178886462Y-64361858D01*
X178956665Y-64310852D01*
X179022471Y-64287371D01*
X179090525Y-64303196D01*
X179117233Y-64323488D01*
X179186457Y-64392712D01*
X179335779Y-64484814D01*
X179502316Y-64539999D01*
X179605104Y-64550500D01*
X180805121Y-64550499D01*
X180907910Y-64539999D01*
X181074447Y-64484814D01*
X181223769Y-64392712D01*
X181347825Y-64268656D01*
X181439927Y-64119334D01*
X181495112Y-63952797D01*
X181505613Y-63850009D01*
X181505612Y-62649992D01*
X181495112Y-62547203D01*
X181439927Y-62380666D01*
X181347825Y-62231344D01*
X181223769Y-62107288D01*
X181074447Y-62015186D01*
X180907910Y-61960001D01*
X180907908Y-61960000D01*
X180805123Y-61949500D01*
X179605111Y-61949500D01*
X179605094Y-61949501D01*
X179502316Y-61960000D01*
X179502313Y-61960001D01*
X179335781Y-62015185D01*
X179335776Y-62015187D01*
X179186458Y-62107287D01*
X179117234Y-62176511D01*
X179055910Y-62209995D01*
X178986219Y-62205010D01*
X178956668Y-62189147D01*
X178886465Y-62138142D01*
X178704144Y-62045244D01*
X178509530Y-61982009D01*
X178307430Y-61950000D01*
X178102796Y-61950000D01*
X177900695Y-61982009D01*
X177706081Y-62045244D01*
X177523757Y-62138143D01*
X177479190Y-62170523D01*
X177479190Y-62170524D01*
X178158666Y-62850000D01*
X178152452Y-62850000D01*
X178050719Y-62877259D01*
X177959507Y-62929920D01*
X177885033Y-63004394D01*
X177832372Y-63095606D01*
X177805113Y-63197339D01*
X177805113Y-63203553D01*
X177125637Y-62524077D01*
X177125636Y-62524077D01*
X177093256Y-62568644D01*
X177000357Y-62750968D01*
X176937122Y-62945582D01*
X176905113Y-63147682D01*
X48749999Y-63147682D01*
X48749999Y-62685817D01*
X48749998Y-62685802D01*
X48739599Y-62553667D01*
X48684622Y-62335480D01*
X48591571Y-62130625D01*
X48591568Y-62130619D01*
X48463440Y-61945676D01*
X48463430Y-61945664D01*
X48304335Y-61786569D01*
X48304323Y-61786559D01*
X48119380Y-61658431D01*
X48119374Y-61658428D01*
X47914519Y-61565377D01*
X47696332Y-61510400D01*
X47564196Y-61500000D01*
X46750000Y-61500000D01*
X46750000Y-63000000D01*
X46250000Y-63000000D01*
X46250000Y-61500000D01*
X45435817Y-61500000D01*
X45435802Y-61500001D01*
X45303667Y-61510400D01*
X45085480Y-61565377D01*
X44880625Y-61658428D01*
X44880619Y-61658431D01*
X44695676Y-61786559D01*
X44695664Y-61786569D01*
X44536569Y-61945664D01*
X44536559Y-61945676D01*
X44408431Y-62130619D01*
X44408428Y-62130625D01*
X44315377Y-62335480D01*
X44260400Y-62553667D01*
X44250000Y-62685803D01*
X40500500Y-62685803D01*
X40500500Y-55702135D01*
X44249500Y-55702135D01*
X44249500Y-59297870D01*
X44249501Y-59297876D01*
X44255908Y-59357483D01*
X44306202Y-59492328D01*
X44306206Y-59492335D01*
X44392452Y-59607544D01*
X44392455Y-59607547D01*
X44507664Y-59693793D01*
X44507671Y-59693797D01*
X44642517Y-59744091D01*
X44642516Y-59744091D01*
X44649444Y-59744835D01*
X44702127Y-59750500D01*
X48297872Y-59750499D01*
X48357483Y-59744091D01*
X48492331Y-59693796D01*
X48607546Y-59607546D01*
X48693796Y-59492331D01*
X48711426Y-59445060D01*
X48753296Y-59389128D01*
X48818759Y-59364710D01*
X48887033Y-59379561D01*
X48936439Y-59428965D01*
X48951433Y-59494971D01*
X48949501Y-59531342D01*
X48949500Y-59531386D01*
X48949500Y-61468613D01*
X48949501Y-61468652D01*
X48952295Y-61521243D01*
X48952295Y-61521244D01*
X48993600Y-61734812D01*
X48996755Y-61751126D01*
X49015388Y-61800499D01*
X49079425Y-61970189D01*
X49197929Y-62172131D01*
X49197934Y-62172138D01*
X49348856Y-62351141D01*
X49348858Y-62351143D01*
X49527861Y-62502065D01*
X49527868Y-62502070D01*
X49729810Y-62620574D01*
X49948874Y-62703245D01*
X50178759Y-62747705D01*
X50231378Y-62750500D01*
X50231386Y-62750500D01*
X52168614Y-62750500D01*
X52168622Y-62750500D01*
X52221241Y-62747705D01*
X52451126Y-62703245D01*
X52670190Y-62620574D01*
X52872132Y-62502070D01*
X53006080Y-62389135D01*
X53051141Y-62351143D01*
X53051143Y-62351141D01*
X53202065Y-62172138D01*
X53202065Y-62172137D01*
X53202070Y-62172132D01*
X53203014Y-62170523D01*
X53212110Y-62155024D01*
X53285412Y-62030109D01*
X53320574Y-61970190D01*
X53403245Y-61751126D01*
X53447705Y-61521241D01*
X53450500Y-61468622D01*
X53450500Y-59899983D01*
X56244388Y-59899983D01*
X56244388Y-61100001D01*
X56244389Y-61100018D01*
X56254888Y-61202796D01*
X56254889Y-61202799D01*
X56288601Y-61304534D01*
X56310074Y-61369334D01*
X56402176Y-61518656D01*
X56526232Y-61642712D01*
X56675554Y-61734814D01*
X56842091Y-61789999D01*
X56944879Y-61800500D01*
X58144896Y-61800499D01*
X58247685Y-61789999D01*
X58414222Y-61734814D01*
X58563544Y-61642712D01*
X58632767Y-61573489D01*
X58694090Y-61540004D01*
X58763782Y-61544988D01*
X58793334Y-61560853D01*
X58863534Y-61611857D01*
X59045856Y-61704755D01*
X59240470Y-61767990D01*
X59442571Y-61800000D01*
X59647205Y-61800000D01*
X59849305Y-61767990D01*
X60043919Y-61704755D01*
X60226237Y-61611859D01*
X60270809Y-61579474D01*
X59591335Y-60900000D01*
X59597549Y-60900000D01*
X59699282Y-60872741D01*
X59790494Y-60820080D01*
X59864968Y-60745606D01*
X59917629Y-60654394D01*
X59944888Y-60552661D01*
X59944888Y-60546447D01*
X60624362Y-61225921D01*
X60656747Y-61181349D01*
X60749643Y-60999031D01*
X60812878Y-60804417D01*
X60844888Y-60602317D01*
X60844888Y-60397682D01*
X60812878Y-60195582D01*
X60771506Y-60068256D01*
X60771505Y-60068254D01*
X60749643Y-60000970D01*
X60656747Y-59818650D01*
X60624362Y-59774077D01*
X60624362Y-59774076D01*
X59944888Y-60453551D01*
X59944888Y-60447339D01*
X59917629Y-60345606D01*
X59864968Y-60254394D01*
X59790494Y-60179920D01*
X59699282Y-60127259D01*
X59597549Y-60100000D01*
X59591334Y-60100000D01*
X60124335Y-59567000D01*
X63537991Y-59567000D01*
X64498914Y-59567000D01*
X64494520Y-59571394D01*
X64441859Y-59662606D01*
X64414600Y-59764339D01*
X64414600Y-59869661D01*
X64441859Y-59971394D01*
X64494520Y-60062606D01*
X64498914Y-60067000D01*
X63537991Y-60067000D01*
X63546609Y-60121413D01*
X63609844Y-60316029D01*
X63702740Y-60498349D01*
X63823017Y-60663894D01*
X63823017Y-60663895D01*
X63967704Y-60808582D01*
X64133250Y-60928859D01*
X64315568Y-61021754D01*
X64510178Y-61084988D01*
X64564600Y-61093607D01*
X64564600Y-60132686D01*
X64568994Y-60137080D01*
X64660206Y-60189741D01*
X64761939Y-60217000D01*
X64867261Y-60217000D01*
X64968994Y-60189741D01*
X65060206Y-60137080D01*
X65064600Y-60132686D01*
X65064600Y-61093606D01*
X65119021Y-61084988D01*
X65313631Y-61021754D01*
X65495949Y-60928859D01*
X65661494Y-60808582D01*
X65661495Y-60808582D01*
X65806182Y-60663895D01*
X65806182Y-60663894D01*
X65926459Y-60498349D01*
X66019355Y-60316029D01*
X66082590Y-60121413D01*
X66091209Y-60067000D01*
X65130286Y-60067000D01*
X65134680Y-60062606D01*
X65187341Y-59971394D01*
X65214600Y-59869661D01*
X65214600Y-59764339D01*
X65187341Y-59662606D01*
X65134680Y-59571394D01*
X65130286Y-59567000D01*
X66091209Y-59567000D01*
X82460991Y-59567000D01*
X83421914Y-59567000D01*
X83417520Y-59571394D01*
X83364859Y-59662606D01*
X83337600Y-59764339D01*
X83337600Y-59869661D01*
X83364859Y-59971394D01*
X83417520Y-60062606D01*
X83421914Y-60067000D01*
X82460991Y-60067000D01*
X82469609Y-60121413D01*
X82532844Y-60316029D01*
X82625740Y-60498349D01*
X82746017Y-60663894D01*
X82746017Y-60663895D01*
X82890704Y-60808582D01*
X83056250Y-60928859D01*
X83238568Y-61021754D01*
X83433178Y-61084988D01*
X83487600Y-61093607D01*
X83487600Y-60132686D01*
X83491994Y-60137080D01*
X83583206Y-60189741D01*
X83684939Y-60217000D01*
X83790261Y-60217000D01*
X83891994Y-60189741D01*
X83983206Y-60137080D01*
X83987600Y-60132686D01*
X83987600Y-61093606D01*
X84042021Y-61084988D01*
X84236631Y-61021754D01*
X84418949Y-60928859D01*
X84461907Y-60897648D01*
X194199500Y-60897648D01*
X194199500Y-61102351D01*
X194231522Y-61304534D01*
X194294781Y-61499223D01*
X194335672Y-61579474D01*
X194373644Y-61653999D01*
X194387715Y-61681613D01*
X194508028Y-61847213D01*
X194652786Y-61991971D01*
X194807749Y-62104556D01*
X194818390Y-62112287D01*
X194902319Y-62155051D01*
X195000776Y-62205218D01*
X195000778Y-62205218D01*
X195000781Y-62205220D01*
X195095494Y-62235994D01*
X195160355Y-62257069D01*
X195218030Y-62296507D01*
X195245228Y-62360866D01*
X195233313Y-62429712D01*
X195186069Y-62481188D01*
X195160355Y-62492931D01*
X195000776Y-62544781D01*
X194818386Y-62637715D01*
X194652786Y-62758028D01*
X194508028Y-62902786D01*
X194387715Y-63068386D01*
X194294781Y-63250776D01*
X194231522Y-63445465D01*
X194199500Y-63647648D01*
X194199500Y-63852351D01*
X194231522Y-64054534D01*
X194294781Y-64249223D01*
X194352173Y-64361859D01*
X194381691Y-64419792D01*
X194387715Y-64431613D01*
X194508028Y-64597213D01*
X194652786Y-64741971D01*
X194771807Y-64828443D01*
X194818390Y-64862287D01*
X194932608Y-64920484D01*
X195000776Y-64955218D01*
X195000778Y-64955218D01*
X195000781Y-64955220D01*
X195105137Y-64989127D01*
X195195465Y-65018477D01*
X195296557Y-65034488D01*
X195397648Y-65050500D01*
X195397649Y-65050500D01*
X195602351Y-65050500D01*
X195602352Y-65050500D01*
X195804534Y-65018477D01*
X195999219Y-64955220D01*
X196181610Y-64862287D01*
X196278962Y-64791557D01*
X196347213Y-64741971D01*
X196347215Y-64741968D01*
X196347219Y-64741966D01*
X196491966Y-64597219D01*
X196491968Y-64597215D01*
X196491971Y-64597213D01*
X196573632Y-64484814D01*
X196612287Y-64431610D01*
X196705220Y-64249219D01*
X196768477Y-64054534D01*
X196800500Y-63852352D01*
X196800500Y-63647648D01*
X196788214Y-63570080D01*
X196768477Y-63445465D01*
X196719516Y-63294780D01*
X196705220Y-63250781D01*
X196705218Y-63250778D01*
X196705218Y-63250776D01*
X196636829Y-63116557D01*
X196612287Y-63068390D01*
X196578284Y-63021588D01*
X196491971Y-62902786D01*
X196347213Y-62758028D01*
X196181613Y-62637715D01*
X196181612Y-62637714D01*
X196181610Y-62637713D01*
X195999219Y-62544780D01*
X195891839Y-62509890D01*
X195839645Y-62492931D01*
X195781969Y-62453493D01*
X195754771Y-62389135D01*
X195766686Y-62320288D01*
X195813930Y-62268813D01*
X195839645Y-62257069D01*
X195865168Y-62248775D01*
X195999219Y-62205220D01*
X196181610Y-62112287D01*
X196315258Y-62015187D01*
X196347213Y-61991971D01*
X196347215Y-61991968D01*
X196347219Y-61991966D01*
X196491966Y-61847219D01*
X196491968Y-61847215D01*
X196491971Y-61847213D01*
X196573632Y-61734814D01*
X196612287Y-61681610D01*
X196705220Y-61499219D01*
X196768477Y-61304534D01*
X196800500Y-61102352D01*
X196800500Y-60897648D01*
X196799877Y-60893713D01*
X198029500Y-60893713D01*
X198029500Y-61106286D01*
X198062735Y-61316127D01*
X198062754Y-61316243D01*
X198112265Y-61468622D01*
X198128444Y-61518414D01*
X198224951Y-61707820D01*
X198349890Y-61879786D01*
X198500213Y-62030109D01*
X198672182Y-62155050D01*
X198680946Y-62159516D01*
X198731742Y-62207491D01*
X198748536Y-62275312D01*
X198725998Y-62341447D01*
X198680946Y-62380484D01*
X198672182Y-62384949D01*
X198500213Y-62509890D01*
X198349890Y-62660213D01*
X198224951Y-62832179D01*
X198128444Y-63021585D01*
X198062753Y-63223760D01*
X198029500Y-63433713D01*
X198029500Y-63646286D01*
X198062137Y-63852352D01*
X198062754Y-63856243D01*
X198109717Y-64000781D01*
X198128444Y-64058414D01*
X198224951Y-64247820D01*
X198349890Y-64419786D01*
X198500213Y-64570109D01*
X198672182Y-64695050D01*
X198680946Y-64699516D01*
X198731742Y-64747491D01*
X198748536Y-64815312D01*
X198725998Y-64881447D01*
X198680946Y-64920484D01*
X198672182Y-64924949D01*
X198500213Y-65049890D01*
X198349890Y-65200213D01*
X198224951Y-65372179D01*
X198128444Y-65561585D01*
X198062753Y-65763760D01*
X198039558Y-65910211D01*
X198029500Y-65973713D01*
X198029500Y-66186287D01*
X198032612Y-66205934D01*
X198061917Y-66390962D01*
X198062754Y-66396243D01*
X198127251Y-66594744D01*
X198128444Y-66598414D01*
X198224951Y-66787820D01*
X198349890Y-66959786D01*
X198500213Y-67110109D01*
X198672179Y-67235048D01*
X198672181Y-67235049D01*
X198672184Y-67235051D01*
X198681493Y-67239794D01*
X198732290Y-67287766D01*
X198749087Y-67355587D01*
X198726552Y-67421722D01*
X198681505Y-67460760D01*
X198672446Y-67465376D01*
X198672440Y-67465380D01*
X198618282Y-67504727D01*
X198618282Y-67504728D01*
X199291415Y-68177861D01*
X199206306Y-68200667D01*
X199103694Y-68259910D01*
X199019910Y-68343694D01*
X198960667Y-68446306D01*
X198937861Y-68531415D01*
X198264728Y-67858282D01*
X198264727Y-67858282D01*
X198225380Y-67912439D01*
X198128904Y-68101782D01*
X198063242Y-68303869D01*
X198063242Y-68303872D01*
X198030000Y-68513753D01*
X198030000Y-68726246D01*
X198063242Y-68936127D01*
X198063242Y-68936130D01*
X198128904Y-69138217D01*
X198225375Y-69327550D01*
X198264728Y-69381716D01*
X198937861Y-68708584D01*
X198960667Y-68793694D01*
X199019910Y-68896306D01*
X199103694Y-68980090D01*
X199206306Y-69039333D01*
X199291415Y-69062138D01*
X198618282Y-69735269D01*
X198618282Y-69735270D01*
X198672449Y-69774624D01*
X198861782Y-69871095D01*
X199063870Y-69936757D01*
X199273754Y-69970000D01*
X199486246Y-69970000D01*
X199696127Y-69936757D01*
X199696130Y-69936757D01*
X199898217Y-69871095D01*
X200087554Y-69774622D01*
X200141716Y-69735270D01*
X200141717Y-69735270D01*
X199468584Y-69062138D01*
X199553694Y-69039333D01*
X199656306Y-68980090D01*
X199740090Y-68896306D01*
X199799333Y-68793694D01*
X199822138Y-68708584D01*
X200495270Y-69381717D01*
X200495270Y-69381716D01*
X200534622Y-69327554D01*
X200631095Y-69138217D01*
X200696757Y-68936130D01*
X200696757Y-68936127D01*
X200730000Y-68726246D01*
X200730000Y-68513753D01*
X200696757Y-68303872D01*
X200696757Y-68303869D01*
X200631095Y-68101782D01*
X200534624Y-67912449D01*
X200495270Y-67858282D01*
X200495269Y-67858282D01*
X199822137Y-68531414D01*
X199799333Y-68446306D01*
X199740090Y-68343694D01*
X199656306Y-68259910D01*
X199553694Y-68200667D01*
X199468584Y-68177861D01*
X200141716Y-67504728D01*
X200087547Y-67465373D01*
X200087547Y-67465372D01*
X200078500Y-67460763D01*
X200027706Y-67412788D01*
X200010912Y-67344966D01*
X200033451Y-67278832D01*
X200078508Y-67239793D01*
X200087816Y-67235051D01*
X200167007Y-67177515D01*
X200259786Y-67110109D01*
X200259788Y-67110106D01*
X200259792Y-67110104D01*
X200410104Y-66959792D01*
X200410106Y-66959788D01*
X200410109Y-66959786D01*
X200535048Y-66787820D01*
X200535047Y-66787820D01*
X200535051Y-66787816D01*
X200631557Y-66598412D01*
X200697246Y-66396243D01*
X200730500Y-66186287D01*
X200730500Y-65973713D01*
X200697246Y-65763757D01*
X200631557Y-65561588D01*
X200535051Y-65372184D01*
X200535049Y-65372181D01*
X200535048Y-65372179D01*
X200410109Y-65200213D01*
X200259786Y-65049890D01*
X200087820Y-64924951D01*
X200087115Y-64924591D01*
X200079054Y-64920485D01*
X200028259Y-64872512D01*
X200011463Y-64804692D01*
X200033999Y-64738556D01*
X200079054Y-64699515D01*
X200087816Y-64695051D01*
X200143776Y-64654394D01*
X200259786Y-64570109D01*
X200259788Y-64570106D01*
X200259792Y-64570104D01*
X200410104Y-64419792D01*
X200410106Y-64419788D01*
X200410109Y-64419786D01*
X200535048Y-64247820D01*
X200535047Y-64247820D01*
X200535051Y-64247816D01*
X200631557Y-64058412D01*
X200697246Y-63856243D01*
X200730500Y-63646287D01*
X200730500Y-63433713D01*
X200697246Y-63223757D01*
X200631557Y-63021588D01*
X200535051Y-62832184D01*
X200535049Y-62832181D01*
X200535048Y-62832179D01*
X200410109Y-62660213D01*
X200259786Y-62509890D01*
X200087820Y-62384951D01*
X200087115Y-62384591D01*
X200079054Y-62380485D01*
X200028259Y-62332512D01*
X200011463Y-62264692D01*
X200033999Y-62198556D01*
X200079054Y-62159515D01*
X200087816Y-62155051D01*
X200153558Y-62107287D01*
X200259786Y-62030109D01*
X200259788Y-62030106D01*
X200259792Y-62030104D01*
X200410104Y-61879792D01*
X200410106Y-61879788D01*
X200410109Y-61879786D01*
X200535048Y-61707820D01*
X200535047Y-61707820D01*
X200535051Y-61707816D01*
X200539514Y-61699054D01*
X200587488Y-61648259D01*
X200655308Y-61631463D01*
X200721444Y-61653999D01*
X200760486Y-61699056D01*
X200764951Y-61707820D01*
X200889890Y-61879786D01*
X201040213Y-62030109D01*
X201212179Y-62155048D01*
X201212181Y-62155049D01*
X201212184Y-62155051D01*
X201401588Y-62251557D01*
X201603757Y-62317246D01*
X201813713Y-62350500D01*
X201813714Y-62350500D01*
X202026286Y-62350500D01*
X202026287Y-62350500D01*
X202236243Y-62317246D01*
X202438412Y-62251557D01*
X202627816Y-62155051D01*
X202693558Y-62107287D01*
X202799786Y-62030109D01*
X202799788Y-62030106D01*
X202799792Y-62030104D01*
X202950104Y-61879792D01*
X202950106Y-61879788D01*
X202950109Y-61879786D01*
X203075048Y-61707820D01*
X203075047Y-61707820D01*
X203075051Y-61707816D01*
X203079514Y-61699054D01*
X203127488Y-61648259D01*
X203195308Y-61631463D01*
X203261444Y-61653999D01*
X203300486Y-61699056D01*
X203304951Y-61707820D01*
X203429890Y-61879786D01*
X203580213Y-62030109D01*
X203752179Y-62155048D01*
X203752181Y-62155049D01*
X203752184Y-62155051D01*
X203941588Y-62251557D01*
X204143757Y-62317246D01*
X204353713Y-62350500D01*
X204353714Y-62350500D01*
X204566286Y-62350500D01*
X204566287Y-62350500D01*
X204776243Y-62317246D01*
X204978412Y-62251557D01*
X205167816Y-62155051D01*
X205233558Y-62107287D01*
X205339786Y-62030109D01*
X205339788Y-62030106D01*
X205339792Y-62030104D01*
X205490104Y-61879792D01*
X205490106Y-61879788D01*
X205490109Y-61879786D01*
X205575890Y-61761717D01*
X205615051Y-61707816D01*
X205619793Y-61698508D01*
X205667763Y-61647711D01*
X205735583Y-61630911D01*
X205801719Y-61653445D01*
X205840763Y-61698500D01*
X205845373Y-61707547D01*
X205884728Y-61761716D01*
X206557861Y-61088584D01*
X206580667Y-61173694D01*
X206639910Y-61276306D01*
X206723694Y-61360090D01*
X206826306Y-61419333D01*
X206911415Y-61442138D01*
X206238282Y-62115269D01*
X206238282Y-62115270D01*
X206292449Y-62154624D01*
X206481782Y-62251095D01*
X206683870Y-62316757D01*
X206893754Y-62350000D01*
X207106246Y-62350000D01*
X207316127Y-62316757D01*
X207316130Y-62316757D01*
X207518217Y-62251095D01*
X207707554Y-62154622D01*
X207761716Y-62115270D01*
X207761717Y-62115270D01*
X207088584Y-61442138D01*
X207173694Y-61419333D01*
X207276306Y-61360090D01*
X207360090Y-61276306D01*
X207419333Y-61173694D01*
X207442138Y-61088584D01*
X208115270Y-61761717D01*
X208115270Y-61761716D01*
X208154622Y-61707554D01*
X208251095Y-61518217D01*
X208316757Y-61316130D01*
X208316757Y-61316127D01*
X208350000Y-61106246D01*
X208350000Y-60893753D01*
X208316757Y-60683872D01*
X208316757Y-60683869D01*
X208251095Y-60481782D01*
X208154624Y-60292449D01*
X208115270Y-60238282D01*
X208115269Y-60238282D01*
X207442137Y-60911414D01*
X207419333Y-60826306D01*
X207360090Y-60723694D01*
X207276306Y-60639910D01*
X207173694Y-60580667D01*
X207088584Y-60557861D01*
X207761716Y-59884728D01*
X207707550Y-59845375D01*
X207518217Y-59748904D01*
X207316129Y-59683242D01*
X207106246Y-59650000D01*
X206893754Y-59650000D01*
X206683872Y-59683242D01*
X206683869Y-59683242D01*
X206481782Y-59748904D01*
X206292439Y-59845380D01*
X206238282Y-59884727D01*
X206238282Y-59884728D01*
X206911415Y-60557861D01*
X206826306Y-60580667D01*
X206723694Y-60639910D01*
X206639910Y-60723694D01*
X206580667Y-60826306D01*
X206557861Y-60911415D01*
X205884728Y-60238282D01*
X205884727Y-60238282D01*
X205845380Y-60292440D01*
X205845376Y-60292446D01*
X205840760Y-60301505D01*
X205792781Y-60352297D01*
X205724959Y-60369087D01*
X205658826Y-60346543D01*
X205619794Y-60301493D01*
X205615051Y-60292184D01*
X205615049Y-60292181D01*
X205615048Y-60292179D01*
X205490109Y-60120213D01*
X205339786Y-59969890D01*
X205167820Y-59844951D01*
X204978414Y-59748444D01*
X204978413Y-59748443D01*
X204978412Y-59748443D01*
X204776243Y-59682754D01*
X204776241Y-59682753D01*
X204776240Y-59682753D01*
X204597186Y-59654394D01*
X204566287Y-59649500D01*
X204353713Y-59649500D01*
X204322814Y-59654394D01*
X204143760Y-59682753D01*
X203941585Y-59748444D01*
X203752179Y-59844951D01*
X203580213Y-59969890D01*
X203429890Y-60120213D01*
X203304949Y-60292182D01*
X203300484Y-60300946D01*
X203252509Y-60351742D01*
X203184688Y-60368536D01*
X203118553Y-60345998D01*
X203079516Y-60300946D01*
X203075050Y-60292182D01*
X202950109Y-60120213D01*
X202799786Y-59969890D01*
X202627820Y-59844951D01*
X202438414Y-59748444D01*
X202438413Y-59748443D01*
X202438412Y-59748443D01*
X202236243Y-59682754D01*
X202236241Y-59682753D01*
X202236240Y-59682753D01*
X202057186Y-59654394D01*
X202026287Y-59649500D01*
X201813713Y-59649500D01*
X201782814Y-59654394D01*
X201603760Y-59682753D01*
X201401585Y-59748444D01*
X201212179Y-59844951D01*
X201040213Y-59969890D01*
X200889890Y-60120213D01*
X200764949Y-60292182D01*
X200760484Y-60300946D01*
X200712509Y-60351742D01*
X200644688Y-60368536D01*
X200578553Y-60345998D01*
X200539516Y-60300946D01*
X200535050Y-60292182D01*
X200410109Y-60120213D01*
X200259786Y-59969890D01*
X200087820Y-59844951D01*
X199898414Y-59748444D01*
X199898413Y-59748443D01*
X199898412Y-59748443D01*
X199696243Y-59682754D01*
X199696241Y-59682753D01*
X199696240Y-59682753D01*
X199517186Y-59654394D01*
X199486287Y-59649500D01*
X199273713Y-59649500D01*
X199242814Y-59654394D01*
X199063760Y-59682753D01*
X198861585Y-59748444D01*
X198672179Y-59844951D01*
X198500213Y-59969890D01*
X198349890Y-60120213D01*
X198224951Y-60292179D01*
X198128444Y-60481585D01*
X198062753Y-60683760D01*
X198029500Y-60893713D01*
X196799877Y-60893713D01*
X196768477Y-60695466D01*
X196764673Y-60683760D01*
X196733915Y-60589094D01*
X196705220Y-60500781D01*
X196705218Y-60500778D01*
X196705218Y-60500776D01*
X196638118Y-60369087D01*
X196612287Y-60318390D01*
X196593438Y-60292446D01*
X196491971Y-60152786D01*
X196347213Y-60008028D01*
X196181613Y-59887715D01*
X196181612Y-59887714D01*
X196181610Y-59887713D01*
X196098527Y-59845380D01*
X195999223Y-59794781D01*
X195804534Y-59731522D01*
X195629995Y-59703878D01*
X195602352Y-59699500D01*
X195397648Y-59699500D01*
X195373329Y-59703351D01*
X195195465Y-59731522D01*
X195000776Y-59794781D01*
X194818386Y-59887715D01*
X194652786Y-60008028D01*
X194508028Y-60152786D01*
X194387715Y-60318386D01*
X194294781Y-60500776D01*
X194231522Y-60695465D01*
X194199500Y-60897648D01*
X84461907Y-60897648D01*
X84584494Y-60808582D01*
X84584495Y-60808582D01*
X84729182Y-60663895D01*
X84729182Y-60663894D01*
X84849459Y-60498349D01*
X84860888Y-60475920D01*
X84942355Y-60316029D01*
X85005590Y-60121413D01*
X85014209Y-60067000D01*
X84053286Y-60067000D01*
X84057680Y-60062606D01*
X84110341Y-59971394D01*
X84137600Y-59869661D01*
X84137600Y-59764339D01*
X84110341Y-59662606D01*
X84057680Y-59571394D01*
X84053286Y-59567000D01*
X85014209Y-59567000D01*
X85005590Y-59512586D01*
X84979125Y-59431134D01*
X84968256Y-59397682D01*
X161200000Y-59397682D01*
X161200000Y-59602317D01*
X161232009Y-59804417D01*
X161295244Y-59999031D01*
X161388141Y-60181350D01*
X161388147Y-60181359D01*
X161420523Y-60225921D01*
X161420524Y-60225922D01*
X162100000Y-59546446D01*
X162100000Y-59552661D01*
X162127259Y-59654394D01*
X162179920Y-59745606D01*
X162254394Y-59820080D01*
X162345606Y-59872741D01*
X162447339Y-59900000D01*
X162453553Y-59900000D01*
X161774076Y-60579474D01*
X161818650Y-60611859D01*
X162000968Y-60704755D01*
X162195582Y-60767990D01*
X162397683Y-60800000D01*
X162602317Y-60800000D01*
X162789814Y-60770303D01*
X162804417Y-60767989D01*
X162999031Y-60704755D01*
X163181349Y-60611859D01*
X163225921Y-60579474D01*
X162546447Y-59900000D01*
X162552661Y-59900000D01*
X162654394Y-59872741D01*
X162745606Y-59820080D01*
X162820080Y-59745606D01*
X162872741Y-59654394D01*
X162900000Y-59552661D01*
X162900000Y-59546448D01*
X163579474Y-60225922D01*
X163579474Y-60225921D01*
X163611859Y-60181349D01*
X163704755Y-59999031D01*
X163767990Y-59804417D01*
X163800000Y-59602317D01*
X163800000Y-59397682D01*
X163784784Y-59301613D01*
X163767990Y-59195582D01*
X163704755Y-59000968D01*
X163611859Y-58818650D01*
X163579474Y-58774077D01*
X163579474Y-58774076D01*
X162900000Y-59453551D01*
X162900000Y-59447339D01*
X162872741Y-59345606D01*
X162820080Y-59254394D01*
X162745606Y-59179920D01*
X162654394Y-59127259D01*
X162552661Y-59100000D01*
X162546446Y-59100000D01*
X163225922Y-58420524D01*
X163225921Y-58420523D01*
X163181359Y-58388147D01*
X163181350Y-58388141D01*
X162999031Y-58295244D01*
X162892859Y-58260747D01*
X162804417Y-58232009D01*
X162602317Y-58200000D01*
X162397683Y-58200000D01*
X162195582Y-58232009D01*
X162000968Y-58295244D01*
X161818644Y-58388143D01*
X161774077Y-58420523D01*
X161774077Y-58420524D01*
X162453554Y-59100000D01*
X162447339Y-59100000D01*
X162345606Y-59127259D01*
X162254394Y-59179920D01*
X162179920Y-59254394D01*
X162127259Y-59345606D01*
X162100000Y-59447339D01*
X162100000Y-59453553D01*
X161420524Y-58774077D01*
X161420523Y-58774077D01*
X161388143Y-58818644D01*
X161295244Y-59000968D01*
X161232009Y-59195582D01*
X161200000Y-59397682D01*
X84968256Y-59397682D01*
X84942355Y-59317970D01*
X84849459Y-59135650D01*
X84729182Y-58970105D01*
X84729182Y-58970104D01*
X84584495Y-58825417D01*
X84418947Y-58705138D01*
X84338119Y-58663954D01*
X84330823Y-58657063D01*
X84321379Y-58653678D01*
X84305849Y-58633477D01*
X84287324Y-58615980D01*
X84284912Y-58606240D01*
X84278796Y-58598284D01*
X84276653Y-58572891D01*
X84270529Y-58548159D01*
X84273765Y-58538661D01*
X84272922Y-58528662D01*
X84284847Y-58506142D01*
X84293067Y-58482024D01*
X84301796Y-58474138D01*
X84305621Y-58466916D01*
X84328179Y-58450305D01*
X84333603Y-58445406D01*
X84479604Y-58363244D01*
X84609895Y-58268582D01*
X84754582Y-58123895D01*
X84754582Y-58123894D01*
X84874148Y-57959329D01*
X84874860Y-57958348D01*
X84967755Y-57776029D01*
X85030990Y-57581413D01*
X85039609Y-57527000D01*
X84078686Y-57527000D01*
X84083080Y-57522606D01*
X84135741Y-57431394D01*
X84163000Y-57329661D01*
X84163000Y-57224339D01*
X84135741Y-57122606D01*
X84083080Y-57031394D01*
X84078686Y-57027000D01*
X85039609Y-57027000D01*
X85030990Y-56972586D01*
X85017522Y-56931134D01*
X85006653Y-56897682D01*
X130450000Y-56897682D01*
X130450000Y-57102317D01*
X130482009Y-57304417D01*
X130545244Y-57499031D01*
X130638141Y-57681350D01*
X130638147Y-57681359D01*
X130670523Y-57725921D01*
X130670524Y-57725922D01*
X131350000Y-57046446D01*
X131350000Y-57052661D01*
X131377259Y-57154394D01*
X131429920Y-57245606D01*
X131504394Y-57320080D01*
X131595606Y-57372741D01*
X131697339Y-57400000D01*
X131703553Y-57400000D01*
X131024076Y-58079474D01*
X131068650Y-58111859D01*
X131250968Y-58204755D01*
X131445582Y-58267990D01*
X131647683Y-58300000D01*
X131852317Y-58300000D01*
X132054417Y-58267990D01*
X132249031Y-58204755D01*
X132431349Y-58111859D01*
X132475921Y-58079474D01*
X131796447Y-57400000D01*
X131802661Y-57400000D01*
X131904394Y-57372741D01*
X131995606Y-57320080D01*
X132070080Y-57245606D01*
X132122741Y-57154394D01*
X132150000Y-57052661D01*
X132150000Y-57046447D01*
X132829474Y-57725921D01*
X132861859Y-57681349D01*
X132954755Y-57499031D01*
X133017990Y-57304417D01*
X133050000Y-57102317D01*
X133050000Y-56897682D01*
X133049995Y-56897648D01*
X135449500Y-56897648D01*
X135449500Y-57102351D01*
X135481522Y-57304534D01*
X135544781Y-57499223D01*
X135586660Y-57581413D01*
X135637585Y-57681359D01*
X135637715Y-57681613D01*
X135758028Y-57847213D01*
X135902786Y-57991971D01*
X136023226Y-58079474D01*
X136068390Y-58112287D01*
X136139417Y-58148477D01*
X136250776Y-58205218D01*
X136250778Y-58205218D01*
X136250781Y-58205220D01*
X136333229Y-58232009D01*
X136445465Y-58268477D01*
X136546557Y-58284488D01*
X136647648Y-58300500D01*
X136647649Y-58300500D01*
X136852351Y-58300500D01*
X136852352Y-58300500D01*
X137054534Y-58268477D01*
X137249219Y-58205220D01*
X137431610Y-58112287D01*
X137524590Y-58044732D01*
X137597213Y-57991971D01*
X137597215Y-57991968D01*
X137597219Y-57991966D01*
X137741966Y-57847219D01*
X137741968Y-57847215D01*
X137741971Y-57847213D01*
X137829150Y-57727219D01*
X137862287Y-57681610D01*
X137955220Y-57499219D01*
X138018477Y-57304534D01*
X138050500Y-57102352D01*
X138050500Y-56897648D01*
X138031494Y-56777648D01*
X139079500Y-56777648D01*
X139079500Y-56982351D01*
X139111522Y-57184534D01*
X139174781Y-57379223D01*
X139235827Y-57499031D01*
X139267585Y-57561359D01*
X139267715Y-57561613D01*
X139388028Y-57727213D01*
X139532786Y-57871971D01*
X139653226Y-57959474D01*
X139698390Y-57992287D01*
X139814607Y-58051503D01*
X139880776Y-58085218D01*
X139880778Y-58085218D01*
X139880781Y-58085220D01*
X139964085Y-58112287D01*
X140075465Y-58148477D01*
X140176557Y-58164488D01*
X140277648Y-58180500D01*
X140277649Y-58180500D01*
X140482351Y-58180500D01*
X140482352Y-58180500D01*
X140684534Y-58148477D01*
X140879219Y-58085220D01*
X141061610Y-57992287D01*
X141193525Y-57896446D01*
X141227213Y-57871971D01*
X141227215Y-57871968D01*
X141227219Y-57871966D01*
X141371966Y-57727219D01*
X141371968Y-57727215D01*
X141371971Y-57727213D01*
X141487172Y-57568650D01*
X141492287Y-57561610D01*
X141539516Y-57468917D01*
X141587489Y-57418123D01*
X141655310Y-57401328D01*
X141721445Y-57423865D01*
X141760483Y-57468917D01*
X141788589Y-57524077D01*
X141807715Y-57561614D01*
X141928028Y-57727213D01*
X142072786Y-57871971D01*
X142193226Y-57959474D01*
X142238390Y-57992287D01*
X142354607Y-58051503D01*
X142420776Y-58085218D01*
X142420778Y-58085218D01*
X142420781Y-58085220D01*
X142504085Y-58112287D01*
X142615465Y-58148477D01*
X142716557Y-58164488D01*
X142817648Y-58180500D01*
X142817649Y-58180500D01*
X143022351Y-58180500D01*
X143022352Y-58180500D01*
X143224534Y-58148477D01*
X143419219Y-58085220D01*
X143601610Y-57992287D01*
X143733525Y-57896446D01*
X143767213Y-57871971D01*
X143767215Y-57871968D01*
X143767219Y-57871966D01*
X143911966Y-57727219D01*
X143911968Y-57727215D01*
X143911971Y-57727213D01*
X144027172Y-57568650D01*
X144032287Y-57561610D01*
X144079516Y-57468917D01*
X144127489Y-57418123D01*
X144195310Y-57401328D01*
X144261445Y-57423865D01*
X144300483Y-57468917D01*
X144328589Y-57524077D01*
X144347715Y-57561614D01*
X144468028Y-57727213D01*
X144612786Y-57871971D01*
X144733226Y-57959474D01*
X144778390Y-57992287D01*
X144894607Y-58051503D01*
X144960776Y-58085218D01*
X144960778Y-58085218D01*
X144960781Y-58085220D01*
X145044085Y-58112287D01*
X145155465Y-58148477D01*
X145256557Y-58164488D01*
X145357648Y-58180500D01*
X145357649Y-58180500D01*
X145562351Y-58180500D01*
X145562352Y-58180500D01*
X145764534Y-58148477D01*
X145959219Y-58085220D01*
X146141610Y-57992287D01*
X146273525Y-57896446D01*
X146307213Y-57871971D01*
X146307215Y-57871968D01*
X146307219Y-57871966D01*
X146451966Y-57727219D01*
X146451968Y-57727215D01*
X146451971Y-57727213D01*
X146567172Y-57568650D01*
X146572287Y-57561610D01*
X146619795Y-57468369D01*
X146667769Y-57417573D01*
X146735590Y-57400778D01*
X146801725Y-57423315D01*
X146840765Y-57468369D01*
X146888141Y-57561350D01*
X146888147Y-57561359D01*
X146920523Y-57605921D01*
X146920524Y-57605922D01*
X147600000Y-56926446D01*
X147600000Y-56932661D01*
X147627259Y-57034394D01*
X147679920Y-57125606D01*
X147754394Y-57200080D01*
X147845606Y-57252741D01*
X147947339Y-57280000D01*
X147953553Y-57280000D01*
X147274076Y-57959474D01*
X147318650Y-57991859D01*
X147500968Y-58084755D01*
X147695582Y-58147990D01*
X147897683Y-58180000D01*
X148102317Y-58180000D01*
X148304417Y-58147990D01*
X148499031Y-58084755D01*
X148681349Y-57991859D01*
X148725921Y-57959474D01*
X148046447Y-57280000D01*
X148052661Y-57280000D01*
X148154394Y-57252741D01*
X148245606Y-57200080D01*
X148320080Y-57125606D01*
X148372741Y-57034394D01*
X148400000Y-56932661D01*
X148400000Y-56926448D01*
X149079474Y-57605922D01*
X149079474Y-57605921D01*
X149111861Y-57561347D01*
X149111861Y-57561346D01*
X149159515Y-57467820D01*
X149207489Y-57417024D01*
X149275310Y-57400228D01*
X149341445Y-57422765D01*
X149380485Y-57467819D01*
X149428141Y-57561350D01*
X149428147Y-57561359D01*
X149460523Y-57605921D01*
X149460524Y-57605922D01*
X150140000Y-56926446D01*
X150140000Y-56932661D01*
X150167259Y-57034394D01*
X150219920Y-57125606D01*
X150294394Y-57200080D01*
X150385606Y-57252741D01*
X150487339Y-57280000D01*
X150493553Y-57280000D01*
X149814076Y-57959474D01*
X149858650Y-57991859D01*
X150040968Y-58084755D01*
X150235582Y-58147990D01*
X150437683Y-58180000D01*
X150642317Y-58180000D01*
X150844417Y-58147990D01*
X151039031Y-58084755D01*
X151221349Y-57991859D01*
X151265921Y-57959474D01*
X150586447Y-57280000D01*
X150592661Y-57280000D01*
X150694394Y-57252741D01*
X150785606Y-57200080D01*
X150860080Y-57125606D01*
X150912741Y-57034394D01*
X150940000Y-56932661D01*
X150940000Y-56926447D01*
X151619474Y-57605921D01*
X151651861Y-57561347D01*
X151651861Y-57561346D01*
X151699234Y-57468371D01*
X151747208Y-57417575D01*
X151815028Y-57400779D01*
X151881164Y-57423316D01*
X151920203Y-57468369D01*
X151967713Y-57561611D01*
X152088028Y-57727213D01*
X152232786Y-57871971D01*
X152353226Y-57959474D01*
X152398390Y-57992287D01*
X152514607Y-58051503D01*
X152580776Y-58085218D01*
X152580778Y-58085218D01*
X152580781Y-58085220D01*
X152664085Y-58112287D01*
X152775465Y-58148477D01*
X152876557Y-58164488D01*
X152977648Y-58180500D01*
X152977649Y-58180500D01*
X153182351Y-58180500D01*
X153182352Y-58180500D01*
X153384534Y-58148477D01*
X153579219Y-58085220D01*
X153761610Y-57992287D01*
X153893525Y-57896446D01*
X153927213Y-57871971D01*
X153927215Y-57871968D01*
X153927219Y-57871966D01*
X154071966Y-57727219D01*
X154071968Y-57727215D01*
X154071971Y-57727213D01*
X154187172Y-57568650D01*
X154192287Y-57561610D01*
X154239516Y-57468917D01*
X154287489Y-57418123D01*
X154355310Y-57401328D01*
X154421445Y-57423865D01*
X154460483Y-57468917D01*
X154488589Y-57524077D01*
X154507715Y-57561614D01*
X154628028Y-57727213D01*
X154772786Y-57871971D01*
X154893226Y-57959474D01*
X154938390Y-57992287D01*
X155054607Y-58051503D01*
X155120776Y-58085218D01*
X155120778Y-58085218D01*
X155120781Y-58085220D01*
X155204085Y-58112287D01*
X155315465Y-58148477D01*
X155416557Y-58164488D01*
X155517648Y-58180500D01*
X155517649Y-58180500D01*
X155722351Y-58180500D01*
X155722352Y-58180500D01*
X155924534Y-58148477D01*
X156119219Y-58085220D01*
X156301610Y-57992287D01*
X156433525Y-57896446D01*
X156467213Y-57871971D01*
X156467215Y-57871968D01*
X156467219Y-57871966D01*
X156611966Y-57727219D01*
X156611968Y-57727215D01*
X156611971Y-57727213D01*
X156727172Y-57568650D01*
X156732287Y-57561610D01*
X156779516Y-57468917D01*
X156827489Y-57418123D01*
X156895310Y-57401328D01*
X156961445Y-57423865D01*
X157000483Y-57468917D01*
X157028589Y-57524077D01*
X157047715Y-57561614D01*
X157168028Y-57727213D01*
X157312786Y-57871971D01*
X157433226Y-57959474D01*
X157478390Y-57992287D01*
X157594607Y-58051503D01*
X157660776Y-58085218D01*
X157660778Y-58085218D01*
X157660781Y-58085220D01*
X157744085Y-58112287D01*
X157855465Y-58148477D01*
X157956557Y-58164488D01*
X158057648Y-58180500D01*
X158057649Y-58180500D01*
X158262351Y-58180500D01*
X158262352Y-58180500D01*
X158464534Y-58148477D01*
X158466981Y-58147682D01*
X171450000Y-58147682D01*
X171450000Y-58352317D01*
X171482009Y-58554417D01*
X171545244Y-58749031D01*
X171638141Y-58931350D01*
X171638147Y-58931359D01*
X171670523Y-58975921D01*
X171670524Y-58975922D01*
X172350000Y-58296446D01*
X172350000Y-58302661D01*
X172377259Y-58404394D01*
X172429920Y-58495606D01*
X172504394Y-58570080D01*
X172595606Y-58622741D01*
X172697339Y-58650000D01*
X172703553Y-58650000D01*
X172024076Y-59329474D01*
X172068650Y-59361859D01*
X172250968Y-59454755D01*
X172445582Y-59517990D01*
X172647683Y-59550000D01*
X172852317Y-59550000D01*
X173054417Y-59517990D01*
X173249031Y-59454755D01*
X173431349Y-59361859D01*
X173475921Y-59329474D01*
X172796447Y-58650000D01*
X172802661Y-58650000D01*
X172904394Y-58622741D01*
X172995606Y-58570080D01*
X173070080Y-58495606D01*
X173122741Y-58404394D01*
X173150000Y-58302661D01*
X173150000Y-58296447D01*
X173829474Y-58975921D01*
X173861859Y-58931349D01*
X173954755Y-58749031D01*
X174017990Y-58554417D01*
X174050000Y-58352317D01*
X174050000Y-58147682D01*
X174017990Y-57945582D01*
X173954755Y-57750968D01*
X173861859Y-57568650D01*
X173829474Y-57524077D01*
X173829474Y-57524076D01*
X173150000Y-58203551D01*
X173150000Y-58197339D01*
X173122741Y-58095606D01*
X173070080Y-58004394D01*
X172995606Y-57929920D01*
X172904394Y-57877259D01*
X172802661Y-57850000D01*
X172796446Y-57850000D01*
X173475922Y-57170524D01*
X173475921Y-57170523D01*
X173431359Y-57138147D01*
X173431350Y-57138141D01*
X173249031Y-57045244D01*
X173054417Y-56982009D01*
X172852317Y-56950000D01*
X172647683Y-56950000D01*
X172445582Y-56982009D01*
X172250968Y-57045244D01*
X172068644Y-57138143D01*
X172024077Y-57170523D01*
X172024077Y-57170524D01*
X172703554Y-57850000D01*
X172697339Y-57850000D01*
X172595606Y-57877259D01*
X172504394Y-57929920D01*
X172429920Y-58004394D01*
X172377259Y-58095606D01*
X172350000Y-58197339D01*
X172350000Y-58203553D01*
X171670524Y-57524077D01*
X171670523Y-57524077D01*
X171638143Y-57568644D01*
X171545244Y-57750968D01*
X171482009Y-57945582D01*
X171450000Y-58147682D01*
X158466981Y-58147682D01*
X158659219Y-58085220D01*
X158841610Y-57992287D01*
X158973525Y-57896446D01*
X159007213Y-57871971D01*
X159007215Y-57871968D01*
X159007219Y-57871966D01*
X159151966Y-57727219D01*
X159151968Y-57727215D01*
X159151971Y-57727213D01*
X159208257Y-57649741D01*
X159272287Y-57561610D01*
X159365220Y-57379219D01*
X159428477Y-57184534D01*
X159460500Y-56982352D01*
X159460500Y-56777648D01*
X159447502Y-56695582D01*
X159428477Y-56575465D01*
X159381246Y-56430104D01*
X159365220Y-56380781D01*
X159365218Y-56380778D01*
X159365218Y-56380776D01*
X159343682Y-56338510D01*
X159332238Y-56316052D01*
X159272287Y-56198390D01*
X159248130Y-56165140D01*
X159151971Y-56032786D01*
X159007213Y-55888028D01*
X158841613Y-55767715D01*
X158841612Y-55767714D01*
X158841610Y-55767713D01*
X158770583Y-55731523D01*
X158659223Y-55674781D01*
X158464534Y-55611522D01*
X158289995Y-55583878D01*
X158262352Y-55579500D01*
X158057648Y-55579500D01*
X158033329Y-55583351D01*
X157855465Y-55611522D01*
X157660776Y-55674781D01*
X157478386Y-55767715D01*
X157312786Y-55888028D01*
X157168028Y-56032786D01*
X157047715Y-56198386D01*
X157000485Y-56291080D01*
X156952510Y-56341876D01*
X156884689Y-56358671D01*
X156818554Y-56336134D01*
X156779515Y-56291080D01*
X156778883Y-56289840D01*
X156732287Y-56198390D01*
X156708130Y-56165140D01*
X156611971Y-56032786D01*
X156467213Y-55888028D01*
X156301613Y-55767715D01*
X156301612Y-55767714D01*
X156301610Y-55767713D01*
X156230583Y-55731523D01*
X156119223Y-55674781D01*
X155924534Y-55611522D01*
X155749995Y-55583878D01*
X155722352Y-55579500D01*
X155517648Y-55579500D01*
X155493329Y-55583351D01*
X155315465Y-55611522D01*
X155120776Y-55674781D01*
X154938386Y-55767715D01*
X154772786Y-55888028D01*
X154628028Y-56032786D01*
X154507715Y-56198386D01*
X154460485Y-56291080D01*
X154412510Y-56341876D01*
X154344689Y-56358671D01*
X154278554Y-56336134D01*
X154239515Y-56291080D01*
X154238883Y-56289840D01*
X154192287Y-56198390D01*
X154168130Y-56165140D01*
X154071971Y-56032786D01*
X153927213Y-55888028D01*
X153761613Y-55767715D01*
X153761612Y-55767714D01*
X153761610Y-55767713D01*
X153690583Y-55731523D01*
X153579223Y-55674781D01*
X153384534Y-55611522D01*
X153209995Y-55583878D01*
X153182352Y-55579500D01*
X152977648Y-55579500D01*
X152953329Y-55583351D01*
X152775465Y-55611522D01*
X152580776Y-55674781D01*
X152398386Y-55767715D01*
X152232786Y-55888028D01*
X152088028Y-56032786D01*
X151967713Y-56198388D01*
X151920203Y-56291630D01*
X151872228Y-56342426D01*
X151804407Y-56359220D01*
X151738272Y-56336682D01*
X151699234Y-56291628D01*
X151651861Y-56198652D01*
X151619474Y-56154077D01*
X151619474Y-56154076D01*
X150940000Y-56833551D01*
X150940000Y-56827339D01*
X150912741Y-56725606D01*
X150860080Y-56634394D01*
X150785606Y-56559920D01*
X150694394Y-56507259D01*
X150592661Y-56480000D01*
X150586446Y-56480000D01*
X151265922Y-55800524D01*
X151265921Y-55800523D01*
X151221359Y-55768147D01*
X151221350Y-55768141D01*
X151039031Y-55675244D01*
X150844417Y-55612009D01*
X150642317Y-55580000D01*
X150437683Y-55580000D01*
X150235582Y-55612009D01*
X150040968Y-55675244D01*
X149858644Y-55768143D01*
X149814077Y-55800523D01*
X149814077Y-55800524D01*
X150493554Y-56480000D01*
X150487339Y-56480000D01*
X150385606Y-56507259D01*
X150294394Y-56559920D01*
X150219920Y-56634394D01*
X150167259Y-56725606D01*
X150140000Y-56827339D01*
X150140000Y-56833553D01*
X149460524Y-56154077D01*
X149460523Y-56154077D01*
X149428143Y-56198644D01*
X149380485Y-56292180D01*
X149332510Y-56342976D01*
X149264689Y-56359771D01*
X149198554Y-56337233D01*
X149159515Y-56292180D01*
X149111859Y-56198650D01*
X149079474Y-56154077D01*
X149079474Y-56154076D01*
X148400000Y-56833551D01*
X148400000Y-56827339D01*
X148372741Y-56725606D01*
X148320080Y-56634394D01*
X148245606Y-56559920D01*
X148154394Y-56507259D01*
X148052661Y-56480000D01*
X148046446Y-56480000D01*
X148725922Y-55800524D01*
X148725921Y-55800523D01*
X148681359Y-55768147D01*
X148681350Y-55768141D01*
X148499031Y-55675244D01*
X148304417Y-55612009D01*
X148102317Y-55580000D01*
X147897683Y-55580000D01*
X147695582Y-55612009D01*
X147500968Y-55675244D01*
X147318644Y-55768143D01*
X147274077Y-55800523D01*
X147274077Y-55800524D01*
X147953554Y-56480000D01*
X147947339Y-56480000D01*
X147845606Y-56507259D01*
X147754394Y-56559920D01*
X147679920Y-56634394D01*
X147627259Y-56725606D01*
X147600000Y-56827339D01*
X147600000Y-56833553D01*
X146920524Y-56154077D01*
X146920523Y-56154077D01*
X146888143Y-56198644D01*
X146840765Y-56291630D01*
X146792790Y-56342426D01*
X146724969Y-56359221D01*
X146658834Y-56336683D01*
X146619795Y-56291630D01*
X146619515Y-56291080D01*
X146572287Y-56198390D01*
X146572285Y-56198387D01*
X146572284Y-56198385D01*
X146451971Y-56032786D01*
X146307213Y-55888028D01*
X146141613Y-55767715D01*
X146141612Y-55767714D01*
X146141610Y-55767713D01*
X146070583Y-55731523D01*
X145959223Y-55674781D01*
X145764534Y-55611522D01*
X145589995Y-55583878D01*
X145562352Y-55579500D01*
X145357648Y-55579500D01*
X145333329Y-55583351D01*
X145155465Y-55611522D01*
X144960776Y-55674781D01*
X144778386Y-55767715D01*
X144612786Y-55888028D01*
X144468028Y-56032786D01*
X144347715Y-56198386D01*
X144300485Y-56291080D01*
X144252510Y-56341876D01*
X144184689Y-56358671D01*
X144118554Y-56336134D01*
X144079515Y-56291080D01*
X144078883Y-56289840D01*
X144032287Y-56198390D01*
X144008130Y-56165140D01*
X143911971Y-56032786D01*
X143767213Y-55888028D01*
X143601613Y-55767715D01*
X143601612Y-55767714D01*
X143601610Y-55767713D01*
X143530583Y-55731523D01*
X143419223Y-55674781D01*
X143224534Y-55611522D01*
X143049995Y-55583878D01*
X143022352Y-55579500D01*
X142817648Y-55579500D01*
X142793329Y-55583351D01*
X142615465Y-55611522D01*
X142420776Y-55674781D01*
X142238386Y-55767715D01*
X142072786Y-55888028D01*
X141928028Y-56032786D01*
X141807715Y-56198386D01*
X141760485Y-56291080D01*
X141712510Y-56341876D01*
X141644689Y-56358671D01*
X141578554Y-56336134D01*
X141539515Y-56291080D01*
X141538883Y-56289840D01*
X141492287Y-56198390D01*
X141468130Y-56165140D01*
X141371971Y-56032786D01*
X141227213Y-55888028D01*
X141061613Y-55767715D01*
X141061612Y-55767714D01*
X141061610Y-55767713D01*
X140990583Y-55731523D01*
X140879223Y-55674781D01*
X140684534Y-55611522D01*
X140509995Y-55583878D01*
X140482352Y-55579500D01*
X140277648Y-55579500D01*
X140253329Y-55583351D01*
X140075465Y-55611522D01*
X139880776Y-55674781D01*
X139698386Y-55767715D01*
X139532786Y-55888028D01*
X139388028Y-56032786D01*
X139267715Y-56198386D01*
X139174781Y-56380776D01*
X139111522Y-56575465D01*
X139079500Y-56777648D01*
X138031494Y-56777648D01*
X138018477Y-56695466D01*
X137955220Y-56500781D01*
X137955218Y-56500778D01*
X137955218Y-56500776D01*
X137903869Y-56400000D01*
X137862287Y-56318390D01*
X137852135Y-56304417D01*
X137741971Y-56152786D01*
X137597213Y-56008028D01*
X137431613Y-55887715D01*
X137431612Y-55887714D01*
X137431610Y-55887713D01*
X137374653Y-55858691D01*
X137249223Y-55794781D01*
X137054534Y-55731522D01*
X136868988Y-55702135D01*
X136852352Y-55699500D01*
X136647648Y-55699500D01*
X136631012Y-55702135D01*
X136445465Y-55731522D01*
X136250776Y-55794781D01*
X136068386Y-55887715D01*
X135902786Y-56008028D01*
X135758028Y-56152786D01*
X135637715Y-56318386D01*
X135544781Y-56500776D01*
X135481522Y-56695465D01*
X135449500Y-56897648D01*
X133049995Y-56897648D01*
X133017990Y-56695582D01*
X132954755Y-56500968D01*
X132861859Y-56318650D01*
X132829474Y-56274077D01*
X132829474Y-56274076D01*
X132150000Y-56953551D01*
X132150000Y-56947339D01*
X132122741Y-56845606D01*
X132070080Y-56754394D01*
X131995606Y-56679920D01*
X131904394Y-56627259D01*
X131802661Y-56600000D01*
X131796446Y-56600000D01*
X132475922Y-55920524D01*
X132475921Y-55920523D01*
X132431359Y-55888147D01*
X132431350Y-55888141D01*
X132249031Y-55795244D01*
X132054417Y-55732009D01*
X131852317Y-55700000D01*
X131647683Y-55700000D01*
X131445582Y-55732009D01*
X131250968Y-55795244D01*
X131068644Y-55888143D01*
X131024077Y-55920523D01*
X131024077Y-55920524D01*
X131703554Y-56600000D01*
X131697339Y-56600000D01*
X131595606Y-56627259D01*
X131504394Y-56679920D01*
X131429920Y-56754394D01*
X131377259Y-56845606D01*
X131350000Y-56947339D01*
X131350000Y-56953553D01*
X130670524Y-56274077D01*
X130670523Y-56274077D01*
X130638143Y-56318644D01*
X130545244Y-56500968D01*
X130482009Y-56695582D01*
X130450000Y-56897682D01*
X85006653Y-56897682D01*
X84967755Y-56777970D01*
X84874859Y-56595650D01*
X84754582Y-56430105D01*
X84754582Y-56430104D01*
X84609895Y-56285417D01*
X84444349Y-56165140D01*
X84273852Y-56078268D01*
X84262029Y-56072244D01*
X84067413Y-56009009D01*
X84013000Y-56000390D01*
X84013000Y-56961314D01*
X84008606Y-56956920D01*
X83917394Y-56904259D01*
X83815661Y-56877000D01*
X83710339Y-56877000D01*
X83608606Y-56904259D01*
X83517394Y-56956920D01*
X83513000Y-56961314D01*
X83513000Y-56000390D01*
X83458586Y-56009009D01*
X83263970Y-56072244D01*
X83081650Y-56165140D01*
X82916105Y-56285417D01*
X82916104Y-56285417D01*
X82771417Y-56430104D01*
X82771417Y-56430105D01*
X82651140Y-56595650D01*
X82558244Y-56777970D01*
X82495009Y-56972586D01*
X82486391Y-57027000D01*
X83447314Y-57027000D01*
X83442920Y-57031394D01*
X83390259Y-57122606D01*
X83363000Y-57224339D01*
X83363000Y-57329661D01*
X83390259Y-57431394D01*
X83442920Y-57522606D01*
X83447314Y-57527000D01*
X82486391Y-57527000D01*
X82495009Y-57581413D01*
X82558244Y-57776029D01*
X82651140Y-57958349D01*
X82771417Y-58123894D01*
X82771417Y-58123895D01*
X82916104Y-58268582D01*
X83081650Y-58388859D01*
X83162479Y-58430044D01*
X83213275Y-58478019D01*
X83230070Y-58545840D01*
X83207532Y-58611975D01*
X83162479Y-58651014D01*
X83056250Y-58705140D01*
X82890705Y-58825417D01*
X82890704Y-58825417D01*
X82746017Y-58970104D01*
X82746017Y-58970105D01*
X82625740Y-59135650D01*
X82532844Y-59317970D01*
X82469609Y-59512586D01*
X82460991Y-59567000D01*
X66091209Y-59567000D01*
X66082590Y-59512586D01*
X66019355Y-59317970D01*
X65926459Y-59135650D01*
X65806182Y-58970105D01*
X65806182Y-58970104D01*
X65661495Y-58825417D01*
X65495947Y-58705138D01*
X65415119Y-58663954D01*
X65364324Y-58615980D01*
X65347529Y-58548159D01*
X65370067Y-58482024D01*
X65415121Y-58442985D01*
X65521347Y-58388861D01*
X65686894Y-58268582D01*
X65686895Y-58268582D01*
X65831582Y-58123895D01*
X65831582Y-58123894D01*
X65951859Y-57958349D01*
X66044755Y-57776029D01*
X66107990Y-57581413D01*
X66116609Y-57527000D01*
X65155686Y-57527000D01*
X65160080Y-57522606D01*
X65212741Y-57431394D01*
X65240000Y-57329661D01*
X65240000Y-57224339D01*
X65212741Y-57122606D01*
X65160080Y-57031394D01*
X65155686Y-57027000D01*
X66116609Y-57027000D01*
X66107990Y-56972586D01*
X66044755Y-56777970D01*
X65951859Y-56595650D01*
X65831582Y-56430105D01*
X65831582Y-56430104D01*
X65686895Y-56285417D01*
X65521349Y-56165140D01*
X65339029Y-56072244D01*
X65144413Y-56009009D01*
X65090000Y-56000390D01*
X65090000Y-56961314D01*
X65085606Y-56956920D01*
X64994394Y-56904259D01*
X64892661Y-56877000D01*
X64787339Y-56877000D01*
X64685606Y-56904259D01*
X64594394Y-56956920D01*
X64590000Y-56961314D01*
X64590000Y-56000390D01*
X64535586Y-56009009D01*
X64340970Y-56072244D01*
X64158650Y-56165140D01*
X63993105Y-56285417D01*
X63993104Y-56285417D01*
X63848417Y-56430104D01*
X63848417Y-56430105D01*
X63728140Y-56595650D01*
X63635244Y-56777970D01*
X63572009Y-56972586D01*
X63563391Y-57027000D01*
X64524314Y-57027000D01*
X64519920Y-57031394D01*
X64467259Y-57122606D01*
X64440000Y-57224339D01*
X64440000Y-57329661D01*
X64467259Y-57431394D01*
X64519920Y-57522606D01*
X64524314Y-57527000D01*
X63563391Y-57527000D01*
X63572009Y-57581413D01*
X63635244Y-57776029D01*
X63728140Y-57958349D01*
X63848417Y-58123894D01*
X63848417Y-58123895D01*
X63993104Y-58268582D01*
X64158650Y-58388859D01*
X64239479Y-58430044D01*
X64290275Y-58478019D01*
X64307070Y-58545840D01*
X64284532Y-58611975D01*
X64239479Y-58651014D01*
X64133250Y-58705140D01*
X63967705Y-58825417D01*
X63967704Y-58825417D01*
X63823017Y-58970104D01*
X63823017Y-58970105D01*
X63702740Y-59135650D01*
X63609844Y-59317970D01*
X63546609Y-59512586D01*
X63537991Y-59567000D01*
X60124335Y-59567000D01*
X60174953Y-59516382D01*
X60270810Y-59420524D01*
X60270809Y-59420523D01*
X60226247Y-59388147D01*
X60226238Y-59388141D01*
X60043919Y-59295244D01*
X59849305Y-59232009D01*
X59647205Y-59200000D01*
X59442571Y-59200000D01*
X59240470Y-59232009D01*
X59045856Y-59295244D01*
X58863539Y-59388139D01*
X58793332Y-59439148D01*
X58727525Y-59462627D01*
X58659471Y-59446801D01*
X58632766Y-59426510D01*
X58563545Y-59357289D01*
X58563544Y-59357288D01*
X58414222Y-59265186D01*
X58247685Y-59210001D01*
X58247683Y-59210000D01*
X58144898Y-59199500D01*
X56944886Y-59199500D01*
X56944869Y-59199501D01*
X56842091Y-59210000D01*
X56842088Y-59210001D01*
X56675556Y-59265185D01*
X56675551Y-59265187D01*
X56526230Y-59357289D01*
X56402177Y-59481342D01*
X56310075Y-59630663D01*
X56310074Y-59630666D01*
X56254889Y-59797203D01*
X56254889Y-59797204D01*
X56254888Y-59797204D01*
X56244388Y-59899983D01*
X53450500Y-59899983D01*
X53450500Y-59531378D01*
X53447705Y-59478759D01*
X53403245Y-59248874D01*
X53320574Y-59029810D01*
X53202070Y-58827868D01*
X53202065Y-58827861D01*
X53051143Y-58648858D01*
X53051141Y-58648856D01*
X52872138Y-58497934D01*
X52872131Y-58497929D01*
X52670189Y-58379425D01*
X52579832Y-58345326D01*
X52451126Y-58296755D01*
X52443313Y-58295244D01*
X52221243Y-58252295D01*
X52168652Y-58249501D01*
X52168629Y-58249500D01*
X52168622Y-58249500D01*
X50231378Y-58249500D01*
X50231370Y-58249500D01*
X50231347Y-58249501D01*
X50178756Y-58252295D01*
X50178755Y-58252295D01*
X49948878Y-58296754D01*
X49948876Y-58296754D01*
X49948874Y-58296755D01*
X49874933Y-58324659D01*
X49729810Y-58379425D01*
X49527868Y-58497929D01*
X49527861Y-58497934D01*
X49348858Y-58648856D01*
X49348856Y-58648858D01*
X49197934Y-58827861D01*
X49197929Y-58827868D01*
X49079425Y-59029810D01*
X48996753Y-59248880D01*
X48996240Y-59251532D01*
X48995712Y-59252552D01*
X48995317Y-59253950D01*
X48995032Y-59253869D01*
X48964175Y-59313609D01*
X48903639Y-59348497D01*
X48833851Y-59345117D01*
X48776968Y-59304544D01*
X48751051Y-59239659D01*
X48750499Y-59227989D01*
X48750499Y-55702128D01*
X48744091Y-55642517D01*
X48740164Y-55631989D01*
X48693797Y-55507671D01*
X48693793Y-55507664D01*
X48607547Y-55392455D01*
X48607544Y-55392452D01*
X48492335Y-55306206D01*
X48492328Y-55306202D01*
X48357482Y-55255908D01*
X48357483Y-55255908D01*
X48297883Y-55249501D01*
X48297881Y-55249500D01*
X48297873Y-55249500D01*
X48297864Y-55249500D01*
X44702129Y-55249500D01*
X44702123Y-55249501D01*
X44642516Y-55255908D01*
X44507671Y-55306202D01*
X44507664Y-55306206D01*
X44392455Y-55392452D01*
X44392452Y-55392455D01*
X44306206Y-55507664D01*
X44306202Y-55507671D01*
X44255908Y-55642517D01*
X44249501Y-55702116D01*
X44249501Y-55702123D01*
X44249500Y-55702135D01*
X40500500Y-55702135D01*
X40500500Y-52878711D01*
X73149500Y-52878711D01*
X73149500Y-53121288D01*
X73179919Y-53352352D01*
X73181162Y-53361789D01*
X73196932Y-53420643D01*
X73243947Y-53596104D01*
X73336773Y-53820205D01*
X73336777Y-53820214D01*
X73355331Y-53852351D01*
X73458064Y-54030289D01*
X73458066Y-54030292D01*
X73458067Y-54030293D01*
X73605733Y-54222736D01*
X73605739Y-54222743D01*
X73777256Y-54394260D01*
X73777263Y-54394266D01*
X73825931Y-54431610D01*
X73969711Y-54541936D01*
X74179788Y-54663224D01*
X74403900Y-54756054D01*
X74638211Y-54818838D01*
X74818586Y-54842584D01*
X74878711Y-54850500D01*
X74878712Y-54850500D01*
X75121289Y-54850500D01*
X75169388Y-54844167D01*
X75361789Y-54818838D01*
X75596100Y-54756054D01*
X75820212Y-54663224D01*
X76030289Y-54541936D01*
X76214431Y-54400639D01*
X110037500Y-54400639D01*
X110037500Y-54599360D01*
X110068587Y-54795637D01*
X110129993Y-54984629D01*
X110129994Y-54984632D01*
X110186539Y-55095606D01*
X110220213Y-55161694D01*
X110337019Y-55322464D01*
X110477536Y-55462981D01*
X110638306Y-55579787D01*
X110700589Y-55611522D01*
X110815367Y-55670005D01*
X110815370Y-55670006D01*
X110906145Y-55699500D01*
X111004364Y-55731413D01*
X111200639Y-55762500D01*
X111200640Y-55762500D01*
X111399360Y-55762500D01*
X111399361Y-55762500D01*
X111595636Y-55731413D01*
X111784632Y-55670005D01*
X111961694Y-55579787D01*
X112122464Y-55462981D01*
X112262981Y-55322464D01*
X112379787Y-55161694D01*
X112459796Y-55004667D01*
X112507769Y-54953872D01*
X112575590Y-54937077D01*
X112641725Y-54959614D01*
X112680765Y-55004668D01*
X112760641Y-55161432D01*
X112787730Y-55198715D01*
X112787731Y-55198716D01*
X113402352Y-54584094D01*
X113425792Y-54671571D01*
X113484311Y-54772930D01*
X113567070Y-54855689D01*
X113668429Y-54914208D01*
X113755905Y-54937647D01*
X113141283Y-55552268D01*
X113141283Y-55552269D01*
X113178567Y-55579358D01*
X113355562Y-55669542D01*
X113544477Y-55730924D01*
X113740679Y-55762000D01*
X113939321Y-55762000D01*
X114135520Y-55730924D01*
X114135523Y-55730924D01*
X114324437Y-55669542D01*
X114501425Y-55579362D01*
X114538716Y-55552268D01*
X113924095Y-54937647D01*
X114011571Y-54914208D01*
X114112930Y-54855689D01*
X114195689Y-54772930D01*
X114254208Y-54671571D01*
X114277647Y-54584094D01*
X114892268Y-55198715D01*
X114919364Y-55161422D01*
X114999234Y-55004669D01*
X115047208Y-54953872D01*
X115115029Y-54937077D01*
X115181164Y-54959614D01*
X115220203Y-55004667D01*
X115300213Y-55161694D01*
X115417019Y-55322464D01*
X115557536Y-55462981D01*
X115718306Y-55579787D01*
X115780589Y-55611522D01*
X115895367Y-55670005D01*
X115895370Y-55670006D01*
X115986145Y-55699500D01*
X116084364Y-55731413D01*
X116280639Y-55762500D01*
X116280640Y-55762500D01*
X116479360Y-55762500D01*
X116479361Y-55762500D01*
X116675636Y-55731413D01*
X116864632Y-55670005D01*
X117041694Y-55579787D01*
X117202464Y-55462981D01*
X117342981Y-55322464D01*
X117459787Y-55161694D01*
X117539515Y-55005218D01*
X117587490Y-54954423D01*
X117655311Y-54937628D01*
X117721446Y-54960165D01*
X117760484Y-55005218D01*
X117840213Y-55161694D01*
X117957019Y-55322464D01*
X118097536Y-55462981D01*
X118258306Y-55579787D01*
X118320589Y-55611522D01*
X118435367Y-55670005D01*
X118435370Y-55670006D01*
X118526145Y-55699500D01*
X118624364Y-55731413D01*
X118820639Y-55762500D01*
X118820640Y-55762500D01*
X119019360Y-55762500D01*
X119019361Y-55762500D01*
X119215636Y-55731413D01*
X119404632Y-55670005D01*
X119581694Y-55579787D01*
X119742464Y-55462981D01*
X119882981Y-55322464D01*
X119999787Y-55161694D01*
X120079515Y-55005218D01*
X120127490Y-54954423D01*
X120195311Y-54937628D01*
X120261446Y-54960165D01*
X120300484Y-55005218D01*
X120380213Y-55161694D01*
X120497019Y-55322464D01*
X120637536Y-55462981D01*
X120798306Y-55579787D01*
X120860589Y-55611522D01*
X120975367Y-55670005D01*
X120975370Y-55670006D01*
X121066145Y-55699500D01*
X121164364Y-55731413D01*
X121360639Y-55762500D01*
X121360640Y-55762500D01*
X121559360Y-55762500D01*
X121559361Y-55762500D01*
X121755636Y-55731413D01*
X121944632Y-55670005D01*
X122121694Y-55579787D01*
X122282464Y-55462981D01*
X122422981Y-55322464D01*
X122539787Y-55161694D01*
X122619515Y-55005218D01*
X122667490Y-54954423D01*
X122735311Y-54937628D01*
X122801446Y-54960165D01*
X122840484Y-55005218D01*
X122920213Y-55161694D01*
X123037019Y-55322464D01*
X123177536Y-55462981D01*
X123338306Y-55579787D01*
X123400589Y-55611522D01*
X123515367Y-55670005D01*
X123515370Y-55670006D01*
X123606145Y-55699500D01*
X123704364Y-55731413D01*
X123900639Y-55762500D01*
X123900640Y-55762500D01*
X124099360Y-55762500D01*
X124099361Y-55762500D01*
X124295636Y-55731413D01*
X124484632Y-55670005D01*
X124661694Y-55579787D01*
X124822464Y-55462981D01*
X124962981Y-55322464D01*
X125079787Y-55161694D01*
X125159515Y-55005218D01*
X125207490Y-54954423D01*
X125275311Y-54937628D01*
X125341446Y-54960165D01*
X125380484Y-55005218D01*
X125460213Y-55161694D01*
X125577019Y-55322464D01*
X125717536Y-55462981D01*
X125878306Y-55579787D01*
X125940589Y-55611522D01*
X126055367Y-55670005D01*
X126055370Y-55670006D01*
X126146145Y-55699500D01*
X126244364Y-55731413D01*
X126440639Y-55762500D01*
X126440640Y-55762500D01*
X126639360Y-55762500D01*
X126639361Y-55762500D01*
X126835636Y-55731413D01*
X127024632Y-55670005D01*
X127201694Y-55579787D01*
X127362464Y-55462981D01*
X127502981Y-55322464D01*
X127619787Y-55161694D01*
X127710005Y-54984632D01*
X127771413Y-54795636D01*
X127802500Y-54599361D01*
X127802500Y-54400639D01*
X127771413Y-54204364D01*
X127719820Y-54045576D01*
X127710006Y-54015370D01*
X127710005Y-54015367D01*
X127676443Y-53949500D01*
X127619787Y-53838306D01*
X127502981Y-53677536D01*
X127473093Y-53647648D01*
X146699500Y-53647648D01*
X146699500Y-53852351D01*
X146731522Y-54054534D01*
X146794781Y-54249223D01*
X146858691Y-54374653D01*
X146873591Y-54403895D01*
X146887715Y-54431613D01*
X147008028Y-54597213D01*
X147152786Y-54741971D01*
X147301478Y-54850000D01*
X147318390Y-54862287D01*
X147420291Y-54914208D01*
X147500776Y-54955218D01*
X147500778Y-54955218D01*
X147500781Y-54955220D01*
X147591293Y-54984629D01*
X147695465Y-55018477D01*
X147796557Y-55034488D01*
X147897648Y-55050500D01*
X147897649Y-55050500D01*
X148102351Y-55050500D01*
X148102352Y-55050500D01*
X148304534Y-55018477D01*
X148499219Y-54955220D01*
X148681610Y-54862287D01*
X148774590Y-54794732D01*
X148847213Y-54741971D01*
X148847215Y-54741968D01*
X148847219Y-54741966D01*
X148991966Y-54597219D01*
X148991968Y-54597215D01*
X148991971Y-54597213D01*
X149063728Y-54498446D01*
X149112287Y-54431610D01*
X149205220Y-54249219D01*
X149268477Y-54054534D01*
X149300500Y-53852352D01*
X149300500Y-53647648D01*
X156859500Y-53647648D01*
X156859500Y-53852351D01*
X156891522Y-54054534D01*
X156954781Y-54249223D01*
X157018691Y-54374653D01*
X157033591Y-54403895D01*
X157047715Y-54431613D01*
X157168028Y-54597213D01*
X157312786Y-54741971D01*
X157461478Y-54850000D01*
X157478390Y-54862287D01*
X157580291Y-54914208D01*
X157660776Y-54955218D01*
X157660778Y-54955218D01*
X157660781Y-54955220D01*
X157751293Y-54984629D01*
X157855465Y-55018477D01*
X157956557Y-55034488D01*
X158057648Y-55050500D01*
X158057649Y-55050500D01*
X158262351Y-55050500D01*
X158262352Y-55050500D01*
X158464534Y-55018477D01*
X158659219Y-54955220D01*
X158841610Y-54862287D01*
X158934590Y-54794732D01*
X159007213Y-54741971D01*
X159007215Y-54741968D01*
X159007219Y-54741966D01*
X159151966Y-54597219D01*
X159151968Y-54597215D01*
X159151971Y-54597213D01*
X159223728Y-54498446D01*
X159272287Y-54431610D01*
X159365220Y-54249219D01*
X159428477Y-54054534D01*
X159460500Y-53852352D01*
X159460500Y-53647648D01*
X159452336Y-53596104D01*
X159428477Y-53445465D01*
X159390958Y-53329994D01*
X159365220Y-53250781D01*
X159365218Y-53250778D01*
X159365218Y-53250776D01*
X159329747Y-53181161D01*
X159272287Y-53068390D01*
X159264556Y-53057749D01*
X159151971Y-52902786D01*
X159007215Y-52758030D01*
X158992243Y-52747153D01*
X158992242Y-52747152D01*
X158858499Y-52649983D01*
X166699500Y-52649983D01*
X166699500Y-53850001D01*
X166699501Y-53850018D01*
X166710000Y-53952796D01*
X166710001Y-53952799D01*
X166743713Y-54054534D01*
X166765186Y-54119334D01*
X166845614Y-54249730D01*
X166857289Y-54268657D01*
X166926510Y-54337878D01*
X166959995Y-54399201D01*
X166955011Y-54468893D01*
X166939148Y-54498444D01*
X166888139Y-54568651D01*
X166795244Y-54750968D01*
X166732009Y-54945582D01*
X166700000Y-55147682D01*
X166700000Y-55352317D01*
X166732009Y-55554417D01*
X166795244Y-55749031D01*
X166888141Y-55931350D01*
X166888147Y-55931359D01*
X166920523Y-55975921D01*
X166920524Y-55975922D01*
X167600000Y-55296446D01*
X167600000Y-55302661D01*
X167627259Y-55404394D01*
X167679920Y-55495606D01*
X167754394Y-55570080D01*
X167845606Y-55622741D01*
X167947339Y-55650000D01*
X167953553Y-55650000D01*
X167274076Y-56329474D01*
X167318650Y-56361859D01*
X167500968Y-56454755D01*
X167695582Y-56517990D01*
X167897683Y-56550000D01*
X168102317Y-56550000D01*
X168304417Y-56517990D01*
X168499031Y-56454755D01*
X168681349Y-56361859D01*
X168725922Y-56329474D01*
X168046447Y-55650000D01*
X168052661Y-55650000D01*
X168154394Y-55622741D01*
X168245606Y-55570080D01*
X168320080Y-55495606D01*
X168372741Y-55404394D01*
X168400000Y-55302661D01*
X168400000Y-55296447D01*
X169079474Y-55975921D01*
X169111859Y-55931349D01*
X169204755Y-55749031D01*
X169242783Y-55631995D01*
X175449500Y-55631995D01*
X175449500Y-55868004D01*
X175449501Y-55868020D01*
X175477180Y-56078268D01*
X175480307Y-56102014D01*
X175526411Y-56274076D01*
X175541394Y-56329993D01*
X175631714Y-56548045D01*
X175631719Y-56548056D01*
X175698211Y-56663222D01*
X175749727Y-56752450D01*
X175749729Y-56752453D01*
X175749730Y-56752454D01*
X175893406Y-56939697D01*
X175893412Y-56939704D01*
X176060295Y-57106587D01*
X176060302Y-57106593D01*
X176101419Y-57138143D01*
X176247550Y-57250273D01*
X176341533Y-57304534D01*
X176451943Y-57368280D01*
X176451948Y-57368282D01*
X176451951Y-57368284D01*
X176670007Y-57458606D01*
X176897986Y-57519693D01*
X177131989Y-57550500D01*
X177131996Y-57550500D01*
X177368004Y-57550500D01*
X177368011Y-57550500D01*
X177602014Y-57519693D01*
X177829993Y-57458606D01*
X178048049Y-57368284D01*
X178252450Y-57250273D01*
X178439699Y-57106592D01*
X178606592Y-56939699D01*
X178750273Y-56752450D01*
X178868284Y-56548049D01*
X178958606Y-56329993D01*
X179019693Y-56102014D01*
X179050500Y-55868011D01*
X179050500Y-55631995D01*
X180449500Y-55631995D01*
X180449500Y-55868004D01*
X180449501Y-55868020D01*
X180477180Y-56078268D01*
X180480307Y-56102014D01*
X180526411Y-56274076D01*
X180541394Y-56329993D01*
X180631714Y-56548045D01*
X180631719Y-56548056D01*
X180698211Y-56663222D01*
X180749727Y-56752450D01*
X180749729Y-56752453D01*
X180749730Y-56752454D01*
X180893406Y-56939697D01*
X180893412Y-56939704D01*
X181060295Y-57106587D01*
X181060302Y-57106593D01*
X181101419Y-57138143D01*
X181247550Y-57250273D01*
X181341533Y-57304534D01*
X181451943Y-57368280D01*
X181451948Y-57368282D01*
X181451951Y-57368284D01*
X181670007Y-57458606D01*
X181897986Y-57519693D01*
X182131989Y-57550500D01*
X182131996Y-57550500D01*
X182368004Y-57550500D01*
X182368011Y-57550500D01*
X182602014Y-57519693D01*
X182829993Y-57458606D01*
X183048049Y-57368284D01*
X183252450Y-57250273D01*
X183439699Y-57106592D01*
X183519291Y-57027000D01*
X183601758Y-56944534D01*
X183606587Y-56939704D01*
X183606592Y-56939699D01*
X183750273Y-56752450D01*
X183868284Y-56548049D01*
X183958606Y-56329993D01*
X184019693Y-56102014D01*
X184050500Y-55868011D01*
X184050500Y-55631989D01*
X184019693Y-55397986D01*
X183958606Y-55170007D01*
X183868284Y-54951951D01*
X183868281Y-54951947D01*
X183868278Y-54951939D01*
X183859453Y-54936654D01*
X183859452Y-54936653D01*
X183825999Y-54878711D01*
X186149500Y-54878711D01*
X186149500Y-55121288D01*
X186181161Y-55361785D01*
X186243947Y-55596104D01*
X186328621Y-55800524D01*
X186336776Y-55820212D01*
X186458064Y-56030289D01*
X186458066Y-56030292D01*
X186458067Y-56030293D01*
X186605733Y-56222736D01*
X186605739Y-56222743D01*
X186777256Y-56394260D01*
X186777262Y-56394265D01*
X186969711Y-56541936D01*
X187179788Y-56663224D01*
X187403900Y-56756054D01*
X187638211Y-56818838D01*
X187818586Y-56842584D01*
X187878711Y-56850500D01*
X187878712Y-56850500D01*
X188121289Y-56850500D01*
X188169388Y-56844167D01*
X188361789Y-56818838D01*
X188596100Y-56756054D01*
X188820212Y-56663224D01*
X189030289Y-56541936D01*
X189222738Y-56394265D01*
X189394265Y-56222738D01*
X189541936Y-56030289D01*
X189618497Y-55897682D01*
X194200000Y-55897682D01*
X194200000Y-56102317D01*
X194232009Y-56304417D01*
X194295244Y-56499031D01*
X194388141Y-56681350D01*
X194388147Y-56681359D01*
X194420523Y-56725921D01*
X194420524Y-56725922D01*
X195100000Y-56046446D01*
X195100000Y-56052661D01*
X195127259Y-56154394D01*
X195179920Y-56245606D01*
X195254394Y-56320080D01*
X195345606Y-56372741D01*
X195447339Y-56400000D01*
X195453553Y-56400000D01*
X194774076Y-57079474D01*
X194818650Y-57111859D01*
X195000968Y-57204755D01*
X195195582Y-57267990D01*
X195397683Y-57300000D01*
X195602317Y-57300000D01*
X195804417Y-57267990D01*
X195999031Y-57204755D01*
X196181349Y-57111859D01*
X196225921Y-57079474D01*
X195546447Y-56400000D01*
X195552661Y-56400000D01*
X195654394Y-56372741D01*
X195745606Y-56320080D01*
X195820080Y-56245606D01*
X195872741Y-56154394D01*
X195900000Y-56052661D01*
X195900000Y-56046447D01*
X196579474Y-56725921D01*
X196611859Y-56681349D01*
X196704755Y-56499031D01*
X196767990Y-56304417D01*
X196800000Y-56102317D01*
X196800000Y-55897682D01*
X196767990Y-55695582D01*
X196704755Y-55500968D01*
X196611859Y-55318650D01*
X196579474Y-55274077D01*
X196579474Y-55274076D01*
X195900000Y-55953551D01*
X195900000Y-55947339D01*
X195872741Y-55845606D01*
X195820080Y-55754394D01*
X195745606Y-55679920D01*
X195654394Y-55627259D01*
X195552661Y-55600000D01*
X195546446Y-55600000D01*
X196225922Y-54920524D01*
X196225921Y-54920523D01*
X196181359Y-54888147D01*
X196181350Y-54888141D01*
X195999031Y-54795244D01*
X195804417Y-54732009D01*
X195602317Y-54700000D01*
X195397683Y-54700000D01*
X195195582Y-54732009D01*
X195000968Y-54795244D01*
X194818644Y-54888143D01*
X194774077Y-54920523D01*
X194774077Y-54920524D01*
X195453554Y-55600000D01*
X195447339Y-55600000D01*
X195345606Y-55627259D01*
X195254394Y-55679920D01*
X195179920Y-55754394D01*
X195127259Y-55845606D01*
X195100000Y-55947339D01*
X195100000Y-55953553D01*
X194420524Y-55274077D01*
X194420523Y-55274077D01*
X194388143Y-55318644D01*
X194295244Y-55500968D01*
X194232009Y-55695582D01*
X194200000Y-55897682D01*
X189618497Y-55897682D01*
X189663224Y-55820212D01*
X189756054Y-55596100D01*
X189818838Y-55361789D01*
X189850500Y-55121288D01*
X189850500Y-54878712D01*
X189818838Y-54638211D01*
X189756054Y-54403900D01*
X189752063Y-54394266D01*
X189724793Y-54328429D01*
X189663224Y-54179788D01*
X189541936Y-53969711D01*
X189481018Y-53890321D01*
X189394266Y-53777263D01*
X189394260Y-53777256D01*
X189222743Y-53605739D01*
X189222736Y-53605733D01*
X189030293Y-53458067D01*
X189030292Y-53458066D01*
X189030289Y-53458064D01*
X188858661Y-53358974D01*
X188820214Y-53336777D01*
X188820205Y-53336773D01*
X188596104Y-53243947D01*
X188361785Y-53181161D01*
X188121289Y-53149500D01*
X188121288Y-53149500D01*
X187878712Y-53149500D01*
X187878711Y-53149500D01*
X187638214Y-53181161D01*
X187403895Y-53243947D01*
X187179794Y-53336773D01*
X187179785Y-53336777D01*
X186969706Y-53458067D01*
X186777263Y-53605733D01*
X186777256Y-53605739D01*
X186605739Y-53777256D01*
X186605733Y-53777263D01*
X186458067Y-53969706D01*
X186336777Y-54179785D01*
X186336773Y-54179794D01*
X186243947Y-54403895D01*
X186181161Y-54638214D01*
X186149500Y-54878711D01*
X183825999Y-54878711D01*
X183750273Y-54747550D01*
X183612999Y-54568651D01*
X183606593Y-54560302D01*
X183606587Y-54560295D01*
X183439704Y-54393412D01*
X183439697Y-54393406D01*
X183252454Y-54249730D01*
X183252453Y-54249729D01*
X183252450Y-54249727D01*
X183131323Y-54179794D01*
X183048056Y-54131719D01*
X183048045Y-54131714D01*
X182829993Y-54041394D01*
X182602010Y-53980306D01*
X182368020Y-53949501D01*
X182368017Y-53949500D01*
X182368011Y-53949500D01*
X182131989Y-53949500D01*
X182131983Y-53949500D01*
X182131979Y-53949501D01*
X181897989Y-53980306D01*
X181670006Y-54041394D01*
X181451954Y-54131714D01*
X181451943Y-54131719D01*
X181247545Y-54249730D01*
X181060302Y-54393406D01*
X181060295Y-54393412D01*
X180893412Y-54560295D01*
X180893406Y-54560302D01*
X180749730Y-54747545D01*
X180631719Y-54951943D01*
X180631714Y-54951954D01*
X180541394Y-55170006D01*
X180480306Y-55397989D01*
X180449501Y-55631979D01*
X180449500Y-55631995D01*
X179050500Y-55631995D01*
X179050500Y-55631989D01*
X179019693Y-55397986D01*
X178958606Y-55170007D01*
X178868284Y-54951951D01*
X178868282Y-54951948D01*
X178868280Y-54951943D01*
X178809711Y-54850500D01*
X178750273Y-54747550D01*
X178612999Y-54568651D01*
X178606593Y-54560302D01*
X178606587Y-54560295D01*
X178439704Y-54393412D01*
X178439697Y-54393406D01*
X178252454Y-54249730D01*
X178252453Y-54249729D01*
X178252450Y-54249727D01*
X178131323Y-54179794D01*
X178048056Y-54131719D01*
X178048045Y-54131714D01*
X177829993Y-54041394D01*
X177602010Y-53980306D01*
X177368020Y-53949501D01*
X177368017Y-53949500D01*
X177368011Y-53949500D01*
X177131989Y-53949500D01*
X177131983Y-53949500D01*
X177131979Y-53949501D01*
X176897989Y-53980306D01*
X176670006Y-54041394D01*
X176451954Y-54131714D01*
X176451943Y-54131719D01*
X176247545Y-54249730D01*
X176060302Y-54393406D01*
X176060295Y-54393412D01*
X175893412Y-54560295D01*
X175893406Y-54560302D01*
X175749730Y-54747545D01*
X175631719Y-54951943D01*
X175631714Y-54951954D01*
X175541394Y-55170006D01*
X175480306Y-55397989D01*
X175449501Y-55631979D01*
X175449500Y-55631995D01*
X169242783Y-55631995D01*
X169256555Y-55589611D01*
X169256555Y-55589610D01*
X169267989Y-55554421D01*
X169267989Y-55554418D01*
X169300000Y-55352317D01*
X169300000Y-55147682D01*
X169267990Y-54945582D01*
X169204755Y-54750968D01*
X169111857Y-54568646D01*
X169060853Y-54498446D01*
X169037372Y-54432640D01*
X169053197Y-54364586D01*
X169073489Y-54337879D01*
X169103282Y-54308086D01*
X169142712Y-54268656D01*
X169234814Y-54119334D01*
X169289999Y-53952797D01*
X169300500Y-53850009D01*
X169300499Y-53147648D01*
X171449500Y-53147648D01*
X171449500Y-53352351D01*
X171481522Y-53554534D01*
X171544781Y-53749223D01*
X171637715Y-53931613D01*
X171758028Y-54097213D01*
X171902786Y-54241971D01*
X172034795Y-54337879D01*
X172068390Y-54362287D01*
X172184607Y-54421503D01*
X172250776Y-54455218D01*
X172250778Y-54455218D01*
X172250781Y-54455220D01*
X172341862Y-54484814D01*
X172445465Y-54518477D01*
X172546557Y-54534488D01*
X172647648Y-54550500D01*
X172647649Y-54550500D01*
X172852351Y-54550500D01*
X172852352Y-54550500D01*
X173054534Y-54518477D01*
X173249219Y-54455220D01*
X173431610Y-54362287D01*
X173560482Y-54268657D01*
X173597213Y-54241971D01*
X173597215Y-54241968D01*
X173597219Y-54241966D01*
X173741966Y-54097219D01*
X173741968Y-54097215D01*
X173741971Y-54097213D01*
X173801434Y-54015367D01*
X173862287Y-53931610D01*
X173955220Y-53749219D01*
X174018477Y-53554534D01*
X174050500Y-53352352D01*
X174050500Y-53147648D01*
X174018477Y-52945466D01*
X174004609Y-52902786D01*
X173989127Y-52855137D01*
X173955220Y-52750781D01*
X173955218Y-52750778D01*
X173955218Y-52750776D01*
X173903865Y-52649991D01*
X173862287Y-52568390D01*
X173845134Y-52544781D01*
X173741971Y-52402786D01*
X173597213Y-52258028D01*
X173431613Y-52137715D01*
X173431612Y-52137714D01*
X173431610Y-52137713D01*
X173371898Y-52107288D01*
X173249223Y-52044781D01*
X173054534Y-51981522D01*
X172879995Y-51953878D01*
X172852352Y-51949500D01*
X172647648Y-51949500D01*
X172623329Y-51953351D01*
X172445465Y-51981522D01*
X172250776Y-52044781D01*
X172068386Y-52137715D01*
X171902786Y-52258028D01*
X171758028Y-52402786D01*
X171637715Y-52568386D01*
X171544781Y-52750776D01*
X171481522Y-52945465D01*
X171449500Y-53147648D01*
X169300499Y-53147648D01*
X169300499Y-52649992D01*
X169289999Y-52547203D01*
X169234814Y-52380666D01*
X169142712Y-52231344D01*
X169018656Y-52107288D01*
X168869334Y-52015186D01*
X168702797Y-51960001D01*
X168702795Y-51960000D01*
X168600010Y-51949500D01*
X167399998Y-51949500D01*
X167399981Y-51949501D01*
X167297203Y-51960000D01*
X167297200Y-51960001D01*
X167130668Y-52015185D01*
X167130663Y-52015187D01*
X166981342Y-52107289D01*
X166857289Y-52231342D01*
X166765187Y-52380663D01*
X166765185Y-52380668D01*
X166757487Y-52403900D01*
X166710001Y-52547203D01*
X166710001Y-52547204D01*
X166710000Y-52547204D01*
X166699500Y-52649983D01*
X158858499Y-52649983D01*
X158841613Y-52637715D01*
X158841612Y-52637714D01*
X158841610Y-52637713D01*
X158784653Y-52608691D01*
X158659223Y-52544781D01*
X158464534Y-52481522D01*
X158289995Y-52453878D01*
X158262352Y-52449500D01*
X158057648Y-52449500D01*
X158033329Y-52453351D01*
X157855465Y-52481522D01*
X157660776Y-52544781D01*
X157478386Y-52637715D01*
X157312786Y-52758028D01*
X157168028Y-52902786D01*
X157047715Y-53068386D01*
X156954781Y-53250776D01*
X156891522Y-53445465D01*
X156859500Y-53647648D01*
X149300500Y-53647648D01*
X149292336Y-53596104D01*
X149268477Y-53445465D01*
X149230958Y-53329994D01*
X149205220Y-53250781D01*
X149205218Y-53250778D01*
X149205218Y-53250776D01*
X149169747Y-53181161D01*
X149112287Y-53068390D01*
X149104556Y-53057749D01*
X148991971Y-52902786D01*
X148847213Y-52758028D01*
X148681613Y-52637715D01*
X148681612Y-52637714D01*
X148681610Y-52637713D01*
X148624653Y-52608691D01*
X148499223Y-52544781D01*
X148304534Y-52481522D01*
X148129995Y-52453878D01*
X148102352Y-52449500D01*
X147897648Y-52449500D01*
X147873329Y-52453351D01*
X147695465Y-52481522D01*
X147500776Y-52544781D01*
X147318386Y-52637715D01*
X147152786Y-52758028D01*
X147008028Y-52902786D01*
X146887715Y-53068386D01*
X146794781Y-53250776D01*
X146731522Y-53445465D01*
X146699500Y-53647648D01*
X127473093Y-53647648D01*
X127362464Y-53537019D01*
X127201694Y-53420213D01*
X127024632Y-53329994D01*
X127024629Y-53329993D01*
X126835637Y-53268587D01*
X126723182Y-53250776D01*
X126639361Y-53237500D01*
X126440639Y-53237500D01*
X126375214Y-53247862D01*
X126244362Y-53268587D01*
X126055370Y-53329993D01*
X126055367Y-53329994D01*
X125878305Y-53420213D01*
X125717533Y-53537021D01*
X125577021Y-53677533D01*
X125460213Y-53838305D01*
X125380485Y-53994780D01*
X125332510Y-54045576D01*
X125264689Y-54062371D01*
X125198554Y-54039833D01*
X125159515Y-53994780D01*
X125136443Y-53949500D01*
X125079787Y-53838306D01*
X124962981Y-53677536D01*
X124822464Y-53537019D01*
X124661694Y-53420213D01*
X124484632Y-53329994D01*
X124484629Y-53329993D01*
X124295637Y-53268587D01*
X124183182Y-53250776D01*
X124099361Y-53237500D01*
X123900639Y-53237500D01*
X123835214Y-53247862D01*
X123704362Y-53268587D01*
X123515370Y-53329993D01*
X123515367Y-53329994D01*
X123338305Y-53420213D01*
X123177533Y-53537021D01*
X123037021Y-53677533D01*
X122920213Y-53838305D01*
X122840485Y-53994780D01*
X122792510Y-54045576D01*
X122724689Y-54062371D01*
X122658554Y-54039833D01*
X122619515Y-53994780D01*
X122596443Y-53949500D01*
X122539787Y-53838306D01*
X122422981Y-53677536D01*
X122282464Y-53537019D01*
X122121694Y-53420213D01*
X121944632Y-53329994D01*
X121944629Y-53329993D01*
X121755637Y-53268587D01*
X121643182Y-53250776D01*
X121559361Y-53237500D01*
X121360639Y-53237500D01*
X121295214Y-53247862D01*
X121164362Y-53268587D01*
X120975370Y-53329993D01*
X120975367Y-53329994D01*
X120798305Y-53420213D01*
X120637533Y-53537021D01*
X120497021Y-53677533D01*
X120380213Y-53838305D01*
X120300485Y-53994780D01*
X120252510Y-54045576D01*
X120184689Y-54062371D01*
X120118554Y-54039833D01*
X120079515Y-53994780D01*
X120056443Y-53949500D01*
X119999787Y-53838306D01*
X119882981Y-53677536D01*
X119742464Y-53537019D01*
X119581694Y-53420213D01*
X119404632Y-53329994D01*
X119404629Y-53329993D01*
X119215637Y-53268587D01*
X119103182Y-53250776D01*
X119019361Y-53237500D01*
X118820639Y-53237500D01*
X118755214Y-53247862D01*
X118624362Y-53268587D01*
X118435370Y-53329993D01*
X118435367Y-53329994D01*
X118258305Y-53420213D01*
X118097533Y-53537021D01*
X117957021Y-53677533D01*
X117840213Y-53838305D01*
X117760485Y-53994780D01*
X117712510Y-54045576D01*
X117644689Y-54062371D01*
X117578554Y-54039833D01*
X117539515Y-53994780D01*
X117516443Y-53949500D01*
X117459787Y-53838306D01*
X117342981Y-53677536D01*
X117202464Y-53537019D01*
X117041694Y-53420213D01*
X116864632Y-53329994D01*
X116864629Y-53329993D01*
X116675637Y-53268587D01*
X116563182Y-53250776D01*
X116479361Y-53237500D01*
X116280639Y-53237500D01*
X116215214Y-53247862D01*
X116084362Y-53268587D01*
X115895370Y-53329993D01*
X115895367Y-53329994D01*
X115718305Y-53420213D01*
X115557533Y-53537021D01*
X115417021Y-53677533D01*
X115300213Y-53838305D01*
X115220204Y-53995331D01*
X115172229Y-54046127D01*
X115104408Y-54062922D01*
X115038273Y-54040384D01*
X114999234Y-53995331D01*
X114919358Y-53838567D01*
X114892268Y-53801283D01*
X114277647Y-54415904D01*
X114254208Y-54328429D01*
X114195689Y-54227070D01*
X114112930Y-54144311D01*
X114011571Y-54085792D01*
X113924094Y-54062352D01*
X114538716Y-53447731D01*
X114538715Y-53447730D01*
X114501432Y-53420641D01*
X114324437Y-53330457D01*
X114135522Y-53269075D01*
X113939321Y-53238000D01*
X113740679Y-53238000D01*
X113544479Y-53269075D01*
X113544476Y-53269075D01*
X113355562Y-53330457D01*
X113178564Y-53420643D01*
X113141283Y-53447729D01*
X113141282Y-53447730D01*
X113755906Y-54062352D01*
X113668429Y-54085792D01*
X113567070Y-54144311D01*
X113484311Y-54227070D01*
X113425792Y-54328429D01*
X113402352Y-54415905D01*
X112787730Y-53801282D01*
X112787729Y-53801283D01*
X112760641Y-53838566D01*
X112680764Y-53995332D01*
X112632790Y-54046127D01*
X112564969Y-54062922D01*
X112498834Y-54040384D01*
X112459796Y-53995332D01*
X112379787Y-53838306D01*
X112262981Y-53677536D01*
X112122464Y-53537019D01*
X111961694Y-53420213D01*
X111784632Y-53329994D01*
X111784629Y-53329993D01*
X111595637Y-53268587D01*
X111483182Y-53250776D01*
X111399361Y-53237500D01*
X111200639Y-53237500D01*
X111135214Y-53247862D01*
X111004362Y-53268587D01*
X110815370Y-53329993D01*
X110815367Y-53329994D01*
X110638305Y-53420213D01*
X110477533Y-53537021D01*
X110337021Y-53677533D01*
X110220213Y-53838305D01*
X110129994Y-54015367D01*
X110129993Y-54015370D01*
X110068587Y-54204362D01*
X110037500Y-54400639D01*
X76214431Y-54400639D01*
X76222738Y-54394265D01*
X76254719Y-54362284D01*
X76308918Y-54308086D01*
X76394260Y-54222743D01*
X76394265Y-54222738D01*
X76541936Y-54030289D01*
X76663224Y-53820212D01*
X76756054Y-53596100D01*
X76818838Y-53361789D01*
X76850500Y-53121288D01*
X76850500Y-52878712D01*
X76818838Y-52638211D01*
X76756054Y-52403900D01*
X76755590Y-52402781D01*
X76663226Y-52179794D01*
X76663224Y-52179788D01*
X76541936Y-51969711D01*
X76394265Y-51777262D01*
X76394260Y-51777256D01*
X76222743Y-51605739D01*
X76222736Y-51605733D01*
X76030293Y-51458067D01*
X76030292Y-51458066D01*
X76030289Y-51458064D01*
X75820212Y-51336776D01*
X75820205Y-51336773D01*
X75596104Y-51243947D01*
X75361785Y-51181161D01*
X75121289Y-51149500D01*
X75121288Y-51149500D01*
X74878712Y-51149500D01*
X74878711Y-51149500D01*
X74638214Y-51181161D01*
X74403895Y-51243947D01*
X74179794Y-51336773D01*
X74179785Y-51336777D01*
X73969706Y-51458067D01*
X73777263Y-51605733D01*
X73777256Y-51605739D01*
X73605739Y-51777256D01*
X73605733Y-51777263D01*
X73458067Y-51969706D01*
X73336777Y-52179785D01*
X73336773Y-52179794D01*
X73243947Y-52403895D01*
X73181161Y-52638214D01*
X73149500Y-52878711D01*
X40500500Y-52878711D01*
X40500500Y-50624500D01*
X40520185Y-50557461D01*
X40572989Y-50511706D01*
X40624500Y-50500500D01*
X233875500Y-50500500D01*
X233942539Y-50520185D01*
G37*
%TD.AperFunction*%
%TD*%
M02*
